<?xml version="1.0" standalone="no"?>
<!DOCTYPE svg PUBLIC "-//W3C//DTD SVG 20010904//EN"
 "http://www.w3.org/TR/2001/REC-SVG-20010904/DTD/svg10.dtd">
<svg version="1.0" xmlns="http://www.w3.org/2000/svg"
 width="357.000000pt" height="357.000000pt" viewBox="0 0 357.000000 357.000000"
 preserveAspectRatio="xMidYMid meet">
<metadata>
Created by potrace 1.11, written by Peter Selinger 2001-2013
</metadata>
<g transform="translate(0.000000,357.000000) scale(0.100000,-0.100000)"
fill="#000000" stroke="none">
<path d="M1977 3563 c-1 -1 -316 -3 -700 -5 -517 -3 -700 -7 -709 -16 -20 -20
-19 104 -16 -1522 1 -184 -2 -518 -7 -741 -6 -364 -6 -410 9 -441 22 -47 130
-150 256 -245 100 -75 147 -107 320 -218 64 -41 135 -91 175 -123 6 -4 26 -18
45 -32 19 -13 37 -27 40 -30 11 -12 188 -140 223 -160 50 -29 96 -35 141 -16
78 33 609 361 661 408 17 15 35 28 41 28 6 0 35 17 65 38 30 21 79 52 109 68
84 44 279 177 340 232 l55 50 -3 818 c-2 451 -4 1046 -5 1324 -2 562 1 535
-72 567 -36 16 -82 18 -503 18 -255 0 -464 -1 -465 -2z"/>
</g>
</svg>
