<?xml version="1.0" encoding="UTF-8" standalone="no"?>
<!-- Created with Inkscape (http://www.inkscape.org/) -->

<svg
   xmlns:dc="http://purl.org/dc/elements/1.1/"
   xmlns:cc="http://creativecommons.org/ns#"
   xmlns:rdf="http://www.w3.org/1999/02/22-rdf-syntax-ns#"
   xmlns:svg="http://www.w3.org/2000/svg"
   xmlns="http://www.w3.org/2000/svg"
   xmlns:sodipodi="http://sodipodi.sourceforge.net/DTD/sodipodi-0.dtd"
   xmlns:inkscape="http://www.inkscape.org/namespaces/inkscape"
   width="48.878471mm"
   height="49.89492mm"
   viewBox="0 0 173.19143 176.79302"
   id="svg2"
   version="1.1"
   inkscape:version="0.91 r13725"
   sodipodi:docname="repair.svg">
  <defs
     id="defs4" />
  <sodipodi:namedview
     id="base"
     pagecolor="#ffffff"
     bordercolor="#666666"
     borderopacity="1.0"
     inkscape:pageopacity="0.0"
     inkscape:pageshadow="2"
     inkscape:zoom="0.7"
     inkscape:cx="43.177679"
     inkscape:cy="338.37452"
     inkscape:document-units="px"
     inkscape:current-layer="layer1"
     showgrid="false"
     inkscape:window-width="1680"
     inkscape:window-height="997"
     inkscape:window-x="-8"
     inkscape:window-y="-8"
     inkscape:window-maximized="1"
     fit-margin-top="0"
     fit-margin-left="0"
     fit-margin-right="0"
     fit-margin-bottom="0" />
  <metadata
     id="metadata7">
    <rdf:RDF>
      <cc:Work
         rdf:about="">
        <dc:format>image/svg+xml</dc:format>
        <dc:type
           rdf:resource="http://purl.org/dc/dcmitype/StillImage" />
        <dc:title></dc:title>
      </cc:Work>
    </rdf:RDF>
  </metadata>
  <g
     inkscape:label="Layer 1"
     inkscape:groupmode="layer"
     id="layer1"
     transform="translate(-262.80055,-806.14434)">
    <path
       style="fill:#64a5ff;fill-opacity:1;stroke:#0f0f0f;stroke-width:0;stroke-linecap:round;stroke-linejoin:round;stroke-miterlimit:4;stroke-dasharray:none;stroke-opacity:1"
       d=""
       id="path3349"
       inkscape:connector-curvature="0" />
    <g
       id="g4513"
       transform="translate(-721.42858,348.57143)">
      <g
         style="fill:#d3d3d3;fill-opacity:1"
         id="g4408">
        <path
           style="fill:#d3d3d3;fill-opacity:1;stroke:#0f0f0f;stroke-width:0;stroke-linecap:round;stroke-linejoin:round;stroke-miterlimit:4;stroke-dasharray:none;stroke-opacity:1"
           d="m 1064.6506,461.80589 c -23.0355,-0.0154 -43.8254,13.69693 -59.3287,29.71664 -9.76871,10.96606 -15.15024,25.43951 -17.1923,39.83789 2.51313,4.75166 10.5308,2.05405 15.2106,3.71357 10.6687,0.5441 21.605,3.14312 32.1975,1.84819 2.8654,-5.57727 7.3875,-11.95509 14.7475,-10.62741 -1.1359,5.73373 1.3681,10.70154 8.2118,8.54594 5.3272,0.80345 12.1987,-1.70146 16.6853,1.93744 2.2596,8.30033 1.3035,17.27 0.5504,25.76678 -4.1592,5.12517 -12.2404,3.35174 -18.0249,4.63053 -2.4178,-0.48906 -4.4132,2.73162 -5.8439,0.23675 -5.0629,-0.14901 -10.0185,-1.25428 -13.9251,-4.49242 -4.6328,-1.75411 -10.9741,-1.25421 -13.8067,3.13108 -10.8108,0.55643 -21.7987,-1.73623 -32.42159,-1.70069 -1.11633,7.87997 3.81945,15.79227 6.84332,23.03849 9.73627,19.83034 29.23957,33.88371 50.36657,39.46358 9.4087,3.64667 19.5255,4.75432 29.4303,2.59783 15.4312,-1.17949 30.2464,-6.92376 42.2687,-16.69938 19.8573,-14.49583 32.7931,-38.22569 32.6386,-62.9767 2.0097,-24.12211 -9.6016,-47.39463 -25.5656,-64.77998 -11.5037,-12.86267 -27.8172,-20.78635 -45.007,-22.16811 -5.9776,-0.7571 -12.009,-1.12652 -18.0348,-1.02002 z m 7.4795,8.40676 c 9.6565,4.42578 18.9893,14.05619 17.0779,25.59119 -0.2104,9.85764 -6.8552,18.33694 -15.7166,22.17995 -4.446,2.42776 -0.1902,10.00507 -4.6285,11.70356 -1.9228,-3.29726 -2.4721,-8.44765 -0.8287,-11.95807 8.1122,-3.3221 15.8006,-9.28116 17.8928,-18.26956 2.5576,-8.45213 -3.5257,-16.86107 -9.0973,-22.59822 -4.8299,-2.31024 -4.8908,4.97641 -4.7154,7.97468 0.6584,6.34383 -4.8271,12.39543 -11.3563,10.39747 -7.0352,-3.24252 -3.7325,-12.27718 -5.5559,-17.95388 -4.5309,-0.62429 -7.3389,5.48862 -9.8115,8.88421 -6.2765,10.95975 0.6929,25.13195 11.8772,29.53907 1.5319,4.20238 1.9008,9.86078 1.1858,13.99417 -3.6648,0.77483 -1.6677,-5.51463 -3.285,-7.56628 -2.4855,-5.60764 -9.4426,-7.60132 -11.9087,-13.43385 -8.3064,-12.88679 0,-31.10108 13.0057,-37.17045 2.2426,6.72386 -0.9719,16.19715 5.1632,21.20136 6.1877,2.76802 8.936,-5.56931 9.1663,-10.23174 0.9225,-3.92253 -0.4046,-8.86903 1.535,-12.28361 z m -3.2061,102.08854 c 2.5918,2.13534 2.7262,6.73013 6.2326,8.42451 11.0156,5.40623 13.8192,18.63683 12.9386,29.89026 -1.1188,6.9774 -8.5079,13.93322 -15.6751,12.76501 -3.1885,-6.67922 0.8873,-17.81507 -7.6629,-21.27239 -7.4031,-0.79231 -8.6099,9.10632 -8.754,14.54264 0.9823,3.9967 -0.6298,6.88936 -4.6799,3.98932 -6.5785,-3.78195 -12.3088,-10.84852 -10.3217,-18.91596 0.031,-8.1463 5.0602,-14.75004 10.3829,-20.34385 1.6654,-2.62682 1.6845,-5.93861 1.9808,-8.84871 0.7456,4.38972 2.4327,10.11478 0.8101,13.90412 -10.2854,4.96791 -13.37,19.3284 -6.0937,28.11004 3.7674,6.13248 5.578,-1.89519 5.8558,-5.50267 0.5649,-7.15651 9.6194,-12.77833 15.4482,-7.55838 4.8894,3.80391 3.2889,11.39447 7.5939,15.3338 4.7853,0.60249 5.1533,-6.42261 6.5187,-9.66353 2.8434,-10.07025 -4.9461,-18.27727 -12.0647,-24.11345 -2.1545,-2.33435 -7.4374,-8.87235 -2.5096,-10.74076 z"
           id="path4402"
           inkscape:connector-curvature="0" />
        <path
           style="fill:#d3d3d3;fill-opacity:1;stroke:#0f0f0f;stroke-width:0;stroke-linecap:round;stroke-linejoin:round;stroke-miterlimit:4;stroke-dasharray:none;stroke-opacity:1"
           d="m 1046.2232,528.08729 c -6.2193,2.40895 -3.5171,13.87126 -11.5812,13.71795 -4.5479,-0.77073 -10.9638,-1.42541 -8.9552,5.42365 0.5403,4.4106 -2.5196,14.15676 5.2202,11.81262 5.1076,-0.95814 10.6285,-0.60989 14.5724,2.81486 8.5019,1.47178 17.3701,2.02895 25.9483,1.8605 5.858,-3.26887 2.9037,-11.68126 2.5866,-17.01279 0.065,-4.6795 -3.6866,-7.66667 -8.1898,-7.51893 -5.309,-1.441 -12.4636,0.60896 -16.5925,-3.58485 -1.1259,-2.32346 1.0338,-7.39319 -3.0088,-7.51301 z"
           id="path4404"
           inkscape:connector-curvature="0" />
        <path
           style="fill:#d3d3d3;fill-opacity:1;stroke:#0f0f0f;stroke-width:0;stroke-linecap:round;stroke-linejoin:round;stroke-miterlimit:4;stroke-dasharray:none;stroke-opacity:1"
           d="m 991.22714,538.31705 c -5.44349,0.62008 -2.62156,7.92176 -2.92984,11.52995 0.86069,3.90443 -0.62764,11.62809 5.42562,11.36027 8.12058,0.49953 16.50408,2.02493 24.51788,1.35542 4.6954,-5.00556 2.7987,-13.08442 3.3659,-19.34876 -2.7569,-4.0282 -9.4762,-2.33014 -13.9972,-3.21867 -5.5062,0.30419 -10.84939,-1.00888 -16.38236,-1.67821 z"
           id="path4406"
           inkscape:connector-curvature="0" />
      </g>
      <path
         sodipodi:nodetypes="csssssscccccssscccssscsscssscssssccsccsccsscsccsssccccscssssssscsssssscssssssssccssssssccsssscsssscssssccssssscscccsssccsscccccssccssccccscscs"
         inkscape:connector-curvature="0"
         id="path3382"
         d="m 1056.6185,632.97101 c -12.1102,-2.0781 -29.0409,-9.238 -37.1604,-15.715 -18.7891,-14.9884 -27.56245,-28.4622 -32.89435,-50.5187 -3.0978,-12.8144 -3.1154,-35.5468 -0.037,-47.2742 3.0789,-11.7282 6.8767,-19.1976 14.27665,-28.0785 14.9761,-17.9736 30.5937,-27.8437 51.3715,-32.4663 9.5529,-2.1253 31.6087,-1.6455 37.9433,0.8255 2.2,0.8582 6.475,2.1072 9.5,2.7756 5.963,1.3175 11.7707,3.9092 16.5,7.3631 1.65,1.205 5.0906,3.3951 7.6457,4.8668 7.6952,4.4323 19.349,17.8713 24.466,28.2138 11.0999,29.0428 12.843,57.4103 1.3748,83 -6.0761,13.4786 -24.673,32.0818 -38.5287,38.5417 -4.4233,2.0622 -9.5983,4.2275 -11.5,4.8117 -1.9018,0.5842 -5.9328,1.9664 -8.9578,3.0717 -6.5349,2.3877 -21.9429,2.6518 -34,0.5828 z m 22.1548,-5.0419 c 15.7442,-1.8097 23.8861,-4.5787 34.8451,-11.8505 14.6516,-9.722 24.116,-19.7728 30.2419,-32.1155 7.3762,-14.8619 10.302,-35.3935 7.2675,-51 -2.6619,-13.6906 -9.1893,-29.0748 -15.3427,-36.1606 -1.4666,-1.689 -4.7568,-5.7708 -7.3113,-9.0708 -5.9181,-7.645 -20.0412,-17.3079 -29.5961,-20.2495 -8.9832,-2.7655 -29.3682,-5.336 -36.2593,-4.5721 -10.4228,1.1553 -18.9402,3.4417 -25.9771,6.9732 -15.3911,7.7243 -28.3718,18.5413 -36.2299,30.1909 -3.87125,5.7391 -9.34215,20.4334 -10.29045,27.6389 -0.6159,4.6798 -0.5837,4.7508 2.1861,4.8039 2.7063,0.052 27.78005,2.4459 37.54965,3.585 4.4983,0.5245 4.793,0.4084 5.8166,-2.2932 1.5849,-4.1827 4.69,-7.0829 9.5848,-8.9522 5.7055,-2.179 7.8341,-0.7573 6.9687,4.6543 -0.3205,2.0044 -0.3871,3.8401 -0.1479,4.0792 0.2392,0.2392 3.9459,0.1222 8.2372,-0.2601 11.4041,-1.0157 14.8412,-0.3034 16.6605,3.4531 1.0661,2.2012 1.2091,3.62 0.4989,4.9471 -0.6616,1.2361 -0.6608,2.2644 0,3.0635 1.5398,1.8553 0.8606,16.9546 -0.8798,19.5604 -2.0564,3.0788 -7.3638,4.0573 -22.1582,4.0851 -10.2153,0.019 -12.984,-0.2814 -14.2501,-1.5476 -0.8643,-0.8642 -1.5714,-1.9892 -1.5714,-2.5 0,-0.5107 -2.6687,-0.9285 -5.9305,-0.9285 -5.3887,0 -5.9596,0.2055 -6.25,2.25 -0.3068,2.1601 -0.6589,2.2377 -8.8195,1.9433 -4.675,-0.1687 -12.0346,-0.7591 -16.3547,-1.3121 -4.32005,-0.5529 -8.11925,-0.7406 -8.44275,-0.4172 -1.181,1.181 4.0239,16.2324 8.08215,23.3715 5.372,9.4504 9.4162,14.108 18.5567,21.3717 10.1626,8.0758 17.5037,11.6007 32.1587,15.4412 6.8749,1.8017 12.7946,3.2928 13.1548,3.3137 0.3602,0.021 6.6602,-0.6524 14,-1.4961 z m -7.9049,-3.5841 c -0.6875,-0.7051 -1.2539,-2.8794 -1.2586,-4.8319 -0.021,-8.7443 -1.2584,-14.1789 -3.5723,-15.6951 -4.653,-3.0487 -8.8949,3.3118 -8.3526,12.5243 0.3859,6.5574 0.1495,7.1208 -2.9887,7.1208 -3.6358,0 -10.7331,-5.2532 -13.5303,-10.0147 -4.7686,-8.1172 -0.9142,-25.1224 6.8388,-30.1716 3.2924,-2.1442 3.5452,-2.6667 3.4511,-7.1316 -0.056,-2.6498 0.3369,-5.2563 0.8729,-5.7923 1.7573,-1.7573 3.2214,1.5245 3.8901,8.7198 l 0.647,6.9609 -4.2024,2.781 c -7.1972,4.7629 -9.408,14.6716 -5.0167,22.4848 1.287,2.29 2.6561,4.1637 3.0424,4.1637 0.3863,0 1.0219,-2.1316 1.4126,-4.7369 0.9468,-6.3138 2.9315,-9.9091 6.484,-11.7462 8.4824,-4.3864 15.6446,1.2692 17.4722,13.7967 0.5733,3.9305 0.9544,4.6044 2.0766,3.6731 1.7954,-1.4901 4.4963,-9.6944 4.6645,-14.1694 0.1922,-5.1139 -3.8104,-11.5559 -9.6806,-15.5803 -3.713,-2.5456 -5.4634,-4.6058 -6.8006,-8.004 -1.7714,-4.5015 -1.7671,-4.6098 0.2639,-6.6407 2.6471,-2.6471 5.4056,-1.1898 5.8371,3.0837 0.242,2.3967 1.1456,3.385 4.6534,5.0892 8.3376,4.0508 12.7708,12.8944 12.7949,25.5241 0.016,8.4542 -1.6161,12.0655 -7.5699,16.7487 -3.3441,2.6305 -9.667,3.6506 -11.4288,1.8439 z m -15.7067,-94.1319 c -0.2166,-0.6875 -0.6767,-3.3649 -1.0223,-5.9497 -0.4611,-3.4484 -1.148,-4.8646 -2.58,-5.3191 -5.8589,-1.8595 -12.1493,-11.0185 -13.4291,-19.5534 -0.7786,-5.192 1.7774,-13.7444 6.0268,-20.1656 2.4497,-3.7017 10.5456,-9.7622 13.0408,-9.7622 0.8121,0 1.3164,3.1983 1.594,10.1096 0.3451,8.5923 0.6992,10.3241 2.359,11.5378 1.0742,0.7854 2.8563,1.2986 3.9603,1.1403 2.3634,-0.3388 4.2538,-7.6543 4.4108,-17.0691 0.1432,-8.5827 2.4941,-8.6661 12.3939,-0.4395 8.5289,7.0873 11.215,15.7155 8.1615,26.216 -2.5831,8.8827 -5.3574,12.6205 -11.7787,15.8694 l -5.5861,2.8263 -0.2971,5.6546 c -0.2765,5.2638 -0.4777,5.6755 -2.9114,5.9579 -2.2302,0.2588 -2.7077,-0.1637 -3.25,-2.875 -0.8475,-4.2373 -0.7808,-10.1639 0.1297,-11.5334 0.404,-0.6078 2.4336,-1.659 4.51,-2.336 7.4675,-2.4345 12.7265,-9.0028 14.1749,-17.7038 0.5606,-3.3673 0.213,-5.0556 -1.8527,-9 -2.811,-5.3676 -6.9289,-10.3551 -8.5496,-10.3551 -0.6129,0 -1.048,2.4638 -1.048,5.9349 0,7.5844 -1.1777,10.5885 -4.9073,12.5172 -4.2835,2.215 -8.379,1.9486 -10.7934,-0.7021 -3.6675,-4.0267 -4.5025,-6.6365 -3.7872,-11.8372 0.3764,-2.737 0.2781,-4.9128 -0.222,-4.9128 -0.4937,0 -2.3006,1.4625 -4.0153,3.25 -4.3271,4.5109 -6.6474,13.4606 -4.8176,18.5823 2.5568,7.1565 4.9377,10.2043 9.694,12.4092 l 4.6511,2.1561 0.6807,7.2642 c 0.3744,3.9953 0.3924,7.7309 0.04,8.3012 -0.8969,1.4513 -4.5036,1.297 -4.9795,-0.213 z m 17.7891,30.5 c 0.8558,-3.2058 0.097,-15.72 -1.0818,-17.8522 -1.0281,-1.8587 -2.3517,-2.1677 -11.431,-2.668 -9.1335,-0.5033 -10.4736,-0.8194 -12.1264,-2.8605 -1.2532,-1.5477 -1.6766,-3.2019 -1.3006,-5.082 0.3066,-1.533 0.1705,-2.7873 -0.3025,-2.7873 -1.3456,0 -4.0901,4.7038 -4.0901,7.0102 0,1.1444 -1.1586,3.2392 -2.5746,4.6553 -2.2472,2.2471 -3.2011,2.5144 -7.5,2.1013 l -4.9254,-0.4732 0,7.4931 0,7.4931 5.2744,-0.5444 c 6.9216,-0.7144 10.871,0.1041 11.4651,2.3762 0.4242,1.622 1.8497,1.864 12.6194,2.1422 6.6776,0.1726 12.8983,0.411 13.8238,0.5299 0.9254,0.119 1.8928,-0.5712 2.1497,-1.5337 z m -53.3324,-8.6141 0,-9.3641 -4.6396,-0.6359 c -2.5518,-0.3498 -7.6143,-0.6557 -11.25,-0.6798 -3.6357,-0.024 -8.26255,-0.634 -10.28175,-1.3551 -3.3302,-1.1894 -3.7152,-1.1432 -4.1442,0.4973 -0.5375,2.0556 1.0844,18.0039 1.9155,18.835 0.2994,0.2994 6.2494,0.8107 13.22225,1.1362 6.9728,0.3255 13.2403,0.668 13.9278,0.7611 0.923,0.1251 1.25,-2.2798 1.25,-9.1947 z"
         style="fill:#000000" />
    </g>
  </g>
</svg>
