<?xml version="1.0" encoding="UTF-8" standalone="no"?>
<!-- Created with Inkscape (http://www.inkscape.org/) -->

<svg
   xmlns:dc="http://purl.org/dc/elements/1.1/"
   xmlns:cc="http://creativecommons.org/ns#"
   xmlns:rdf="http://www.w3.org/1999/02/22-rdf-syntax-ns#"
   xmlns:svg="http://www.w3.org/2000/svg"
   xmlns="http://www.w3.org/2000/svg"
   xmlns:sodipodi="http://sodipodi.sourceforge.net/DTD/sodipodi-0.dtd"
   xmlns:inkscape="http://www.inkscape.org/namespaces/inkscape"
   width="47.504162mm"
   height="47.703133mm"
   viewBox="0 0 168.32183 169.02685"
   id="svg2"
   version="1.1"
   inkscape:version="0.91 r13725"
   sodipodi:docname="swimmingpool.svg">
  <defs
     id="defs4" />
  <sodipodi:namedview
     id="base"
     pagecolor="#ffffff"
     bordercolor="#666666"
     borderopacity="1.0"
     inkscape:pageopacity="0.0"
     inkscape:pageshadow="2"
     inkscape:zoom="0.7"
     inkscape:cx="269.48323"
     inkscape:cy="104.40255"
     inkscape:document-units="px"
     inkscape:current-layer="layer1"
     showgrid="false"
     inkscape:window-width="1680"
     inkscape:window-height="1027"
     inkscape:window-x="1672"
     inkscape:window-y="-8"
     inkscape:window-maximized="1"
     fit-margin-top="0"
     fit-margin-left="0"
     fit-margin-right="0"
     fit-margin-bottom="0" />
  <metadata
     id="metadata7">
    <rdf:RDF>
      <cc:Work
         rdf:about="">
        <dc:format>image/svg+xml</dc:format>
        <dc:type
           rdf:resource="http://purl.org/dc/dcmitype/StillImage" />
        <dc:title></dc:title>
      </cc:Work>
    </rdf:RDF>
  </metadata>
  <g
     inkscape:label="Layer 1"
     inkscape:groupmode="layer"
     id="layer1"
     transform="translate(-36.494999,-579.93856)">
    <path
       style="fill:#64a5ff;fill-opacity:1;stroke:#0f0f0f;stroke-width:0;stroke-linecap:round;stroke-linejoin:round;stroke-miterlimit:4;stroke-dasharray:none;stroke-opacity:1"
       d=""
       id="path3349"
       inkscape:connector-curvature="0" />
    <g
       id="g4493"
       transform="translate(-721.42858,348.57143)">
      <g
         style="fill:#9dedee;fill-opacity:1"
         id="g4313">
        <path
           style="fill:#9dedee;fill-opacity:1;stroke:#0f0f0f;stroke-width:0;stroke-linecap:round;stroke-linejoin:round;stroke-miterlimit:4;stroke-dasharray:none;stroke-opacity:1"
           d="m 839.47973,235.17112 c -7.45793,0.0188 -14.78957,1.59631 -22.11771,2.82421 -10.47178,1.85107 -18.89632,8.79346 -27.31282,14.78985 -6.19958,4.6509 -12.37858,9.72121 -16.0909,16.67959 -5.4982,9.36827 -10.07375,19.49433 -12.0553,30.22435 -0.67636,8.91775 -1.05883,17.94873 -0.008,26.85102 1.82586,11.5562 6.45764,22.53737 12.21537,32.65512 2.31903,4.20579 7.57605,4.34428 11.78427,4.35071 5.69534,0.1958 11.44065,-0.16351 16.87342,-2.01487 3.59705,-1.26277 7.62424,-1.8452 11.15005,-0.0398 4.19618,1.66442 8.54329,4.21891 13.22536,2.95317 3.43745,-0.42919 6.64865,-2.32351 10.11561,-2.33628 7.9528,1.32089 16.40462,4.58651 24.30734,1.20118 3.30686,-1.3178 6.58693,-3.91498 10.35435,-2.63044 7.28422,1.88664 14.67321,3.4791 22.22572,3.67773 3.96172,0.14901 7.96034,0.70222 11.91351,0.34082 2.5235,-1.4533 3.43629,-4.62158 5.04831,-6.9215 1.13588,-2.56047 3.64703,-5.29003 2.60027,-8.248 -2.14538,-2.44247 -5.51694,-3.43807 -8.33566,-4.94001 -2.19261,-1.29395 -4.85518,-1.31908 -7.04032,0.008 -4.40226,2.25713 -9.26639,3.90018 -14.27455,3.2938 -5.25416,-0.22261 -8.90959,-4.42697 -13.44238,-6.41462 -2.71928,-0.47496 -4.33366,2.50013 -6.86878,2.99722 -3.33222,1.52829 -7.18347,2.32017 -10.65634,0.76603 -2.86255,-1.13353 -6.14071,-2.58001 -7.71484,-5.27762 1.40119,-1.45256 3.85665,-0.27806 5.60477,-0.24972 6.35544,1.24078 13.14541,1.81518 19.292,-0.65987 4.13567,-0.80768 8.193,0.90406 11.63086,3.06431 5.72511,2.50463 12.28151,1.53528 18.01285,-0.41933 3.71314,-1.55135 7.30214,0.62001 10.97501,1.28079 2.6174,0.82714 6.39741,1.48571 7.87039,-1.57156 1.45912,-3.47875 2.85368,-7.24956 2.7274,-11.07004 -0.41818,-3.23841 -4.25286,-2.83743 -6.57854,-3.64746 -4.16584,-0.9504 -7.7191,-3.10763 -11.81662,-4.16983 -2.41311,0.39073 -3.86852,3.01773 -6.12144,4.02823 -5.73928,3.55325 -12.76331,0.60703 -17.83357,-2.52425 -2.45932,-1.08845 -4.55051,-3.64898 -7.28132,-3.6356 -2.85141,1.84744 -5.73281,4.06241 -9.27639,4.39388 -3.5332,0.75101 -7.33445,0.31763 -10.246,-1.96171 -1.23088,-0.80613 -2.55725,-1.71156 -3.47586,-2.79576 1.31639,-1.82116 3.87716,-0.34556 5.65081,-0.27413 5.26764,1.38352 10.93339,1.40665 16.08398,-0.4548 3.94648,-0.87836 8.20576,-0.54959 11.59389,1.81013 3.65867,2.48278 8.22036,4.20175 12.68164,2.9557 2.95981,-0.49457 5.83399,-1.84722 8.73134,-2.20297 5.32953,1.52671 10.50005,3.88122 15.99285,4.71602 3.11161,-0.18702 2.70356,-3.98965 2.85104,-6.20381 -0.0158,-8.85087 0.27286,-18.04702 -3.21307,-26.37613 -5.79737,-15.17611 -14.61393,-29.36795 -26.33295,-40.67741 -8.52114,-8.2218 -19.67568,-13.0116 -30.85594,-16.41062 -7.37595,-1.65656 -15.03901,-1.61614 -22.56278,-1.7341 z m -32.77552,28.39077 c 2.20087,0.19628 4.63719,1.30945 5.92075,3.08663 -1.00638,0.91158 -2.52743,-0.70495 -3.583,-0.9047 -2.79056,-1.59614 -6.52368,-1.84542 -8.95188,0.57128 -5.51192,4.9499 -5.47575,12.93085 -6.20884,19.73005 -0.0656,3.06334 -1.04962,6.27598 -0.0893,9.24455 2.29708,1.60181 5.39578,0.33945 8.03839,0.67 9.20558,-0.29553 18.53765,0.0743 27.63859,-1.33856 2.37122,-1.17451 1.47476,-4.51915 2.03323,-6.715 0.77587,-5.69439 0.46451,-11.97824 3.61163,-17.02282 2.09038,-2.64128 5.35406,-4.35522 8.58538,-5.06767 3.48336,-0.52959 7.00865,0.70828 9.38268,3.30776 0.57317,0.48936 2.08071,2.43117 0.72754,2.59766 -3.47986,-1.79551 -6.17873,-6.17631 -10.62849,-5.36273 -4.47058,1.25509 -5.86436,6.45857 -7.03056,10.38644 -2.71825,9.76916 -1.5697,20.01247 -1.88061,30.01604 -0.0726,14.65456 0.11246,29.33794 -0.15552,43.97531 -0.73031,1.82776 -0.9152,-0.61183 -1.01981,-1.46414 -0.11085,-2.02011 -0.48991,-4.93811 -3.13755,-5.02162 -9.73976,-0.7941 -19.5427,-0.0489 -29.30475,-0.0917 -2.12463,0.19473 -5.9967,-0.79932 -6.13889,2.33888 -0.19891,2.58879 0.005,5.88915 -0.66686,8.1183 -1.98862,-5.41245 -1.12838,-11.35587 -1.45506,-17.00473 -0.0314,-19.7135 -0.031,-39.60243 0.92772,-59.16924 0.45674,-6.8882 5.80014,-14.79586 13.38519,-14.88002 z"
           id="path4305"
           inkscape:connector-curvature="0" />
        <path
           style="fill:#9dedee;fill-opacity:1;stroke:#0f0f0f;stroke-width:0;stroke-linecap:round;stroke-linejoin:round;stroke-miterlimit:4;stroke-dasharray:none;stroke-opacity:1"
           d="m 794.09957,298.32402 c -1.68663,2.15443 -0.37556,5.19418 -0.69447,7.73637 0.14303,3.47829 0.0242,6.99199 0.4873,10.44444 1.29497,2.56802 4.66737,1.18766 6.93918,1.61202 9.08135,0.0175 18.17579,0.18256 27.24888,-0.20089 2.69993,-0.91953 1.76342,-4.38924 2.3058,-6.58653 0.12802,-3.63973 1.12622,-7.44648 0.1384,-10.99857 -2.5042,-1.57134 -5.78949,-0.86207 -8.6399,-1.29381 -8.95294,-0.38758 -17.95153,-0.93186 -26.88532,-0.98602 -0.29996,0.091 -0.59991,0.182 -0.89987,0.27299 z"
           id="path4307"
           inkscape:connector-curvature="0" />
        <path
           style="fill:#9dedee;fill-opacity:1;stroke:#0f0f0f;stroke-width:0;stroke-linecap:round;stroke-linejoin:round;stroke-miterlimit:4;stroke-dasharray:none;stroke-opacity:1"
           d="m 799.60529,322.51906 c -2.20279,-0.0895 -5.82918,0.26716 -5.58942,3.26451 0.50606,4.42261 -0.0492,9.12651 1.12025,13.48981 1.40534,2.33547 4.45505,0.67704 6.59375,1.01862 9.6595,-0.34838 19.41455,-0.20132 29.06178,-0.62962 2.73037,-0.84738 1.18497,-4.24354 1.2962,-6.34673 -0.35059,-2.76512 -0.38753,-5.61273 -1.10212,-8.31054 -1.66923,-2.11238 -4.78412,-1.00896 -7.10754,-1.52957 -8.08505,-0.41557 -16.17506,-0.92655 -24.2729,-0.95648 z"
           id="path4309"
           inkscape:connector-curvature="0" />
        <path
           style="fill:#9dedee;fill-opacity:1;stroke:#0f0f0f;stroke-width:0;stroke-linecap:round;stroke-linejoin:round;stroke-miterlimit:4;stroke-dasharray:none;stroke-opacity:1"
           d="m 803.28345,363.59467 c -6.09832,1.625 -12.6786,1.0036 -18.91323,2.45327 -2.48359,0.74184 -2.18337,3.98577 -0.35854,5.28739 7.83457,7.46899 17.0389,13.4647 26.71347,18.27552 13.92391,6.83913 29.88295,8.04339 45.13323,6.77377 7.22425,-1.12631 14.0534,-3.99774 20.88378,-6.50545 10.00701,-3.76442 18.25732,-11.00108 25.30663,-18.85146 1.49902,-1.47566 1.23217,-4.60078 -1.31835,-4.42106 -6.6717,0.33165 -13.41432,3.28465 -20.05201,1.62972 -4.54421,-0.76587 -8.6907,-2.64051 -12.74657,-4.7604 -2.59794,-0.2296 -4.73505,2.0494 -7.18748,2.80146 -6.31013,2.99198 -13.72011,3.16762 -20.22891,0.69439 -3.363,-1.0716 -6.89758,-3.49281 -10.47332,-1.68904 -5.05369,1.51817 -10.52009,1.12415 -15.65529,0.25454 -3.25958,-0.48533 -6.25689,-2.66466 -9.54878,-2.42197 -0.51821,0.15978 -1.03642,0.31955 -1.55463,0.47932 z"
           id="path4311"
           inkscape:connector-curvature="0" />
      </g>
      <path
         style="fill:#000000"
         d="m 837.33846,400.03782 c -14.8558,-1.3449 -20.29,-3.0414 -34.9785,-10.9198 -20.7269,-11.1173 -34.1354,-28.0269 -41.63,-52.5 -2.4107,-7.872 -2.7621,-10.6921 -2.8038,-22.5 -0.039,-11.1395 0.3486,-14.8805 2.2191,-21.3951 6.7975,-23.6753 21.0448,-41.9816 40.3577,-51.8552 14.6917,-7.511 35.7594,-11.0471 52.7984,-8.8619 9.8788,1.2669 27.2951,7.1769 33.4252,11.3424 12.6027,8.5637 21.8676,20.0528 30.9519,38.3824 10.4667,22.4103 10.6992,40.828 4.1734,59.8874 -2.0838,6.05 -5.0287,13.475 -6.5441,16.5 -7.1795,14.3307 -22.0612,28.4993 -37.2665,35.4809 -11.8733,5.4517 -26.3358,7.7396 -40.7028,6.4389 z m 30.8721,-8.9069 c 13.6376,-4.7561 17.5329,-6.9752 26.3779,-15.0272 7.3276,-6.6708 8.3241,-8.5668 4,-7.6111 -10.9592,2.4222 -12.9346,2.6002 -18.1537,1.6354 -3.0221,-0.5587 -7.221,-1.9155 -9.3308,-3.0152 l -3.836,-1.9995 -3.9317,2.0058 c -9.0172,4.6002 -17.4984,4.6908 -26.7979,0.2864 -2.6924,-1.2751 -3.7878,-1.3407 -5.9488,-0.3561 -4.1317,1.8825 -15.1609,1.4648 -20.3788,-0.7718 -3.2218,-1.3811 -5.0175,-1.6579 -6.2564,-0.9645 -0.9558,0.5348 -5.9492,1.2237 -11.0965,1.5308 -8.9355,0.5331 -9.3059,0.6462 -8.1891,2.4999 2.017,3.3479 16.2847,13.4865 25.1866,17.8976 11.1377,5.5189 21.0082,7.6829 35.4831,7.779 10.9188,0.072 12.0747,-0.1241 22.8721,-3.8895 z m -36.5833,-29.7195 c 4.5261,-1.6223 5.1569,-1.6221 11.5,0 9.5005,2.4347 14.8016,2.1996 20.2112,-0.8965 4.8348,-2.7671 5.9008,-2.7561 16,0.1651 3.025,0.875 10.2387,1.77 16.0305,1.989 l 10.5306,0.3981 3.2194,-5.3826 c 1.7707,-2.9604 3.2195,-6.0169 3.2195,-6.7922 0,-0.7754 -2.4024,-2.4055 -5.3387,-3.6225 l -5.3387,-2.2128 -5.4113,2.519 c -8.5019,3.9576 -15.7677,3.1319 -23.1613,-2.6322 -2.0625,-1.6079 -3.75,-2.4925 -3.75,-1.9656 0,1.5847 -8.3853,5.138 -12.0657,5.113 -4.7317,-0.032 -13.3453,-4.8507 -13.7492,-7.6913 -0.4102,-2.8845 2.8305,-3.7502 8.8476,-2.3637 5.9658,1.3747 12.6074,1.3413 15.2572,-0.077 3.2555,-1.7423 9.5173,-1.1183 12.8919,1.2846 4.2403,3.0194 10.6018,3.5088 16.7712,1.2903 4.5159,-1.6238 5.6029,-1.6775 9.8127,-0.4847 9.988,2.83 9.7144,2.9128 11.537,-3.4939 1.8134,-6.3748 1.5855,-7.4302 -1.6117,-7.4649 -1.2051,-0.013 -4.8508,-1.1172 -8.1017,-2.4537 l -5.9107,-2.4299 -2.9164,2.454 c -5.7862,4.8688 -12.8387,4.5421 -21.8364,-1.0115 l -5.8796,-3.6292 -2.9921,2.2122 c -1.9115,1.4132 -4.8994,2.36 -8.2731,2.6214 -4.5855,0.3553 -5.9165,9e-4 -10.1059,-2.6906 -4.8772,-3.1335 -5.4076,-4.5536 -2.4073,-6.4461 1.1585,-0.7307 3.0035,-0.6776 6.2048,0.1786 5.5265,1.4781 9.5325,1.5473 13.011,0.2248 4.674,-1.7771 11.036,-1.4793 14.141,0.6618 6.2117,4.2834 8.9419,4.7799 15.4497,2.8095 l 5.971,-1.8079 8.018,2.7911 c 4.41,1.5352 8.3373,2.4677 8.7274,2.0724 1.1419,-1.1571 0.5751,-19.6192 -0.7532,-24.5331 -3.885,-14.3723 -15.2411,-33.3945 -26.4924,-44.3765 -5.5284,-5.3961 -9.198,-7.9111 -17.0451,-11.6822 -5.5363,-2.6605 -12.7981,-5.3035 -16.2686,-5.9209 -6.7639,-1.2033 -24.1627,-1.562 -28.2314,-0.582 -1.375,0.3311 -5.735,0.9974 -9.6888,1.4805 -3.9539,0.4832 -9.5972,1.981 -12.5407,3.3285 -6.394,2.9273 -25.2063,16.687 -28.8662,21.1133 -5.0241,6.0764 -11.8078,19.2366 -14.5049,28.1393 -2.3845,7.8709 -2.7208,10.6309 -2.6802,22 0.039,11.0314 0.4467,14.3628 2.6904,22 2.5526,8.6888 8.4073,21.5407 11.104,24.3753 2.312,2.4301 17.3739,2.5207 24.4205,0.1468 7.6517,-2.5776 8.7464,-2.544 15.2166,0.4681 6.3521,2.9571 8.7708,3.0854 15.1381,0.8032 z m -40.3505,-8.5225 c -0.7898,-2.9332 -1.0162,-15.267 -0.7386,-40.25 0.3508,-31.5726 0.6167,-36.5149 2.1533,-40.0209 3.7572,-8.5729 11.6143,-13.1197 17.4535,-10.1001 4.4054,2.2781 5.5406,4.0671 3.6019,5.676 -1.3636,1.1318 -2.0814,1.0744 -4.5933,-0.3673 -3.9795,-2.2839 -6.0501,-2.1532 -8.5742,0.5414 -3.0961,3.3051 -3.9839,6.384 -4.7818,16.5833 l -0.7171,9.1667 11.879,-0.01 c 6.5334,0 14.2086,-0.2886 17.0559,-0.6307 l 5.1769,-0.6219 0.6493,-7.6194 c 1.1524,-13.5246 2.9658,-17.0701 10.364,-20.2636 3.4699,-1.4978 5.0912,-1.6852 7.8913,-0.912 6.4423,1.7788 10.688,7.9035 6.5734,9.4824 -1.0921,0.4191 -2.749,-0.4074 -4.7976,-2.393 -6.5301,-6.3292 -10.7478,-2.8432 -12.937,10.6924 -1.1878,7.3437 -1.3672,15.2579 -0.8951,39.4857 0.5389,27.658 0.4431,30.4233 -1.0982,31.7025 -2.1702,1.8011 -3.3722,0.5574 -3.7826,-3.9138 -0.3666,-3.9937 2.249,-3.6178 -22.3213,-3.2083 l -12.5,0.2087 0,3.9182 c 0,8.0166 -3.1875,9.813 -5.0617,2.8527 z m 23.7637,-14.7709 15.5384,0 -0.4325,-5.979 c -0.2379,-3.2884 -0.6295,-6.1547 -0.8702,-6.3694 -0.2407,-0.2148 -8.0363,-0.7079 -17.3234,-1.0958 -15.4789,-0.6466 -16.8327,-0.5673 -16.25,0.9512 0.3496,0.9111 0.6357,4.3679 0.6357,7.6817 0,5.0834 0.2472,5.9304 1.5818,5.4183 0.87,-0.3339 8.574,-0.607 17.1202,-0.607 z m -1.7494,-22 14.789,0 0.6992,-7.0966 c 0.3846,-3.9032 0.4886,-7.3073 0.2311,-7.5649 -0.2575,-0.2575 -7.9391,-0.7331 -17.0701,-1.0568 l -16.6018,-0.5886 0,8.7604 c 0,7.5775 0.2136,8.6785 1.5818,8.1535 0.87,-0.3339 8.2368,-0.607 16.3708,-0.607 z"
         id="path3380"
         inkscape:connector-curvature="0"
         sodipodi:nodetypes="ssscsssscccsscsscscscsccsssccccsssccsccsssccscscsccccscccsccscssccssscsccccscsscscccssscccsccccssccssscsccsccscscscscsscscscscs" />
    </g>
  </g>
</svg>
