<?xml version="1.0" encoding="UTF-8" standalone="no"?>
<!-- Created with Inkscape (http://www.inkscape.org/) -->

<svg
   xmlns:dc="http://purl.org/dc/elements/1.1/"
   xmlns:cc="http://creativecommons.org/ns#"
   xmlns:rdf="http://www.w3.org/1999/02/22-rdf-syntax-ns#"
   xmlns:svg="http://www.w3.org/2000/svg"
   xmlns="http://www.w3.org/2000/svg"
   xmlns:sodipodi="http://sodipodi.sourceforge.net/DTD/sodipodi-0.dtd"
   xmlns:inkscape="http://www.inkscape.org/namespaces/inkscape"
   width="46.725735mm"
   height="46.846447mm"
   viewBox="0 0 165.56363 165.99135"
   id="svg2"
   version="1.1"
   inkscape:version="0.91 r13725"
   sodipodi:docname="town.svg">
  <defs
     id="defs4" />
  <sodipodi:namedview
     id="base"
     pagecolor="#ffffff"
     bordercolor="#666666"
     borderopacity="1.0"
     inkscape:pageopacity="0.0"
     inkscape:pageshadow="2"
     inkscape:zoom="0.7"
     inkscape:cx="40.209848"
     inkscape:cy="101.36706"
     inkscape:document-units="px"
     inkscape:current-layer="layer1"
     showgrid="false"
     inkscape:window-width="1680"
     inkscape:window-height="1027"
     inkscape:window-x="1672"
     inkscape:window-y="-8"
     inkscape:window-maximized="1"
     fit-margin-top="0"
     fit-margin-left="0"
     fit-margin-right="0"
     fit-margin-bottom="0" />
  <metadata
     id="metadata7">
    <rdf:RDF>
      <cc:Work
         rdf:about="">
        <dc:format>image/svg+xml</dc:format>
        <dc:type
           rdf:resource="http://purl.org/dc/dcmitype/StillImage" />
        <dc:title></dc:title>
      </cc:Work>
    </rdf:RDF>
  </metadata>
  <g
     inkscape:label="Layer 1"
     inkscape:groupmode="layer"
     id="layer1"
     transform="translate(-265.76838,-579.93856)">
    <path
       style="fill:#64a5ff;fill-opacity:1;stroke:#0f0f0f;stroke-width:0;stroke-linecap:round;stroke-linejoin:round;stroke-miterlimit:4;stroke-dasharray:none;stroke-opacity:1"
       d=""
       id="path3349"
       inkscape:connector-curvature="0" />
    <g
       id="g4479"
       transform="translate(-721.42858,348.57143)">
      <g
         style="fill:#f9ce44;fill-opacity:1"
         id="g4339">
        <path
           style="fill:#f9ce44;fill-opacity:1;stroke:#0f0f0f;stroke-width:0;stroke-linecap:round;stroke-linejoin:round;stroke-miterlimit:4;stroke-dasharray:none;stroke-opacity:1"
           d="m 1063.724,234.83132 c -9.593,-0.1411 -19.4717,0.96611 -27.9477,5.81532 -9.8893,5.12681 -20.0321,10.83504 -26.5285,20.20005 -3.2519,4.70937 -7.5702,8.91589 -9.71185,14.27334 -0.48529,3.45479 3.85675,3.17711 6.12305,3.30075 5.4439,0.72612 11.5296,-0.59121 16.5087,2.15743 4.704,4.25506 5.7036,11.24458 9.7691,15.88129 4.1004,0.37574 2.3616,-4.91305 2.6956,-7.43107 0.2936,-8.29259 -0.8195,-16.73976 0.7511,-24.9313 1.3818,-6.28292 5.1196,-12.03317 10.7872,-15.22726 2.6907,-1.54906 5.0446,-4.09265 4.888,-7.37391 2.3461,-2.91555 7.3229,0.0905 6.8067,3.49607 2.839,4.02747 8.0268,5.79964 10.7131,10.06601 5.6281,7.93354 5.1661,18.14113 6.6272,27.30174 1.2345,9.3181 1.3661,18.77757 2.7512,28.07909 1.7512,2.69953 5.4779,0.85675 8.103,0.99141 13.1278,-0.76543 26.25,-0.79785 39.4058,-1.09203 4.5793,4.73697 10.0255,9.33041 12.2224,15.72444 1.1781,4.77083 -0.2851,10.15312 1.9523,14.60677 2.7366,2.05035 4.1208,-1.81001 4.5757,-3.87639 2.6982,-7.98858 4.9047,-16.26687 4.416,-24.78077 0.1252,-8.24162 0.2806,-16.74438 -3.1126,-24.45401 -3.8871,-9.81572 -10.9141,-17.98111 -17.4341,-26.14282 -6.5561,-8.60289 -16.6886,-13.11552 -25.8794,-18.26027 -6.3363,-3.11146 -12.718,-6.73434 -19.6549,-8.09928 -6.2755,-0.0788 -12.5507,-0.25665 -18.8271,-0.2246 z"
           id="path4319"
           inkscape:connector-curvature="0" />
        <path
           style="fill:#f9ce44;fill-opacity:1;stroke:#0f0f0f;stroke-width:0;stroke-linecap:round;stroke-linejoin:round;stroke-miterlimit:4;stroke-dasharray:none;stroke-opacity:1"
           d="m 1054.5755,247.35563 c -7.0814,0.93794 -12.234,7.34871 -14.6942,13.66409 -1.3843,4.10635 -2.8145,8.54638 -2.3472,12.86327 2.3468,1.86291 5.6143,-0.26045 8.3215,0.17731 7.745,-0.61761 15.7543,-0.0111 23.4726,-1.28118 2.4774,-2.27967 0.4141,-6.076 0.1845,-8.90592 -1.5264,-6.94566 -6.0156,-14.25394 -13.1596,-16.35973 -0.5839,-0.11911 -1.1817,-0.17589 -1.7776,-0.15784 z"
           id="path4321"
           inkscape:connector-curvature="0" />
        <path
           style="fill:#f9ce44;fill-opacity:1;stroke:#0f0f0f;stroke-width:0;stroke-linecap:round;stroke-linejoin:round;stroke-miterlimit:4;stroke-dasharray:none;stroke-opacity:1"
           d="m 1053.3118,281.23619 c -3.1001,0.76425 -6.1571,3.44597 -6.8225,6.62222 -0.4064,4.74035 3.9248,9.34435 8.5942,9.46722 5.0193,-0.61506 7.4338,-6.82966 5.0784,-11.05841 -1.213,-2.5728 -3.8726,-5.00604 -6.8501,-5.03103 z"
           id="path4323"
           inkscape:connector-curvature="0" />
        <path
           style="fill:#f9ce44;fill-opacity:1;stroke:#0f0f0f;stroke-width:0;stroke-linecap:round;stroke-linejoin:round;stroke-miterlimit:4;stroke-dasharray:none;stroke-opacity:1"
           d="m 1055.8776,275.487 c -5.3419,0.26972 -10.8428,-0.36408 -16.0894,0.72111 -3.0952,1.70853 -1.5583,6.01404 -1.9207,8.85347 0.6746,21.13589 2.765,42.18636 4.088,63.23532 -0.1771,2.59091 2.0285,4.36257 4.522,3.91631 6.6626,-0.0584 13.5368,0.66354 20.06,-0.89374 3.3773,-1.42738 1.1727,-5.28544 1.2498,-7.879 -0.1199,-4.40079 -1.5874,-8.95207 -0.506,-13.27502 2.1599,-4.14806 5.9261,-7.41287 7.6363,-11.7371 -1.1722,-13.58372 -1.6368,-27.26852 -3.4166,-40.77838 -1.023,-3.82342 -5.8621,-1.65624 -8.7209,-2.19634 -2.3009,0.0111 -4.6017,0.0223 -6.9025,0.0334 z m -2.5421,5.21846 c 4.3513,-0.65399 7.5919,2.92882 9.6112,6.29767 0.7033,5.19831 -3.3518,12.1851 -9.1999,11.52995 -2.9945,-0.85558 -6.7152,-1.69592 -7.5613,-5.22537 -2.1834,-3.51764 -1.4387,-8.27129 2.0005,-10.75655 1.3713,-1.50577 3.1828,-1.91065 5.1495,-1.8457 z"
           id="path4325"
           inkscape:connector-curvature="0" />
        <path
           style="fill:#f9ce44;fill-opacity:1;stroke:#0f0f0f;stroke-width:0;stroke-linecap:round;stroke-linejoin:round;stroke-miterlimit:4;stroke-dasharray:none;stroke-opacity:1"
           d="m 999.5616,280.57426 c -3.76281,-0.0291 -4.01734,4.78927 -5.36162,7.32701 -1.71965,5.44744 -4.30735,10.8342 -4.7912,16.55461 1.35623,2.96681 5.43609,1.58986 8.01802,1.93038 10.3192,-0.41111 20.7583,-0.59884 30.9153,-2.56863 3.4883,-1.45398 0.4387,-5.15168 -0.414,-7.38231 -2.4297,-4.53099 -4.2271,-9.57209 -7.2167,-13.694 -5.4584,-1.31775 -11.4437,-1.30157 -17.1161,-1.98949 -1.3421,-0.0954 -2.6869,-0.21153 -4.0337,-0.17757 z"
           id="path4327"
           inkscape:connector-curvature="0" />
        <path
           style="fill:#f9ce44;fill-opacity:1;stroke:#0f0f0f;stroke-width:0;stroke-linecap:round;stroke-linejoin:round;stroke-miterlimit:4;stroke-dasharray:none;stroke-opacity:1"
           d="m 1029.2871,308.53299 c -12.5339,0.3256 -25.1887,0.14364 -37.63195,1.31128 -2.73043,1.56593 -0.76642,5.5002 -1.09811,8.13227 1.15371,10.81482 3.20795,21.70744 7.38378,31.78824 7.80968,15.152 21.84348,25.98878 36.52828,34.01767 12.197,6.94231 26.3708,8.40345 40.0115,10.26035 7.3553,0.58521 14.3688,-2.64396 21.0968,-5.18985 14.2832,-6.41751 28.2991,-14.77471 38.3256,-27.03244 1.5655,-2.60279 4.7618,-5.19905 4.086,-8.50836 -1.9524,-2.42212 -5.6236,-0.73554 -8.298,-1.15323 -29.6582,0.81848 -59.3101,3.23554 -88.9755,1.82107 -1.4427,-1.34667 -0.7625,-4.12794 -1.2173,-5.97208 -1.0577,-12.25646 -0.8148,-24.89254 -2.6024,-37.1784 -0.9689,-3.15652 -5.2094,-2.03073 -7.6087,-2.29652 z"
           id="path4329"
           inkscape:connector-curvature="0" />
        <path
           style="fill:#f9ce44;fill-opacity:1;stroke:#0f0f0f;stroke-width:0;stroke-linecap:round;stroke-linejoin:round;stroke-miterlimit:4;stroke-dasharray:none;stroke-opacity:1"
           d="m 1129.8466,330.40911 c -9.9814,0.90235 -20.0968,0.87825 -29.9978,2.34782 -3.6571,2.17187 -1.9689,7.24463 -1.8989,10.68058 0.5936,2.65338 -0.4418,8.24612 3.8307,7.46359 11.1425,-1.00577 22.426,-1.03698 33.4989,-1.71222 2.8517,-1.49778 0.9877,-5.65203 1.5121,-8.32804 -0.2524,-3.45421 0.4523,-7.33159 -1.4661,-10.38366 -1.7508,-0.7401 -3.6495,-0.0656 -5.4789,-0.0681 z"
           id="path4331"
           inkscape:connector-curvature="0" />
        <path
           style="fill:#f9ce44;fill-opacity:1;stroke:#0f0f0f;stroke-width:0;stroke-linecap:round;stroke-linejoin:round;stroke-miterlimit:4;stroke-dasharray:none;stroke-opacity:1"
           d="m 1086.3736,333.26398 c -5.3971,0.3275 -10.9569,0.26116 -16.197,1.65037 -2.2792,2.22358 -0.6545,5.89826 -0.8651,8.74611 0.4524,2.52048 -0.4533,7.0746 3.1784,7.37293 6.8098,0.5815 13.8324,0.67478 20.5364,-0.52879 2.521,-1.81096 0.9398,-5.77317 1.2391,-8.55963 -0.4886,-2.73258 0.4171,-6.3857 -1.6692,-8.35241 -1.9188,-0.74771 -4.1856,-0.17351 -6.2226,-0.32858 z"
           id="path4333"
           inkscape:connector-curvature="0" />
        <path
           style="fill:#f9ce44;fill-opacity:1;stroke:#0f0f0f;stroke-width:0;stroke-linecap:round;stroke-linejoin:round;stroke-miterlimit:4;stroke-dasharray:none;stroke-opacity:1"
           d="m 1082.3744,313.59066 c -2.7335,1.10792 -3.3697,4.62743 -5.3517,6.6469 -1.4235,2.86054 -4.8037,5.16168 -4.6887,8.53992 1.9646,2.76594 5.8413,0.47878 8.5555,0.82807 3.3365,-0.71024 7.6981,0.55533 10.2872,-2.15488 1.3746,-3.23274 -2.0657,-6.03243 -3.4033,-8.69383 -1.603,-1.71952 -2.6313,-5.21419 -5.399,-5.16618 z"
           id="path4335"
           inkscape:connector-curvature="0" />
        <path
           style="fill:#f9ce44;fill-opacity:1;stroke:#0f0f0f;stroke-width:0;stroke-linecap:round;stroke-linejoin:round;stroke-miterlimit:4;stroke-dasharray:none;stroke-opacity:1"
           d="m 1110.8431,312.10306 c -7.7348,0.24269 -15.6281,-0.31549 -23.2482,0.9263 -3.35,2.05334 1.2385,5.29898 2.398,7.47552 2.2134,2.37117 3.2803,5.78805 5.8656,7.72609 5.4409,1.07555 11.1416,-0.16551 16.6666,-0.0503 7.4047,-0.42664 14.8631,-0.46783 22.2292,-1.26762 3.2139,-2.16364 -0.7818,-5.36421 -1.9236,-7.56628 -2.1436,-2.34408 -3.2576,-6.08516 -6.2819,-7.30684 -5.2352,0.0211 -10.4704,0.0421 -15.7057,0.0631 z"
           id="path4337"
           inkscape:connector-curvature="0" />
      </g>
      <path
         sodipodi:nodetypes="ssssssssssssssssscsssscsssscscsssscccsssssscsccsssssccccscccccscsccccccccsscscccsssssssssscsssssssscsscsssccscsccssscscsssccscscsccssssscsssscss"
         inkscape:connector-curvature="0"
         id="path3374"
         d="m 1062.3397,396.38893 c -12.0961,-1.9814 -21.6709,-5.1267 -31.0081,-10.1861 -16.1311,-8.7407 -29.951,-22.02449 -36.26249,-34.85569 -3.894,-7.9166 -6.8315,-22.782 -7.5822,-38.3707 -0.5925,-12.3046 -0.525,-12.8865 2.6228,-22.6293 3.8156,-11.80945 8.5267,-21.53665 13.15149,-27.15467 1.836,-2.23037 4.6883,-5.88818 6.3383,-8.12846 5.2014,-7.06226 23.2606,-18.00491 36,-21.8136 8.0654,-2.41134 34.5085,-2.53798 42.0362,-0.20133 6.1214,1.9001 21.602,9.59126 30.0717,14.94036 8.2146,5.18798 19.9309,18.58162 27.0493,30.92182 5.2648,9.12668 8.8463,25.76828 7.8318,36.38988 -1.0827,11.3354 -9.0935,37.7825 -13.9588,46.0845 -7.1167,12.14379 -28.3048,26.92719 -47.4389,33.09909 -9.5027,3.0652 -18.2419,3.642 -28.8511,1.9042 z m 31.5247,-8.7044 c 17.0388,-6.6409 34.9167,-19.8532 41.1429,-30.40579 l 2.206,-3.739 -15.3069,0.6573 c -66.7447,2.866 -81.8709,2.9736 -83.3425,0.5925 -0.6103,-0.9874 -0.9871,-6.1102 -1.9454,-26.4424 -0.3369,-7.15 -0.833,-14.1496 -1.1024,-15.5546 l -0.4897,-2.5546 -20.7135,0.3695 c -11.3924,0.2032 -21.19499,0.5201 -21.78369,0.7042 -2.2816,0.7136 1.8872,24.9785 6.1878,36.0163 1.64529,4.2229 7.33399,12.6709 10.80189,16.0413 7.7052,7.48879 17.3904,14.69289 25.1007,18.67029 9.9016,5.108 16.4705,7.0372 29.9798,8.8047 4.95,0.6476 9.675,1.3246 10.5,1.5044 3.0328,0.6608 8.7462,-0.7593 18.765,-4.6641 z m -28.9584,-37.48249 c 1.4852,-0.3978 2.1082,-1.1348 1.7494,-2.0696 -0.3064,-0.7985 -0.827,-5.1269 -1.1569,-9.6186 l -0.5998,-8.1667 4.1458,-5.8593 4.1458,-5.8592 -1.5454,-19.1856 c -0.85,-10.5521 -1.5455,-20.00198 -1.5455,-20.99977 0,-1.68742 -1.0424,-1.78873 -14.9216,-1.45022 -8.2068,0.20017 -15.193,0.63542 -15.5248,0.96723 -0.6704,0.67033 0.9738,32.34326 2.4079,46.38686 0.5055,4.95 1.0044,12.6 1.1086,17 0.1042,4.4 0.3826,8.3375 0.6187,8.75 0.5143,0.8984 17.8338,0.9845 21.1178,0.1049 z m -14.1309,-50.8066 c -2.1035,-0.7501 -3.9402,-1.5178 -4.0816,-1.7061 -4.7337,-6.2994 -4.9004,-11.382 -0.5171,-15.7653 2.5289,-2.52888 3.8826,-3.07694 7.6,-3.07694 3.8105,0 5.0586,0.5356 7.923,3.40004 3.8019,3.8019 4.1144,5.7741 1.8223,11.5027 -1.0712,2.6771 -2.6448,4.4495 -4.9011,5.5202 -3.8846,1.8434 -3.065,1.8303 -7.8455,0.1254 z m 6.3901,-4.5835 c 3.1104,-1.6647 2.6769,-8.4321 -0.681,-10.6323 -2.3421,-1.5346 -2.8903,-1.5599 -5.25,-0.2419 -3.8442,2.1473 -4.1185,6.9904 -0.5546,9.7937 3.0577,2.4052 3.7841,2.5262 6.4856,1.0805 z m 35.3938,53.9111 c 0.3421,-0.3433 0.3165,-3.6058 -0.057,-7.25 l -0.6788,-6.6259 -5.1119,0.099 c -2.8116,0.054 -7.587,0.3919 -10.612,0.75 l -5.5,0.6511 0.3532,6 c 0.1942,3.3 0.5833,6.378 0.8647,6.8401 0.5733,0.9415 19.7689,0.5118 20.7417,-0.4642 z m 34.7026,-0.8708 7.6622,0 -0.087,-8.0608 -0.087,-8.0609 -6.0751,0.5375 c -3.3413,0.2957 -11.3626,0.8175 -17.8251,1.1596 -13.303,0.7041 -12.3463,-0.1861 -11.0854,10.3152 l 0.6473,5.3906 9.594,-0.6354 c 5.2768,-0.3495 13.0421,-0.6377 17.2563,-0.6406 z m 17.3237,-17.9535 c 4.5415,-16.5593 3.5477,-34.2061 -2.6074,-46.3002 -2.9009,-5.69987 -14.6812,-21.3593 -19.501,-25.92245 -4.5634,-4.32042 -22.8418,-14.65676 -32.8505,-18.5768 -6.6371,-2.5995 -7.8869,-2.74784 -22.527,-2.67381 -16.1245,0.0815 -20.4559,0.85531 -29.9999,5.35925 -5.8581,2.7645 -16.8581,9.62769 -19.859,12.39052 -3.7759,3.47643 -16.141,19.79251 -16.141,21.29852 0,1.06327 2.0431,1.37333 9.0496,1.37333 12.2633,0 14.2024,1.09953 18.5557,10.52154 1.8717,4.0511 3.7529,7.5818 4.1803,7.846 0.4275,0.2642 0.3902,-3.8729 -0.083,-9.1936 -1.2616,-14.18956 0.3338,-25.22027 4.5394,-31.3848 1.9053,-2.7928 5.0225,-5.71177 7.5079,-7.0306 3.4036,-1.80598 4.25,-2.79613 4.25,-4.97164 0,-3.43614 2.8742,-5.16545 6.3737,-3.83491 2.5954,0.98676 4.6247,3.80562 3.9941,5.54801 -0.199,0.55 1.3069,1.9 3.3466,3 4.5702,2.46472 9.8798,9.27932 11.2792,14.47628 1.2659,4.70127 3.6503,24.76336 4.585,38.57786 l 0.6803,10.0541 5.1206,-0.7311 c 2.8163,-0.4021 13.4667,-0.764 23.6675,-0.8041 l 18.5471,-0.073 3.5304,3.75 c 8.9104,9.4647 9.8755,11.3844 9.8755,19.6439 0,4.1833 0.3954,7.6061 0.8787,7.6061 0.4833,0 2.1065,-4.4768 3.6071,-9.9484 z m -61.7821,-2.1762 c 3.4121,-0.1102 6.6616,-0.4832 7.221,-0.8289 0.5949,-0.3677 -0.6909,-3.0362 -3.0977,-6.4289 l -4.1148,-5.8003 -2.6061,3.9947 c -1.4334,2.197 -3.6861,5.4399 -5.0061,7.2063 -2.1368,2.8594 -2.1916,3.1483 -0.5,2.6345 1.045,-0.3174 4.6917,-0.6672 8.1037,-0.7774 z m 52.0276,-2.3213 c 0.1273,-0.1009 -1.6467,-2.742 -3.9422,-5.8689 l -4.1735,-5.6852 -19.3078,0 c -10.6193,0 -19.3079,0.3474 -19.3079,0.7721 0,0.4247 1.281,2.3372 2.8466,4.25 1.5655,1.9128 3.3971,4.5197 4.07,5.7931 l 1.2236,2.3152 19.1799,-0.6963 c 10.549,-0.383 19.2841,-0.779 19.4113,-0.88 z m -118.9555,-21.7252 c 7.3017,-0.6456 13.1517,-1.4337 13,-1.7514 -0.1517,-0.3176 -2.2455,-4.482 -4.6529,-9.2541 l -4.3771,-8.6766 -7.6229,-0.613 c -4.1926,-0.3372 -9.0324,-0.8306 -10.7551,-1.0966 -2.90519,-0.4486 -3.25779,-0.1741 -4.86779,3.7896 -1.7385,4.28 -5.5,16.604 -5.5,18.02 0,1.0896 9.54929,0.9285 24.77579,-0.4179 z m 41.4741,-31.91403 c 6.4625,-0.0716 11.7474,-0.19421 11.7443,-0.27252 0,-0.0783 -0.4273,-2.71563 -0.9425,-5.8607 -1.0317,-6.29898 -4.4051,-12.05642 -8.7379,-14.91319 -3.8924,-2.56645 -6.3642,-2.33904 -10.9888,1.01102 -4.3085,3.12106 -7.592,9.44457 -8.8285,17.00244 l -0.7169,4.38197 3.3602,-0.60944 c 1.8481,-0.3352 8.6477,-0.66801 15.1101,-0.73958 z"
         style="fill:#000000" />
    </g>
  </g>
</svg>
