<?xml version="1.0" encoding="UTF-8" standalone="no"?>
<!-- Created with Inkscape (http://www.inkscape.org/) -->

<svg
   xmlns:dc="http://purl.org/dc/elements/1.1/"
   xmlns:cc="http://creativecommons.org/ns#"
   xmlns:rdf="http://www.w3.org/1999/02/22-rdf-syntax-ns#"
   xmlns:svg="http://www.w3.org/2000/svg"
   xmlns="http://www.w3.org/2000/svg"
   xmlns:sodipodi="http://sodipodi.sourceforge.net/DTD/sodipodi-0.dtd"
   xmlns:inkscape="http://www.inkscape.org/namespaces/inkscape"
   width="45.750137mm"
   height="47.846394mm"
   viewBox="0 0 162.10679 169.53446"
   id="svg2"
   version="1.1"
   inkscape:version="0.91 r13725"
   sodipodi:docname="scissors.svg">
  <defs
     id="defs4" />
  <sodipodi:namedview
     id="base"
     pagecolor="#ffffff"
     bordercolor="#666666"
     borderopacity="1.0"
     inkscape:pageopacity="0.0"
     inkscape:pageshadow="2"
     inkscape:zoom="0.7"
     inkscape:cx="-189.41286"
     inkscape:cy="104.91017"
     inkscape:document-units="px"
     inkscape:current-layer="layer1"
     showgrid="false"
     inkscape:window-width="1680"
     inkscape:window-height="997"
     inkscape:window-x="-8"
     inkscape:window-y="-8"
     inkscape:window-maximized="1"
     fit-margin-top="0"
     fit-margin-left="0"
     fit-margin-right="0"
     fit-margin-bottom="0" />
  <metadata
     id="metadata7">
    <rdf:RDF>
      <cc:Work
         rdf:about="">
        <dc:format>image/svg+xml</dc:format>
        <dc:type
           rdf:resource="http://purl.org/dc/dcmitype/StillImage" />
        <dc:title></dc:title>
      </cc:Work>
    </rdf:RDF>
  </metadata>
  <g
     inkscape:label="Layer 1"
     inkscape:groupmode="layer"
     id="layer1"
     transform="translate(-495.39109,-579.93856)">
    <path
       style="fill:#64a5ff;fill-opacity:1;stroke:#0f0f0f;stroke-width:0;stroke-linecap:round;stroke-linejoin:round;stroke-miterlimit:4;stroke-dasharray:none;stroke-opacity:1"
       d=""
       id="path3349"
       inkscape:connector-curvature="0" />
    <g
       id="g4472"
       transform="translate(-721.42858,348.57143)">
      <g
         style="fill:#ed6059;fill-opacity:1"
         id="g4357">
        <path
           style="fill:#ed6059;fill-opacity:1;stroke:#0f0f0f;stroke-width:0;stroke-linecap:round;stroke-linejoin:round;stroke-miterlimit:4;stroke-dasharray:none;stroke-opacity:1"
           d="m 1295.338,235.36473 c -15.2115,-0.14771 -29.7846,6.04225 -42.26,14.31641 -9.7877,9.05423 -20.1582,18.2115 -26.5751,30.09347 -6.7748,14.05433 -4.9861,30.23753 -5.0391,45.35296 1.4845,15.70098 8.0676,30.75925 17.0773,43.58957 7.7018,10.69415 19.2962,17.95095 31.1301,23.2938 15.5862,5.40608 32.659,6.23357 48.8839,3.6928 24.5519,-6.1726 43.7015,-26.653 52.5935,-49.8298 3.2314,-7.1896 4.9906,-14.93981 4.4521,-22.84876 -0.2026,-12.82803 1.3367,-26.48831 -4.939,-38.26591 -6.6273,-17.06624 -21.0283,-29.51751 -35.6097,-39.8019 -11.6398,-7.7271 -25.9968,-9.87764 -39.714,-9.59264 z m 27.6981,12.31027 c -5.0239,19.4247 -13.4705,37.77838 -19.9916,56.72294 -0.2819,3.92158 4.3728,2.50228 5.9528,0.58314 14.1662,-10.02969 27.1489,-21.77578 41.8681,-30.98911 1.4848,-0.86365 3.7606,-0.61237 3.0482,1.66573 0.433,5.62501 -6.2766,7.68818 -9.7363,10.81474 -14.2318,10.34097 -28.2722,20.95166 -43.0273,30.55524 -2.0871,3.41629 1.7773,7.33189 2.3377,10.9479 5.2481,14.77144 7.9305,31.53563 4.0699,47.10595 -2.4323,6.00101 -7.762,11.66463 -14.3318,12.86133 -5.6146,0.74574 -12.4395,-1.62579 -13.9383,-7.67997 -3.8827,-9.54051 -3.3062,-20.18581 -2.2042,-30.35017 2.3182,-7.0027 7.6482,-12.96009 13.6621,-17.08844 2.3069,-1.59491 7.0415,1.52617 6.8248,-2.92829 -3.6004,-7.9143 -4.6579,-17.05282 -1.2975,-25.2567 6.7354,-18.6609 14.5106,-36.9782 24.3122,-54.25921 0.5837,-0.86884 1.8603,-2.63839 2.4512,-2.70508 z m -50.9612,64.70285 c 4.535,-0.20655 9.6987,1.05052 11.3574,5.8803 4.5377,8.4209 -2.7179,17.17421 -9.6135,21.51088 -6.6771,3.70672 -13.5464,7.98275 -21.204,9.01926 -6.0865,0.29722 -15.0967,0.11293 -16.7843,-7.46652 -1.8701,-10.27013 7.3951,-17.53606 15.1831,-22.15159 6.443,-3.60956 13.6092,-6.45066 21.0613,-6.79233 z"
           id="path4351"
           inkscape:connector-curvature="0" />
        <path
           style="fill:#ed6059;fill-opacity:1;stroke:#0f0f0f;stroke-width:0;stroke-linecap:round;stroke-linejoin:round;stroke-miterlimit:4;stroke-dasharray:none;stroke-opacity:1"
           d="m 1295.97,330.30754 c -2.6643,0.99566 -3.2126,4.4775 -5.6278,6.08258 -7.7773,9.21763 -8.7323,22.15152 -8.2171,33.70536 0.44,6.05 2.8194,14.5964 10.166,14.73912 7.9814,-2.83478 10.4457,-12.38704 11.9551,-19.84837 2.2932,-11.61346 -0.1045,-24.03992 -6.3412,-34.03416 -0.5046,-0.49164 -1.2302,-0.75608 -1.935,-0.64453 z"
           id="path4353"
           inkscape:connector-curvature="0" />
        <path
           style="fill:#ed6059;fill-opacity:1;stroke:#0f0f0f;stroke-width:0;stroke-linecap:round;stroke-linejoin:round;stroke-miterlimit:4;stroke-dasharray:none;stroke-opacity:1"
           d="m 1273.0389,316.23248 c -10.8063,1.36844 -20.5719,7.7143 -28.3161,15.113 -4.0094,3.52184 -3.1383,12.09917 2.2782,13.53795 8.7598,-1.64947 17.2335,-5.49459 24.6651,-10.3976 4.1408,-3.89852 9.8413,-10.18974 6.2877,-16.12584 -1.0703,-1.63056 -3.0583,-2.19835 -4.9149,-2.12751 z"
           id="path4355"
           inkscape:connector-curvature="0" />
      </g>
      <path
         sodipodi:nodetypes="sscssssssscssssssssssscssscsccsssscccssscscsssscsscscssssssssscscscccscscc"
         inkscape:connector-curvature="0"
         id="path3378"
         d="m 1285.7653,400.33168 c -16.5999,-1.99 -29.1117,-7.9196 -42.4681,-20.1265 -12.2311,-11.1786 -21.909,-30.3849 -25.1217,-49.8552 -1.8498,-11.211 -1.7978,-31.7304 0.1008,-39.7839 2.8405,-12.0473 12.1185,-27.0543 22.7127,-36.7369 16.2261,-14.8299 35.6887,-22.5016 56.9842,-22.4619 13.4791,0.025 21.5242,2.0256 34.7922,8.6508 10.3921,5.1891 12.4665,6.71 21.5325,15.7871 8.2383,8.2483 10.8592,11.6544 14.6547,19.0448 2.5422,4.95 5.8418,12.825 7.3324,17.5 2.4548,7.6992 2.7027,9.866 2.6313,23 -0.097,17.8903 -2.0095,26.3483 -9.157,40.5 -6.0056,11.8909 -12.7042,20.5673 -21.4451,27.7772 -8.1633,6.7335 -19.8921,13.4541 -26.7264,15.3142 -6.7008,1.8238 -25.9681,2.5716 -35.8224,1.3903 z m 32,-6.0263 c 9.5021,-1.6726 21.7727,-8.5543 30.9591,-17.3627 10.6995,-10.2592 16.4203,-19.2896 22.2315,-35.0927 3.2832,-8.9286 3.3093,-9.139 3.2807,-26.5 -0.032,-19.3666 -0.4288,-21.037 -9.0807,-38.2174 -5.2624,-10.4498 -17.7564,-22.4797 -34.2796,-33.0063 -1.4881,-0.948 -6.7343,-2.9341 -11.6582,-4.4135 -7.5553,-2.2699 -10.8259,-2.6908 -20.9528,-2.6968 -14.5336,-0.01 -21.1187,1.5439 -34.3746,8.1038 -8.0117,3.9647 -11.1237,6.2675 -19.2312,14.2302 -17.7809,17.4636 -21.9793,27.4527 -21.8947,52.0949 0.052,15.1111 0,14.3949 1.7293,22.4051 2.6688,12.3383 10.1112,28.162 17.018,36.1828 1.3342,1.5494 2.7245,3.3263 3.0895,3.9486 1.268,2.1616 16.7012,12.6113 23.1032,15.643 11.1022,5.2573 34.4073,7.4365 50.0605,4.681 z m -33.8911,-6.02 c -3.8783,-1.7385 -4.9593,-3.3953 -7.7874,-11.9354 -2.1292,-6.4292 -2.383,-21.1005 -0.4793,-27.708 2.17,-7.5322 12.3241,-18.1634 17.4393,-18.2588 3.2831,-0.061 3.2227,3.0215 -0.1103,5.63 -5.695,4.4569 -9.5803,16.7148 -9.4571,29.8368 0.087,9.2361 2.0968,15.001 5.8222,16.6984 5.3393,2.4328 10.0733,-3.2017 12.9532,-15.417 2.8635,-12.1457 1.247,-22.4169 -5.7103,-36.2814 -4.4039,-8.7762 -5.3317,-14.3346 -3.5257,-21.1202 5.1505,-19.3508 25.4807,-63.5665 29.511,-64.1827 1.1292,-0.1726 2.253,0.4063 2.6138,1.3462 0.5405,1.4083 -8.0703,25.7483 -17.8287,50.3963 -1.4022,3.5418 -2.5496,7.0703 -2.5496,7.8412 0,0.8165 2.8183,-0.8144 6.75,-3.906 10.5706,-8.312 24.3579,-18.8761 32.2456,-24.707 5.5877,-4.1306 7.753,-5.1967 9.6087,-4.731 1.9961,0.501 2.3957,1.2284 2.3957,4.36 0,4.2243 -0.5977,4.8849 -10.1329,11.1997 -3.5019,2.3192 -7.042,4.8444 -7.8671,5.6117 -3.0763,2.861 -13.8487,10.6997 -24.7182,17.9869 l -11.2184,7.5209 2.8712,7.8671 c 4.8083,13.1752 6.328,21.4247 6.2661,34.0169 -0.066,13.4259 -1.6506,18.3023 -7.8425,24.133 -6.1511,5.7922 -12.1617,6.9795 -19.2492,3.8024 z m -41.6089,-38.3947 c -5.5624,-2.0286 -8.5,-5.7019 -8.5,-10.6286 0,-8.9516 6.4847,-16.7527 19.2151,-23.1159 9.2094,-4.6032 15.7332,-6.1313 22.5853,-5.2903 4.736,0.5813 5.6145,1.0842 8.25,4.7224 5.7259,7.9043 2.8143,16.9182 -8.1868,25.3453 -0.7708,0.5904 -4.5429,2.5469 -8.3826,4.3476 -3.8395,1.8007 -7.696,3.6387 -8.5699,4.0843 -3.3642,1.7156 -12.3693,2.0092 -16.4111,0.5352 z m 9,-7.6294 c 2.2001,-0.5926 6.3346,-2.1651 9.1882,-3.4944 2.8534,-1.3293 5.5534,-2.4312 6,-2.4485 1.1088,-0.043 5.2349,-3.8079 8.5618,-7.8121 3.316,-3.9909 3.6544,-8.6019 0.7458,-10.1586 -4.9221,-2.6342 -20.7402,4.8224 -30.234,14.2523 -1.9697,1.9564 -2.2936,5.8876 -0.7265,8.8157 1.2056,2.2528 1.2293,2.2559 6.4647,0.8456 z"
         style="fill:#000000" />
    </g>
  </g>
</svg>
