<?xml version="1.0" encoding="UTF-8" standalone="no"?>
<!-- Created with Inkscape (http://www.inkscape.org/) -->

<svg
   xmlns:dc="http://purl.org/dc/elements/1.1/"
   xmlns:cc="http://creativecommons.org/ns#"
   xmlns:rdf="http://www.w3.org/1999/02/22-rdf-syntax-ns#"
   xmlns:svg="http://www.w3.org/2000/svg"
   xmlns="http://www.w3.org/2000/svg"
   xmlns:sodipodi="http://sodipodi.sourceforge.net/DTD/sodipodi-0.dtd"
   xmlns:inkscape="http://www.inkscape.org/namespaces/inkscape"
   width="51.1007mm"
   height="51.015972mm"
   viewBox="0 0 181.06547 180.76525"
   id="svg2"
   version="1.1"
   inkscape:version="0.91 r13725"
   sodipodi:docname="bike.svg">
  <defs
     id="defs4" />
  <sodipodi:namedview
     id="base"
     pagecolor="#ffffff"
     bordercolor="#666666"
     borderopacity="1.0"
     inkscape:pageopacity="0.0"
     inkscape:pageshadow="2"
     inkscape:zoom="0.7"
     inkscape:cx="500.91179"
     inkscape:cy="-229.51188"
     inkscape:document-units="px"
     inkscape:current-layer="layer1"
     showgrid="false"
     inkscape:window-width="1680"
     inkscape:window-height="1027"
     inkscape:window-x="1672"
     inkscape:window-y="-8"
     inkscape:window-maximized="1"
     fit-margin-top="0"
     fit-margin-left="0"
     fit-margin-right="0"
     fit-margin-bottom="0" />
  <metadata
     id="metadata7">
    <rdf:RDF>
      <cc:Work
         rdf:about="">
        <dc:format>image/svg+xml</dc:format>
        <dc:type
           rdf:resource="http://purl.org/dc/dcmitype/StillImage" />
        <dc:title></dc:title>
      </cc:Work>
    </rdf:RDF>
  </metadata>
  <g
     inkscape:label="Layer 1"
     inkscape:groupmode="layer"
     id="layer1"
     transform="translate(-36.495003,-348.57143)">
    <path
       style="fill:#64a5ff;fill-opacity:1;stroke:#0f0f0f;stroke-width:0;stroke-linecap:round;stroke-linejoin:round;stroke-miterlimit:4;stroke-dasharray:none;stroke-opacity:1"
       d=""
       id="path3349"
       inkscape:connector-curvature="0" />
    <g
       id="g4424"
       transform="translate(-721.42858,348.57143)">
      <g
         style="fill:#5b925e;fill-opacity:1"
         id="g3428">
        <path
           style="fill:#5b925e;fill-opacity:1;stroke:#0f0f0f;stroke-width:0;stroke-linecap:round;stroke-linejoin:round;stroke-miterlimit:4;stroke-dasharray:none;stroke-opacity:1"
           d="m 815.99201,83.369679 c -0.5963,1.107492 -1.31077,2.102527 -2.0896,3.080796 -1.04584,1.733268 0.98195,3.068647 2.44917,3.51331 8.22176,4.120812 13.64205,13.324935 12.98732,22.542485 -0.044,1.77446 -0.20717,4.6716 2.21528,4.85494 1.13146,0.31604 2.5822,0.43801 3.2248,-0.85231 0.60495,-2.42231 -0.12669,-4.99581 -0.15631,-7.46823 -0.46776,-5.38408 -1.01786,-10.789245 -1.7523,-16.127989 -0.77267,-1.899316 -3.06974,-2.540162 -4.53407,-3.855468 -3.43968,-2.335753 -6.94961,-4.826459 -10.92424,-6.087173 -0.51393,-0.196042 -0.94657,0.265594 -1.42005,0.399639 z"
           id="path3406"
           inkscape:connector-curvature="0" />
        <g
           style="fill:#5b925e;fill-opacity:1"
           id="g3421">
          <path
             inkscape:connector-curvature="0"
             id="path3408"
             d="m 897.25306,68.318011 c -2.4036,0.13047 -5.45047,1.911756 -5.18837,4.626085 0.54546,2.388514 3.46762,2.075816 5.33931,2.056311 1.92563,0.150677 4.61647,-0.870427 4.26898,-3.216902 -0.38734,-2.021248 -2.3581,-3.577486 -4.41992,-3.465494 z"
             style="fill:#5b925e;fill-opacity:1;stroke:#0f0f0f;stroke-width:0;stroke-linecap:round;stroke-linejoin:round;stroke-miterlimit:4;stroke-dasharray:none;stroke-opacity:1" />
          <g
             style="fill:#5b925e;fill-opacity:1"
             id="g3416">
            <path
               style="fill:#5b925e;fill-opacity:1;stroke:#0f0f0f;stroke-width:0;stroke-linecap:round;stroke-linejoin:round;stroke-miterlimit:4;stroke-dasharray:none;stroke-opacity:1"
               d="m 885.73753,31.944783 c -12.54208,1.051011 -9.53957,22.61699 2.55859,19.882812 8.87541,-2.214911 10.29441,-15.33909 1.72992,-18.934151 -1.31039,-0.687593 -2.80672,-1.050495 -4.28851,-0.948661 z"
               id="path3402"
               inkscape:connector-curvature="0" />
            <path
               style="fill:#5b925e;fill-opacity:1;stroke:#0f0f0f;stroke-width:0;stroke-linecap:round;stroke-linejoin:round;stroke-miterlimit:4;stroke-dasharray:none;stroke-opacity:1"
               d="m 804.24478,93.31197 c -15.40511,0.08598 -22.05065,22.38378 -9.72098,31.35603 8.61516,7.72965 23.43398,5.83888 28.44029,-5.06418 7.54888,-12.57237 -5.69809,-26.986163 -18.71931,-26.29185 z"
               id="path3404"
               inkscape:connector-curvature="0" />
            <path
               style="fill:#5b925e;fill-opacity:1;stroke:#0f0f0f;stroke-width:0;stroke-linecap:round;stroke-linejoin:round;stroke-miterlimit:4;stroke-dasharray:none;stroke-opacity:1"
               d="M 849.78329,5.6306088 C 821.21927,5.2444809 791.27183,17.768109 776.42423,43.150344 c -11.24647,14.207331 -13.35979,32.699231 -12.63703,50.21743 0.35143,12.107786 -2.42487,25.011966 5.53712,35.365896 12.70027,22.04191 34.41428,40.08537 59.4545,45.8004 28.01969,2.2669 58.07277,-3.8925 79.32479,-23.27009 21.41377,-21.87643 31.89747,-56.10491 22.17913,-85.680805 C 922.84028,46.369858 912.03755,26.954671 893.05101,17.092999 881.45504,8.7552707 867.52402,4.3899303 853.21521,5.5720151 c -1.14397,0.019531 -2.28795,0.039063 -3.43192,0.058594 z m 36.40904,22.5809152 c 8.28227,-0.264086 15.86827,6.794157 13.62723,15.298549 0.45661,11.521931 -14.37313,16.581185 -22.53906,9.68192 -11.15659,-7.122512 -3.79813,-25.749406 8.91183,-24.980469 z m -33.41518,10.044643 c 5.67672,-0.888202 11.10784,2.245708 11.24442,8.353794 2.49966,6.533582 0.73225,15.889294 6.45089,20.61942 6.50056,2.96502 15.42628,7.171379 20.625,-0.332031 5.40918,-6.542492 16.4779,-0.908235 12.79297,7.215401 -2.13063,6.047827 -9.1497,5.01421 -13.66071,7.360492 -5.06817,5.109198 -8.46822,14.705498 -0.74705,19.352137 12.03819,10.42264 12.59526,31.72221 -1.16701,40.9492 -11.94066,8.89063 -35.29221,7.49442 -39.34152,-9.21317 -2.14692,-11.40586 -1.19504,-25.95377 10.50223,-31.86942 2.20828,-1.462122 9.13834,-4.1125 9.92745,-1.169082 -8.38617,5.504292 -18.00156,13.576772 -16.18861,24.946982 0.76303,10.72354 11.08447,18.35156 21.57354,16.57154 12.55511,0.63525 21.92742,-14.15518 16.7384,-25.53917 -1.42826,-8.32822 -12.20952,-11.50423 -12.77344,-19.773995 0.0351,-5.684027 7.61078,-12.115872 3.36775,-17.212611 -6.70565,-4.048223 -18.01933,-2.598643 -20.07255,-12.000559 -3.2094,-6.901442 -1.81286,-15.370695 -5.83426,-21.794084 -9.60769,-0.724266 -19.43301,3.75018 -28.6356,6.609933 -7.56817,4.418671 -15.6894,9.753301 -20.24554,17.34096 3.15858,6.649681 12.68491,8.137523 18.28501,12.60944 6.0511,4.343097 16.39221,7.690381 13.82716,16.966453 0,9.426153 0,18.852303 0,28.278463 -7.42562,3.36821 -5.01828,-4.70539 -5.2846,-9.11831 -3.25844,-6.35844 -6.00452,4.12469 -8.20313,7.02846 -10.4249,15.26434 -40.1083,11.15452 -41.7327,-8.976 -3.35949,-12.36755 4.80683,-28.883462 18.90346,-27.742747 4.20116,-1.092 12.15781,2.64602 14.04018,-2.64788 -3.03748,-6.957732 -14.27582,-5.467086 -18.01339,-11.222099 7.13723,-21.883419 31.71899,-34.727993 53.62165,-35.591517 z"
               id="path3400"
               inkscape:connector-curvature="0" />
          </g>
        </g>
      </g>
      <path
         sodipodi:nodetypes="csscsssssssccscccssccscssccccscsscscsscsccsscccscscssccsssscssccscccscccssscccccscccsssscccssscsscsssssccssscsscccscssccc"
         inkscape:connector-curvature="0"
         id="path3390"
         d="m 807.64513,172.49688 c -17.6691,-8.3805 -31.0836,-20.8404 -41.3353,-38.3938 -6.6958,-11.4648 -8.1976,-19.1018 -8.3517,-42.471996 -0.1277,-19.3579 -0.039,-20.3049 2.7468,-29.5 3.9986,-13.1954 7.3999,-19.476301 16.2764,-30.055901 12.8223,-15.2825 28.2551,-25.0133003 47.2853,-29.8146003 11.8247,-2.98329999 33.6886,-3.01939999 45.393,-0.075 14.9158,3.7524 19.4345,5.7733 32.9624,14.7416003 18.7901,12.4568 30.6583,33.566801 35.2175,62.641401 1.4013,8.9364 1.4744,11.9625 0.4749,19.6531 -1.4901,11.464996 -6.7555,27.218096 -12.1101,36.231296 -5.6069,9.4378 -16.702,21.8049 -24.0214,26.7755 -35.4066,20.1951 -64.8075,24.3093 -94.5378,10.2684 z m 58.6811,-0.9087 c 11.0117,-2.961 24.6555,-9.0434 33.5279,-14.9469 4.6596,-3.1005 8.476,-5.9461 8.4807,-6.3237 0.01,-0.3775 1.4886,-2.2615 3.2974,-4.1865 1.8087,-1.925 4.904,-6.2 6.8784,-9.5 8.2365,-13.7664 10.538,-20.1079 13.3775,-36.860396 2.6753,-15.7834 0.069,-30.8013 -8.1518,-46.9656 -2.0066,-3.9457 -4.4948,-8.3684 -5.5292,-9.828301 -1.0345,-1.4599 -1.8809,-3.0529 -1.8809,-3.5401 0,-0.7374 -5.8819,-7.8861 -8.6976,-10.5707 -3.0796,-2.9364 -12.0616,-9.1863 -18.8262,-13.0999 -13.4797,-7.7985003 -16.9598,-8.7533003 -33.9762,-9.3224003 -8.3308,-0.2786 -16.7785,-0.066 -19,0.4774 -14.8407,3.6321003 -24.0883,6.6517003 -29.1572,9.5204003 -10.0346,5.6792 -14.4234,8.739 -17.484,12.1896 -11.1887,12.158284 -20.37097,27.759814 -23.494,42.903501 -1.6182,9.2306 -1.8928,34.579996 -0.4563,42.130196 1.1427,6.0063 4.8359,16.1904 6.1705,17.0152 0.5222,0.3227 1.8158,2.2438 2.8745,4.269 1.0587,2.0252 3.123,5.0321 4.5872,6.6821 1.4642,1.65 3.6291,4.1318 4.8108,5.515 4.6769,5.4746 21.7627,17.9522 26.6616,19.4708 1.3678,0.424 4.1747,1.6224 6.2375,2.6632 7.6672,3.8684 13.5544,4.7704 28.7494,4.4048 9.6575,-0.2324 16.6707,-0.9326 21,-2.0967 z m -8.5148,-25.5516 c -7.6401,-4.0153 -11.4852,-11.4995 -11.4852,-22.3544 0,-12.4319 3.6239,-18.9033 14.2237,-25.399496 4.8409,-2.9669 10.1319,-2.6681 10.5958,0.5984 0.1758,1.237496 -0.085,2.249996 -0.5785,2.249996 -2.0905,0 -10.7025,6.6544 -13.3602,10.3232 -5.4473,7.5198 -3.2805,20.4026 4.3465,25.8426 2.7747,1.979 4.49,2.3339 11.2727,2.332 6.8629,0 8.522,-0.3551 11.673,-2.4846 5.3711,-3.6301 6.827,-6.7329 6.827,-14.5494 0,-8.7974 -3.2185,-14.3179 -11.75,-20.1545 -3.2865,-2.2483 -2.9836,-7.913096 0.8266,-15.461096 1.6922,-3.3522 2.7047,-6.4304 2.25,-6.8404 -1.1049,-0.9966 -13.3112,-5.0078 -15.239,-5.0078 -4.3323,0 -8.6474,-9.5348 -9.6169,-21.25 l -0.6414,-7.75 -4.1647,0.01 c -5.9959,0.01 -19.856,3.5406 -26.4709,6.7428 -5.7073,2.7629 -18.1937,14.2906 -18.1937,16.7968 0,0.6997 5.5921,4.0728 12.427,7.4959 7.639,3.8258 13.8683,7.6998 16.168,10.0549 l 3.7411,3.8312 0.9863,16.549296 c 1.1837,19.8626 0.7196,21.8122 -5.0783,21.3321 l -3.7441,-0.31 0.3196,-7.5 c 0.1757,-4.125 -0.2244,-12.0811 -0.8892,-17.6804 l -1.2087,-10.180296 -4.1109,-2.9318 c -4.47444,-1.432308 -12.09506,-7.327255 -14.3044,-8.3108 -1.5436,-0.6115 -3.5385,-1.4827 -4.4333,-1.9359 -0.8948,-0.4532 -3.2026,-1.1195 -5.1284,-1.4808 -2.2539,-0.4229 -3.9616,-1.5167 -4.793,-3.0701 -1.1465,-2.1423 -0.9219,-3.1485 2.0002,-8.9638 5.9841,-11.9086 22.1041,-23.881401 37.5812,-27.912701 5.9446,-1.5484 18.9055,-1.9094 23.4096,-0.6521 2.829,0.7897 4.3637,5.574201 5.9218,18.461901 0.5235,4.3302 1.3306,8.247 1.7936,8.7038 0.463,0.4569 4.3124,1.9301 8.5543,3.2737 l 7.7124,2.443 1.5919,-2.4296 c 1.992,-3.0401 7.2784,-6.3254 10.1862,-6.3303 3.9666,-0.01 7.2037,2.1833 8.3468,5.647 2.5055,7.5918 -2.5614,13.9415 -10.3643,12.9883 -2.9589,-0.3615 -3.9234,-0.093 -4.2996,1.1974 -0.2667,0.915 -1.3693,3.3393 -2.4502,5.3874 -4.2413,8.0367 -4.2326,8.297 0.3788,11.227 6.1033,3.877896 9.2136,8.859796 10.6174,17.006296 1.8806,10.9134 0.8499,15.2059 -5.4991,22.9032 -4.587,5.561 -6.1936,6.7881 -10.601,8.097 -7.815,2.3208 -20.4022,2.0467 -25.3465,-0.5519 z m 41.8764,-74.405496 c -0.3166,-0.825 -1.3724,-1.5 -2.3462,-1.5 -0.9738,0 -2.3307,0.675 -3.0154,1.5 -1.0673,1.286 -0.7325,1.5 2.3461,1.5 2.7812,0 3.4613,-0.3382 3.0155,-1.5 z m -100.8616,62.573496 c -5.8106,-1.3981 -11.4553,-5.4164 -13.4481,-9.5735 -2.463,-5.138 -4.1683,-14.6338 -3.3714,-18.7732 1.8184,-9.444696 6.6839,-16.000396 13.9389,-18.780996 4.3801,-1.6787 15.2939,-1.3746 19.8806,0.554 9.1161,3.8331 15.5,13.436796 15.5,23.317796 0,10.7565 -3.6025,17.0443 -12.2837,21.44 -5.5889,2.8299 -13.1714,3.511 -20.2163,1.8159 z m 15.7909,-7.4217 c 4.0712,-1.701 8.422,-7.919 9.2654,-13.2414 1.1992,-7.5687 -5.3676,-16.446896 -13.5563,-18.327796 -7.428,-1.7062 -9.989,-1.3245 -14.5406,2.1674 -6.9328,5.318796 -8.6282,14.058896 -4.2718,22.022796 4.0529,7.4091 14.8091,10.8446 23.1033,7.379 z m 67.1039,-69.598196 c -11.272,-2.6925 -15.2158,-17.128401 -7.0782,-25.909701 2.7695,-2.9886 5.637,-4.0881 11.2111,-4.299 5.6,-0.2118 11.6372,2.4715 13.8007,6.1339 2.3136,3.9168 2.2187,13.521901 -0.1784,18.036801 -3.0572,5.7585 -9.6043,7.985 -17.7552,6.038 z m 9.4031,-7.9454 c 2.5766,-1.379 4.5808,-6.463101 3.7899,-9.614201 -1.5697,-6.254 -8.7362,-8.5249 -13.953,-4.4214 -2.1017,1.6532 -2.6317,2.9178 -2.6195,6.25 0.018,4.977401 0.6245,6.090401 4.3788,8.038101 2.9776,1.5448 5.1684,1.479 8.4038,-0.2525 z"
         style="fill:#000000" />
    </g>
  </g>
</svg>
