<?xml version="1.0" encoding="UTF-8" standalone="no"?>
<!-- Created with Inkscape (http://www.inkscape.org/) -->

<svg
   xmlns:dc="http://purl.org/dc/elements/1.1/"
   xmlns:cc="http://creativecommons.org/ns#"
   xmlns:rdf="http://www.w3.org/1999/02/22-rdf-syntax-ns#"
   xmlns:svg="http://www.w3.org/2000/svg"
   xmlns="http://www.w3.org/2000/svg"
   xmlns:sodipodi="http://sodipodi.sourceforge.net/DTD/sodipodi-0.dtd"
   xmlns:inkscape="http://www.inkscape.org/namespaces/inkscape"
   width="49.825165mm"
   height="48.690304mm"
   viewBox="0 0 176.54586 172.5247"
   id="svg2"
   version="1.1"
   inkscape:version="0.91 r13725"
   sodipodi:docname="kayak.svg">
  <defs
     id="defs4" />
  <sodipodi:namedview
     id="base"
     pagecolor="#ffffff"
     bordercolor="#666666"
     borderopacity="1.0"
     inkscape:pageopacity="0.0"
     inkscape:pageshadow="2"
     inkscape:zoom="0.7"
     inkscape:cx="-182.78594"
     inkscape:cy="-123.46672"
     inkscape:document-units="px"
     inkscape:current-layer="layer1"
     showgrid="false"
     inkscape:window-width="1680"
     inkscape:window-height="997"
     inkscape:window-x="-8"
     inkscape:window-y="-8"
     inkscape:window-maximized="1"
     fit-margin-top="0"
     fit-margin-left="0"
     fit-margin-right="0"
     fit-margin-bottom="0" />
  <metadata
     id="metadata7">
    <rdf:RDF>
      <cc:Work
         rdf:about="">
        <dc:format>image/svg+xml</dc:format>
        <dc:type
           rdf:resource="http://purl.org/dc/dcmitype/StillImage" />
        <dc:title></dc:title>
      </cc:Work>
    </rdf:RDF>
  </metadata>
  <g
     inkscape:label="Layer 1"
     inkscape:groupmode="layer"
     id="layer1"
     transform="translate(-488.76417,-348.57143)">
    <path
       style="fill:#64a5ff;fill-opacity:1;stroke:#0f0f0f;stroke-width:0;stroke-linecap:round;stroke-linejoin:round;stroke-miterlimit:4;stroke-dasharray:none;stroke-opacity:1"
       d=""
       id="path3349"
       inkscape:connector-curvature="0" />
    <g
       id="g4444"
       transform="translate(-721.42858,348.57143)">
      <g
         style="fill:#63a6ff;fill-opacity:1"
         id="g3469">
        <path
           style="fill:#63a6ff;fill-opacity:1;stroke:#0f0f0f;stroke-width:0;stroke-linecap:round;stroke-linejoin:round;stroke-miterlimit:4;stroke-dasharray:none;stroke-opacity:1"
           d="m 1303.4612,3.8866562 c -11.5982,0.1699915 -23.4072,1.2686951 -34.2454,5.6845036 -12.93,4.9669762 -24.1674,13.5232512 -33.7016,23.4523012 -3.9769,3.786747 -7.318,8.233074 -9.521,13.282203 -3.5819,7.991176 -7.4476,15.917098 -9.978,24.322544 -2.5154,8.887186 -1.7715,18.238951 -1.471,27.350108 0.2526,7.964114 2.6793,15.648844 5.8991,22.876414 6.6542,15.37828 18.0373,28.87303 32.6755,37.16601 1.0105,0.31277 1.8283,-0.32617 1.9176,1.04789 2.0812,2.33798 5.3879,3.05597 8.2076,4.16515 9.2591,3.06724 18.8773,5.75378 28.7311,5.27525 9.4997,0.0303 19.0383,-1.1283 28.0863,-4.10342 11.1647,-3.59395 21.9624,-8.47145 31.8881,-14.73375 13.64,-9.05345 22.4843,-23.87285 27.159,-39.30062 3.1513,-10.705788 4.5987,-21.961354 4.0639,-33.114128 -0.3319,-5.338666 -2.5812,-10.297758 -4.1178,-15.358074 -4.6659,-13.656073 -11.1016,-27.318199 -22.1833,-36.959693 -8.7053,-7.603615 -19.1591,-12.95471 -29.8898,-17.0855687 -7.5145,-2.7622967 -15.5011,-4.2435474 -23.5203,-3.9671201 z m 46.6229,25.1349428 c 1.0993,-0.01851 2.7361,-0.133457 2.7656,1.439271 1.0755,3.792232 0.4691,7.876916 0.6103,11.724228 -0.1305,8.407856 -1.3455,16.520116 -3.7517,24.623506 -2.9159,9.340002 -6.4386,18.420958 -10.2828,27.351247 -0.9526,1.850925 -1.6735,4.00159 -3.2591,5.4067 -1.1871,0.04106 -2.3905,-0.52559 -3.5617,-0.149452 -0.1459,-3.73182 2.1406,-6.965298 3.4851,-10.300607 4.4575,-9.455343 8.1659,-19.253565 11.538,-29.140721 2.2412,-8.816253 3.3253,-17.907149 4.1439,-26.917894 -0.062,-2.407142 -2.9302,-2.054079 -4.6248,-2.011554 -7.3853,0.329994 -14.437,2.93896 -21.2996,5.491739 -12.703,5.05945 -24.3023,12.674877 -34.5725,21.650706 -4.7375,4.273289 -9.2355,8.821581 -13.3115,13.727814 -1.4508,1.692124 -3.6566,0.03738 -5.1766,-0.654685 -4.0719,-2.021926 -7.4907,-5.42858 -11.9625,-6.575204 -2.4115,-0.343348 -4.6522,1.11758 -7.0918,0.854288 -7.0382,-0.288716 -14.0773,-1.895642 -20.5014,-4.796252 -1.2617,-0.590851 -3.2545,-1.60492 -2.2428,-3.297299 2.4146,-6.472894 5.3653,-12.699843 8.9187,-18.626168 0.5791,-0.670299 1.0176,-2.140614 2.19,-1.632126 5.1265,0.994404 9.15,4.502263 12.6758,8.14337 3.7195,3.941327 6.466,8.821453 7.5337,14.159399 1.2793,4.530214 5.9885,6.556049 9.4795,9.109051 1.2234,1.240487 3.4553,1.580318 4.3535,-0.211317 5.4501,-6.535424 11.4599,-12.610577 17.7594,-18.326977 7.3212,-6.146834 16.1233,-10.209809 24.6145,-14.306693 7.522,-3.558747 15.555,-5.754775 23.8424,-6.316146 2.5713,-0.206318 5.1487,-0.3752 7.7284,-0.418224 z m -21.2527,27.386083 c 1.3979,-0.22788 3.3692,0.983523 2.5792,2.556949 -2.2566,9.178304 -4.6912,18.51776 -9.776,26.601342 -1.3405,2.655532 -4.1292,5.501033 -2.8312,8.698262 1.7129,2.879073 5.1682,3.977981 7.8878,5.661657 1.4835,0.585258 2.925,2.164078 4.5907,1.614598 0.3029,1.90116 2.5509,2.60385 3.8628,3.76022 2.402,1.6683 5.1887,3.78704 8.2999,2.80676 6.6625,-2.23413 14.2121,-1.99904 20.6322,0.90854 3.0914,1.64015 6.2109,3.47884 8.5656,6.10383 -2.6389,5.25635 -5.2227,10.47881 -8.7639,15.18386 -0.9325,1.4531 -2.723,2.16244 -4.3306,1.38008 -5.5922,-1.71911 -9.2409,-6.70656 -12.7286,-11.07706 -2.0144,-2.46419 -3.0883,-5.43224 -4.8184,-8.14593 -2.3777,-3.18586 -6.106,-5.03698 -9.6857,-6.53491 -1.7227,-0.60745 -3.4156,1.00196 -3.2273,2.73352 -1.78,3.72224 -5.1175,6.4118 -8.0175,9.25115 -15.038,13.6478 -32.4901,24.4311 -51.1106,32.47524 -4.5581,1.87816 -9.6769,3.40129 -13.9836,5.30144 -1.1685,-6.23992 -2.8422,-12.32731 -3.1987,-18.72284 -0.599,-8.22607 -0.7083,-16.51036 0.8361,-24.5761 2.335,-9.41715 6.2806,-18.338008 10.8058,-26.921951 1.0324,-1.654539 2.0961,-3.652295 3.9563,-4.457889 5.9105,2.67626 11.3582,6.281886 17.0065,9.461927 5.8665,3.329622 11.5325,7.047026 17.5764,10.046153 2.4466,0.80862 4.0783,-1.859031 5.2875,-3.539483 1.1198,-1.526633 1.1454,-3.961777 -0.7157,-4.932878 -4.7795,-3.096241 -10.1877,-5.160212 -14.8178,-8.48617 -1.37,-0.840661 0.1406,-2.313113 0.6116,-3.240084 4.694,-6.423881 10.9072,-11.7568 17.4468,-16.130874 3.766,-2.36454 7.7666,-4.761821 12.1307,-5.980517 1.8958,-0.972585 3.6683,-2.095329 5.9297,-1.798842 z"
           id="path3457"
           inkscape:connector-curvature="0" />
        <path
           style="fill:#63a6ff;fill-opacity:1;stroke:#0f0f0f;stroke-width:0;stroke-linecap:round;stroke-linejoin:round;stroke-miterlimit:4;stroke-dasharray:none;stroke-opacity:1"
           d="m 1323.0892,61.28088 c -4.1692,0.733188 -7.794,3.213123 -11.3159,5.431786 -5.1931,3.63602 -9.7117,8.261851 -13.351,13.439521 -1.1842,1.39738 -0.6311,3.385112 0.9658,4.16244 3.6498,2.249844 7.2485,4.749792 11.2941,6.228617 2.4885,0.313193 3.7029,-2.464238 4.9605,-4.122982 3.9336,-6.391735 7.5857,-13.042598 10.0892,-20.135477 0.557,-1.716008 0.9748,-4.695517 -1.4288,-5.009094 -0.3939,-0.120991 -0.8117,0.01628 -1.2139,0.0052 z"
           id="path3459"
           inkscape:connector-curvature="0" />
        <path
           style="fill:#63a6ff;fill-opacity:1;stroke:#0f0f0f;stroke-width:0;stroke-linecap:round;stroke-linejoin:round;stroke-miterlimit:4;stroke-dasharray:none;stroke-opacity:1"
           d="m 1243.9678,40.026245 c -2.3776,0.250173 -3.3375,2.901846 -4.6253,4.568527 -2.1157,3.595659 -4.5391,7.180432 -5.5384,11.275774 -0.2384,2.567016 2.0044,4.717052 4.4594,4.98171 4.8652,1.107452 9.9211,1.990455 14.9008,1.565969 2.0316,-0.39179 1.7912,-3.288531 0.052,-3.983825 -2.7728,-2.041813 -6.27,-3.177133 -8.5843,-5.781742 -0.3716,-0.750912 0.018,-1.453748 0.833,-0.757121 4.5592,2.171055 8.4819,5.609283 13.2598,7.311275 2.0081,0.484295 3.2609,-1.989878 2.2353,-3.579432 -2.4419,-5.831765 -6.9036,-10.686856 -12.4034,-13.777139 -1.4265,-0.786594 -2.9147,-1.756368 -4.5891,-1.823996 z"
           id="path3461"
           inkscape:connector-curvature="0" />
        <path
           style="fill:#63a6ff;fill-opacity:1;stroke:#0f0f0f;stroke-width:0;stroke-linecap:round;stroke-linejoin:round;stroke-miterlimit:4;stroke-dasharray:none;stroke-opacity:1"
           d="m 1268.6928,87.107837 c -2.7239,0.225303 -3.1291,3.489707 -4.0729,5.484388 -4.0129,10.987065 -8.7235,22.155475 -8.5885,34.069125 -0.029,6.27229 -0.3187,12.60406 0.5514,18.83163 0.3314,2.46321 1.6239,5.55792 4.5068,5.66879 4.0904,-0.12415 7.715,-2.41607 11.3955,-3.96391 15.1547,-7.18251 29.4185,-16.30502 42.2215,-27.1407 4.3423,-3.57777 8.0068,-7.94546 12.5465,-11.27741 1.1905,-0.93154 2.7759,0.78203 3.8654,-0.58078 1.4939,-1.63009 -0.3384,-3.44171 -1.8639,-4.177 -4.1974,-2.34764 -8.6017,-4.371544 -13.0455,-6.165535 -2.1821,-0.417531 -3.3087,2.118114 -4.8576,3.220905 -2.3117,2.00751 -4.3479,4.66228 -7.325,5.66583 -2.5098,-0.0819 -4.4323,-2.10944 -6.5771,-3.19677 -8.8678,-5.509661 -17.6588,-11.199584 -26.9592,-15.961108 -0.5677,-0.249897 -1.1626,-0.508443 -1.7974,-0.477455 z m -2.9456,46.718073 c 1.7171,0.13706 3.7685,0.90479 4.4431,2.54511 -0.9702,1.24695 -2.9575,1.77997 -4.3671,1.38058 -0.236,-1.2173 -0.5243,-2.91253 -0.076,-3.92569 z"
           id="path3463"
           inkscape:connector-curvature="0" />
        <path
           style="fill:#63a6ff;fill-opacity:1;stroke:#0f0f0f;stroke-width:0;stroke-linecap:round;stroke-linejoin:round;stroke-miterlimit:4;stroke-dasharray:none;stroke-opacity:1"
           d="m 1353.4061,108.11832 c -2.0726,-0.2173 -3.41,2.43398 -1.9597,3.94788 2.7086,2.73168 6.4422,4.12945 9.4377,6.51618 1.8796,1.39305 3.8245,3.86523 6.4663,2.808 3.094,-1.09834 3.6358,-5.647 1.097,-7.62004 -3.5697,-3.35495 -8.5618,-4.53215 -13.2213,-5.50553 -0.602,-0.0901 -1.2101,-0.16485 -1.82,-0.14649 z"
           id="path3465"
           inkscape:connector-curvature="0" />
        <path
           style="fill:#63a6ff;fill-opacity:1;stroke:#0f0f0f;stroke-width:0;stroke-linecap:round;stroke-linejoin:round;stroke-miterlimit:4;stroke-dasharray:none;stroke-opacity:1"
           d="m 1348.0061,114.47715 c -2.087,0.12796 -2.439,2.85611 -1.1152,4.13137 3.3112,4.20118 7.3562,8.01596 12.1761,10.41226 2.2438,1.21173 5.3881,0.0607 5.8434,-2.57569 0.7409,-1.93572 -0.205,-4.11823 -2.0867,-4.95343 -4.5647,-2.57755 -9.2027,-5.13886 -14.1256,-6.95729 -0.2269,-0.0553 -0.4598,-0.0612 -0.692,-0.0572 z"
           id="path3467"
           inkscape:connector-curvature="0" />
      </g>
      <path
         style="fill:#000000"
         d="m 1283.6411,172.17688 c -6.9313,-0.70986 -20.6427,-4.59374 -27.754,-7.86159 -9.5601,-4.39314 -17.7938,-10.9911 -26.2551,-21.03915 -8.8924,-10.55986 -13.1672,-18.50753 -16.6312,-30.92073 -2.4386,-8.73872 -2.7927,-11.76579 -2.8077,-23.999996 -0.02,-16.079781 0.7831,-19.160611 9.9014,-38.000001 8.1594,-16.85845 17.6147,-27.45724 32.5466,-36.48245 14.4466,-8.7319101 29.2467,-12.7933801 50,-13.72108005 17.6029,-0.78687 24.3787,1.19158995 44.1839,12.90114005 7.0182,4.14945 19.9545,16.7784 25.6108,25.00244 1.778,2.58502 4.814,8.84384 6.7467,13.90848 9.491,24.87072 9.9045,37.870021 2.009,63.162137 -3.0317,9.71162 -4.4722,12.66264 -9.2117,18.8706 -18.1728,23.80336 -58.5061,41.2355 -88.3387,38.1802 z m 22.0262,-6.38183 c 12.3468,-1.545 28.4266,-7.63736 43.2648,-16.39226 18.3205,-10.80948 30.755,-34.62546 32.2792,-61.824566 0.6027,-10.753701 0.4953,-11.637061 -2.5689,-21.133131 -9.7065,-30.08056 -20.4731,-42.76456 -46.1489,-54.36736 -14.1873,-6.4112101 -25.2506,-7.6904601 -45.2679,-5.2343901 -16.7535,2.05562 -32.8431,10.2861101 -46.8579,23.9696601 -9.4396,9.21657 -9.9551,9.95216 -15.0977,21.54241 -8.7678,19.7602 -9.1309,21.21435 -9.1132,36.500001 0.012,10.24158 0.4717,15.068866 1.9054,19.999996 5.8208,20.02098 17.6862,36.30295 33.7077,46.25448 l 2.6289,1.63288 -1.9579,-8.69368 c -2.464,-10.94071 -2.6393,-29.01321 -0.3656,-37.69368 2.2297,-8.51253 9.3675,-24.838076 12.5005,-28.590867 1.9672,-2.35641 3.1728,-3.00979 4.6741,-2.53327 1.1128,0.35317 9.1824,4.913081 17.9325,10.133141 8.7501,5.22005 16.1881,9.491 16.529,9.491 1.4293,0 4.2299,-4.09615 3.3561,-4.90867 -0.5095,-0.47377 -4.155,-2.51368 -8.1011,-4.53312 -9.4553,-4.83885 -10.0638,-5.63444 -7.4805,-9.779971 3.4233,-5.49346 13.2561,-14.29897 20.8297,-18.65332 3.9459,-2.26871 7.7934,-4.12492 8.55,-4.12492 0.7565,0 1.803,-0.39049 2.3255,-0.86776 1.9622,-1.7924 7.3289,-2.11042 8.9113,-0.52807 1.9174,1.91738 1.9389,1.46391 -0.4949,10.41593 -2.7664,10.17503 -4.5247,14.46278 -8.7137,21.249511 -4.0245,6.52016 -4.0339,6.49463 3.9973,10.77324 l 3.75,1.9978 0,-2.04529 c 0,-1.12491 1.5326,-5.08863 3.4058,-8.80827 1.8731,-3.71964 4.8269,-10.570901 6.5639,-15.225031 1.737,-4.65413 3.5992,-9.53912 4.1382,-10.85554 1.4967,-3.65552 3.6594,-14.77526 4.4454,-22.85652 l 0.7051,-7.25 -2.7289,0 c -6.6282,0 -22.231,5.22007 -32.0295,10.71584 -13.8613,7.77445 -27.4558,18.89609 -34.5372,28.25477 -3.1139,4.11533 -5.0169,3.8444 -13.6934,-1.94951 -5.4536,-3.64181 -6.2877,-3.91068 -9.0955,-2.93187 -3.9952,1.39274 -15.0968,-0.25641 -22.9599,-3.41073 -4.4352,-1.7792 -5.7911,-2.82646 -6.0589,-4.67935 -0.383,-2.65014 9.377,-22.60565 11.4442,-23.39887 2.8035,-1.07583 8.9578,1.81337 13.9799,6.56309 5.3596,5.06884 9.024,11.2968 9.6904,16.46961 0.2746,2.13122 1.6347,3.707 5.2999,6.14 l 4.9305,3.27298 1.8263,-2.27298 c 3.2435,-4.03679 14.0599,-14.93757 18.1737,-18.31543 5.8483,-4.8021 23.4381,-13.95285 32.3075,-16.80733 4.8063,-1.54681 11.289,-2.69927 17.278,-3.07158 9.5567,-0.59409 9.5891,-0.58818 10.75,1.95978 1.5484,3.3982 1.4235,14.76123 -0.2908,26.46158 -1.0029,6.84499 -3.0828,13.90031 -7.4419,25.24489 -7.4022,19.263887 -8.5047,21.122037 -12.0105,20.242137 -3.0495,-0.76538 -2.817,-0.46802 2.4058,3.07628 3.6103,2.44997 4.2369,2.57267 7.3641,1.44188 4.7144,-1.70477 11.9918,-1.54656 17.814,0.38728 4.9878,1.65667 12.3238,6.90201 12.3238,8.81166 0,0.58219 -2.2838,5.04943 -5.0752,9.9272 -5.5521,9.70224 -6.5954,10.28663 -13.3359,7.47025 -3.9374,-1.64513 -12.9067,-12.02646 -14.5005,-16.78318 -0.8205,-2.44886 -2.4546,-4.05883 -6.2362,-6.14405 -4.0747,-2.24688 -4.9897,-2.47509 -4.4675,-1.11414 1.073,2.79625 -14.1563,16.93829 -28.2365,26.2207 -14.3386,9.45269 -27.3906,16.17272 -38.9848,20.07195 -8.083,2.71841 -8.2655,2.84848 -6,4.27732 1.2851,0.81051 4.3616,2.068 6.8366,2.79443 2.475,0.72643 6.525,1.92063 9,2.65378 8.2856,2.45438 19.4861,2.93045 32.0262,1.36125 z m -31.0262,-21.66247 c 15.0667,-7.26795 34.3289,-20.45603 43.7239,-29.93609 6.0927,-6.1478 8.6842,-8.13615 10,-7.67253 4.1123,1.44898 -0.5996,-1.58674 -6.5268,-4.20497 l -6.3029,-2.784186 -4.7315,4.660306 c -5.3294,5.24925 -7.1904,5.61994 -12.0823,2.40656 -10.0869,-6.625936 -28.7967,-17.746256 -29.8579,-17.746256 -0.5441,0 -1.2296,0.7875 -1.5233,1.75 -0.2938,0.9625 -1.7424,4.9 -3.2193,8.75 -5.042,13.144136 -6.4445,20.218856 -6.4628,32.600776 -0.01,6.38042 0.4761,13.01565 1.0789,14.74494 1.3823,3.9651 2.8514,3.72783 15.904,-2.56855 z m -10.3333,-4.94384 c -0.3667,-0.36666 -0.6667,-2.19517 -0.6667,-4.06336 0,-3.20689 0.1752,-3.37918 3.1365,-3.08333 1.8433,0.18416 3.7172,1.19315 4.5448,2.44713 1.2286,1.86154 1.2021,2.33997 -0.2079,3.75 -1.631,1.63096 -5.5751,2.18118 -6.8067,0.94956 z m 98.7591,-13.00055 c 0.3519,-0.91697 0.2875,-2.00651 -0.143,-2.4212 -1.1728,-1.12964 -14.6388,-7.88888 -14.999,-7.52871 -0.662,0.66193 4.2172,5.96749 8.0235,8.72477 4.5662,3.30774 6.2107,3.59078 7.1185,1.22514 z m 4.9913,-7.9774 c 0.9502,-2.47619 -1.8843,-4.91402 -7.9217,-6.81299 -8.4163,-2.64726 -10.0267,-1.52952 -3.3267,2.30904 3.1178,1.78624 6.2104,3.90041 6.8724,4.69814 1.5994,1.92713 3.596,1.83852 4.376,-0.19419 z m -51.6354,-36.605377 c 4.8869,-8.56115 8.7496,-17.55202 7.9041,-18.39753 -0.9894,-0.98935 -7.3947,1.99634 -12.9628,6.0423 -4.7637,3.46139 -12.5452,12.17776 -11.6115,13.00636 1.5309,1.358451 10.5984,6.564591 11.4601,6.579871 0.5895,0.0104 2.934,-3.2435 5.2101,-7.231001 z m -63.7817,-21.18759 c 0,-0.24067 -2.25,-1.66219 -5,-3.15893 -3.7443,-2.03792 -5,-3.29444 -5,-5.00339 0,-3.8819 1.7274,-3.67335 9.1051,1.09927 3.917,2.53389 7.3289,4.39995 7.5821,4.14679 0.7053,-0.70538 -2.1873,-5.82451 -5.0083,-8.86329 -2.7942,-3.00977 -8.5362,-6.77332 -10.3428,-6.77912 -1.3354,-0.004 -8.3361,12.04682 -8.3361,14.34973 0,0.84067 0.4726,1.82059 1.0503,2.1776 2.0996,1.29762 15.9497,3.06156 15.9497,2.03134 z"
         id="path3370"
         inkscape:connector-curvature="0"
         sodipodi:nodetypes="sssscsssscsssssssssssscsscssscssssscscsssscscssscssssssscscscsssscssssssscssscsssssssssscsssccccscsssccccsscssscsscsccssssscccscs" />
    </g>
  </g>
</svg>
