<?xml version="1.0" encoding="UTF-8" standalone="no"?>
<!-- Created with Inkscape (http://www.inkscape.org/) -->

<svg
   xmlns:dc="http://purl.org/dc/elements/1.1/"
   xmlns:cc="http://creativecommons.org/ns#"
   xmlns:rdf="http://www.w3.org/1999/02/22-rdf-syntax-ns#"
   xmlns:svg="http://www.w3.org/2000/svg"
   xmlns="http://www.w3.org/2000/svg"
   xmlns:sodipodi="http://sodipodi.sourceforge.net/DTD/sodipodi-0.dtd"
   xmlns:inkscape="http://www.inkscape.org/namespaces/inkscape"
   width="50.52718mm"
   height="49.350498mm"
   viewBox="0 0 179.03331 174.86397"
   id="svg2"
   version="1.1"
   inkscape:version="0.91 r13725"
   sodipodi:docname="mountains.svg">
  <defs
     id="defs4" />
  <sodipodi:namedview
     id="base"
     pagecolor="#ffffff"
     bordercolor="#666666"
     borderopacity="1.0"
     inkscape:pageopacity="0.0"
     inkscape:pageshadow="2"
     inkscape:zoom="0.7"
     inkscape:cx="43.462514"
     inkscape:cy="-121.12745"
     inkscape:document-units="px"
     inkscape:current-layer="layer1"
     showgrid="false"
     inkscape:window-width="1680"
     inkscape:window-height="997"
     inkscape:window-x="-8"
     inkscape:window-y="-8"
     inkscape:window-maximized="1"
     fit-margin-top="0"
     fit-margin-left="0"
     fit-margin-right="0"
     fit-margin-bottom="0" />
  <metadata
     id="metadata7">
    <rdf:RDF>
      <cc:Work
         rdf:about="">
        <dc:format>image/svg+xml</dc:format>
        <dc:type
           rdf:resource="http://purl.org/dc/dcmitype/StillImage" />
        <dc:title></dc:title>
      </cc:Work>
    </rdf:RDF>
  </metadata>
  <g
     inkscape:label="Layer 1"
     inkscape:groupmode="layer"
     id="layer1"
     transform="translate(-262.51571,-348.57143)">
    <g
       id="g4435"
       transform="translate(-721.42858,348.57143)">
      <g
         style="fill:#b38470;fill-opacity:1"
         id="g3450">
        <g
           id="g3445"
           style="fill:#b38470;fill-opacity:1">
          <path
             inkscape:connector-curvature="0"
             id="path3437"
             d="m 1072.2029,3.9646744 c -8.7458,0.3506257 -17.6606,1.2276919 -25.9759,4.0751369 -11.8336,5.0175177 -23.0427,11.7785787 -32.7625,20.2020927 -13.316,13.020899 -24.27903,30.092023 -25.21079,49.163032 -0.26538,5.873673 -1.07398,11.815401 -0.45673,17.675694 1.34783,2.969394 4.70578,0.622648 5.70556,-1.360013 8.02516,-11.132169 14.52526,-23.28431 22.92296,-34.131459 3.0309,-1.637437 6.2261,1.042579 7.9639,3.412225 2.4548,2.50335 3.1337,7.458673 7.5844,6.787992 3.1658,0.41485 6.6976,0.05469 8.5961,3.151318 3.6022,4.260904 8.65,6.632879 13.7936,8.463422 2.9508,0.924097 4.9852,3.552191 7.8602,4.451969 3.7855,-2.394935 6.2008,-6.61017 9.3829,-9.786029 11.4387,-12.684774 20.4874,-27.210127 29.3116,-41.761809 2.8552,-3.856759 4.8308,-8.788712 8.8882,-11.540332 5.0164,-1.687258 8.6495,3.474225 11.9887,6.291751 5.0642,4.733646 9.5316,10.140357 14.3783,15.016166 2.6815,0.67305 6.0277,0.828747 8.7161,-0.218023 2.9455,-2.408657 -0.9034,-5.43456 -2.4183,-7.403732 -8.219,-9.06976 -16.929,-18.539632 -28.7327,-22.821926 -13.1435,-5.4869873 -27.169,-9.7576093 -41.5356,-9.6674756 z m -27.2623,23.5846946 c 3.6598,-0.403423 7.0873,1.372347 8.8754,4.57824 2.3404,3.305549 4.8158,7.708932 2.0222,11.549674 -2.5519,5.260038 -7.9951,10.106316 -14.2368,8.354474 -8.7432,-1.952918 -13.7833,-14.408776 -7.1431,-21.131326 2.7046,-2.747527 6.8099,-3.265247 10.4823,-3.351062 z"
             style="fill:#b38470;fill-opacity:1;stroke:#0f0f0f;stroke-width:0;stroke-linecap:round;stroke-linejoin:round;stroke-miterlimit:4;stroke-dasharray:none;stroke-opacity:1" />
          <path
             inkscape:connector-curvature="0"
             id="path3439"
             d="m 1138.9519,48.267361 c -3.1213,0.01772 -6.8851,0.514194 -8.103,3.911185 -1.1136,2.142712 -4.3226,0.994113 -6.2364,1.414019 -5.5937,0.238283 -10.9474,-1.517165 -16.3884,-2.353935 -4.568,0.02599 -5.8207,5.83353 -8.9422,7.75487 -3.4941,0.497814 -7.4914,-0.629456 -10.6364,1.055357 -6.1677,8.517604 -13.2878,16.432148 -18.6335,25.502405 -1.4572,3.147906 2.5037,4.671549 4.9698,4.734104 4.1723,0.521829 5.3982,5.417941 8.026,8.026964 3.1731,4.53556 7.6054,8.2552 12.3971,10.73583 7.7943,4.78289 9.8114,14.22441 13.4654,21.93531 2.4717,5.81546 5.7555,11.91845 8.2657,17.3028 -5.2476,-5.1697 -8.8863,-11.87036 -13.1083,-18.01998 -4.5855,-7.42057 -8.4681,-16.02872 -16.6064,-20.26914 -6.4474,-3.35327 -8.3186,-11.075392 -13.5019,-15.63566 -2.461,-0.991343 -5.5091,-0.437199 -7.2546,-2.745366 -2.9658,-2.121358 -6.8103,-2.269765 -10.1528,-2.728596 -3.2665,-2.464274 -6.0453,-6.611989 -10.6747,-6.050064 -4.5395,-2.993838 -7.0878,-9.579729 -13.2079,-9.960459 -5.1574,0.422018 -7.9291,-4.996471 -11.4445,-7.777658 -2.4095,-3.274758 -5.0395,0.516886 -6.1649,2.827407 -8.3693,12.644262 -16.95341,25.250557 -25.31292,37.839946 -0.0309,3.4695 1.6758,7.01448 2.93448,10.30912 1.47326,2.49017 4.27609,0.24169 5.05471,-1.63656 3.72273,-4.93252 6.58983,-10.62382 11.17773,-14.839577 -3.9019,7.414597 -9.45331,13.876477 -13.27794,21.306917 0.51602,4.52041 3.75845,8.28984 5.80214,12.25902 6.2312,10.57537 15.7979,18.73814 25.5926,25.91046 5.2293,3.97457 11.6472,5.61676 17.5158,8.35081 12.6344,4.49179 26.3206,6.61596 39.6337,4.24875 14.473,-2.21658 28.3909,-8.02161 40.4171,-16.31871 10.9255,-8.84508 20.583,-19.5251 27.6103,-31.73456 7.5192,-14.43778 6.6857,-31.27196 6.3261,-47.055058 -0.3921,-7.08443 -1.0396,-15.033854 -6.6902,-20.096379 -3.1945,-2.948307 -6.018,-7.260382 -10.5335,-8.137478 -0.7699,-0.07857 -1.5452,-0.088 -2.3182,-0.06609 z m -47.4387,76.050479 c 2.632,2.01404 2.8699,5.99137 4.6395,8.71345 2.3559,5.66856 8.4369,9.43978 9.4227,15.67128 -0.7454,0.30953 -2.171,-1.59606 -3.0383,-2.28074 -5.4021,-5.74145 -10.1481,-12.53127 -11.5221,-20.4181 0.09,-0.38581 -0.2709,-1.78922 0.4982,-1.68589 z"
             style="fill:#b38470;fill-opacity:1;stroke:#0f0f0f;stroke-width:0;stroke-linecap:round;stroke-linejoin:round;stroke-miterlimit:4;stroke-dasharray:none;stroke-opacity:1" />
          <path
             inkscape:connector-curvature="0"
             id="path3443"
             d="m 1043.3909,29.690024 c -5.3824,0.267309 -11.6728,5.295608 -10.1509,11.128448 1.8031,5.085045 7.1052,10.649509 12.9525,8.72835 5.4559,-1.912119 9.4846,-9.370383 6.1576,-14.595916 -2.1088,-2.847679 -5.194,-5.470998 -8.9592,-5.260882 z"
             style="fill:#b38470;fill-opacity:1;stroke:#0f0f0f;stroke-width:0;stroke-linecap:round;stroke-linejoin:round;stroke-miterlimit:4;stroke-dasharray:none;stroke-opacity:1" />
        </g>
        <path
           style="fill:#b38470;fill-opacity:1;stroke:#0f0f0f;stroke-width:0;stroke-linecap:round;stroke-linejoin:round;stroke-miterlimit:4;stroke-dasharray:none;stroke-opacity:1"
           d="m 1111.8366,27.234683 c -3.4011,0.710353 -4.2549,4.969632 -6.2503,7.367997 -4.0176,7.051563 -9.0292,13.562849 -12.7749,20.737721 -0.6214,3.133696 3.7178,3.559318 5.1149,1.348515 2.6346,-2.069174 4.1107,-5.686814 7.1786,-7.081919 6.1847,-0.367857 11.918,3.56327 18.1896,2.282708 3.558,-0.340065 8.5461,-2.66936 7.9195,-6.807679 -3.809,-6.017046 -9.6346,-10.440813 -14.7528,-15.296314 -1.3657,-1.061682 -2.7659,-2.555224 -4.6246,-2.551029 z"
           id="path3441"
           inkscape:connector-curvature="0" />
      </g>
      <path
         sodipodi:nodetypes="sssssssssssssssssssssssssssssscssssscsssssssssccsssssssssscsscscsscsssssssssssssssscsscssssssssssssssssssssssssssssssssssssss"
         inkscape:connector-curvature="0"
         id="path3353"
         d="m 1055.4583,174.27352 c -3.3985,-0.47586 -9.0235,-2.06435 -12.5,-3.52998 -3.4765,-1.46563 -7.6954,-3.18564 -9.3754,-3.82224 -16.7385,-6.34276 -34.02663,-24.79562 -42.28384,-45.13248 -5.7237,-14.097 -7.49597,-23.102504 -7.34612,-37.328073 0.0771,-7.32097 0.62358,-15.19597 1.21437,-17.5 3.53038,-13.76817 12.37285,-28.69786 23.98379,-40.4945 9.7891,-9.94554 30.792,-22.3368102 41.6861,-24.5937902 9.5252,-1.97339 24.508,-2.46961 32.9598,-1.09161 34.9934,5.70532 55.2836,19.4247602 70.6633,47.7797302 6.4214,11.83896 7.8744,17.58233 8.402,33.21102 0.8169,24.197023 -2.5876,37.616943 -14.0305,55.305723 -6.7574,10.44593 -23.3793,24.0693 -36.3842,29.82069 -11.7316,5.1883 -22.8343,7.53992 -37.3101,7.90254 -7.425,0.18599 -16.2806,-0.0512 -19.6792,-0.52703 z m 37.1453,-6.00565 c 10.2389,-2.57144 22.4552,-8.14787 30.6625,-13.9966 8.2312,-5.86577 21.6908,-21.02105 26.539,-29.88237 2.9198,-5.33674 4.6527,-10.16214 5.788,-16.1173 1.9185,-10.062944 2.1244,-29.511383 0.4182,-39.500003 -1.1364,-6.6526 -1.4979,-7.30009 -7.2848,-13.04658 -5.9714,-5.9298 -6.1808,-6.03889 -10.8453,-5.6488 -3.9556,0.33081 -4.853,0.78289 -5.3305,2.68521 -0.5103,2.03327 -1.3151,2.33882 -7.2436,2.75001 -3.6683,0.25442 -7.1196,0.13608 -7.6696,-0.26299 -0.55,-0.39907 -2.35,-0.96505 -4,-1.25773 -1.65,-0.29268 -3.9,-0.81541 -5,-1.16162 -1.5858,-0.49914 -2.6211,0.31712 -5,3.94221 -2.9783,4.53869 -3.037,4.56963 -8.1283,4.28599 l -5.1284,-0.2857 -9.6216,12.44785 c -5.2919,6.84631 -9.6217,13.006649 -9.6217,13.689629 0,0.71073 1.59,1.37452 3.7179,1.55215 2.9968,0.25018 4.1481,0.98917 5.9366,3.81037 1.2204,1.925 3.4145,4.89155 4.8757,6.59232 1.4613,1.700784 2.9523,3.554274 3.3134,4.118864 0.361,0.56459 2.9064,2.16472 5.6564,3.55585 6.6684,3.37328 9.3538,7.27975 14.9399,21.73297 2.0755,5.37011 6.9625,15.43614 9.3182,19.1933 0.9288,1.48132 1.3971,2.9849 1.0407,3.34131 -1.6353,1.63531 -5.1089,-1.23326 -9.4925,-7.83913 -2.6262,-3.95751 -5.4569,-7.99306 -6.2906,-8.96788 -0.8336,-0.97482 -3.3157,-5.21299 -5.5157,-9.41815 -3.8552,-7.36897 -6.8465,-10.32983 -15.0489,-14.89541 -1.0731,-0.59728 -3.7511,-4.06994 -5.9511,-7.71702 -3.601,-5.969674 -4.3241,-6.634344 -7.25,-6.664044 -1.7875,-0.0181 -3.2528,-0.37048 -3.2563,-0.78298 -0.013,-1.56072 -5.842,-4.00165 -8.3918,-3.51422 -2.0944,0.40036 -3.3571,-0.25683 -6.1177,-3.18391 -2.5308,-2.68341 -4.0104,-3.519629 -5.4303,-3.068979 -2.0828,0.661049 -3.6566,-0.56923 -8.2262,-6.4306 -2.233,-2.86422 -3.3838,-3.46325 -7,-3.64385 -3.7996,-0.18976 -4.8526,-0.80755 -8.6284,-5.06229 -3.451,-3.88869 -4.4741,-4.54979 -5.1784,-3.34615 -1.0281,1.75713 -11.2265,17.21508 -18.84678,28.566449 -2.92922,4.36345 -6.0119,8.693914 -6.8504,9.623234 -1.36796,1.51612 -1.34912,2.21786 0.18333,6.83164 l 1.70788,5.14196 6.40747,-9.58164 c 4.3965,-6.5746 7.0118,-9.581644 8.3335,-9.581644 1.0593,0 2.1571,0.37382 2.4394,0.83071 0.2824,0.45689 -2.8873,5.855684 -7.0437,11.997304 l -7.55713,11.16659 3.21883,6.2527 c 4.0147,7.79894 6.4352,11.04039 14.2705,19.11045 6.4938,6.68836 19.2522,15.61935 22.3913,15.67405 1.0037,0.0175 2.7135,0.70356 3.7997,1.52459 2.7291,2.06307 14.5972,5.48045 22.4756,6.47182 9.5383,1.20023 19.3302,0.52614 29.5157,-2.03194 z m 6.0422,-23.52968 c -6.8591,-7.81261 -11.4252,-18.82096 -8.8971,-21.44964 2.1928,-2.27998 4.4654,-0.20124 6.5795,6.01831 1.0116,2.97608 3.3579,6.99813 5.2141,8.93789 4.1508,4.33772 6.7811,9.37895 5.9812,11.4635 -1.069,2.78567 -3.0348,1.68514 -8.8777,-4.97006 z M 999.10782,82.271597 c 17.29268,-27.05074 15.69728,-25 19.44868,-25 3.5158,0 7.4921,3.51618 9.8645,8.7229 0.8642,1.89684 1.8183,2.2771 5.7129,2.2771 4.2361,0 5.0337,0.39943 8.4867,4.25 2.7657,3.0842 5.3357,4.735 9.3688,6.01809 3.0568,0.97246 6.5356,2.68681 7.7309,3.80969 l 2.1732,2.04159 7.0345,-7.80969 c 9.221,-10.23724 19.8973,-24.91981 24.2207,-33.30968 0.7085,-1.375 1.5821,-2.725 1.9413,-3 0.3592,-0.275 1.7112,-2.3 3.0045,-4.5 6.5279,-11.10515 9.1062,-14.35496 11.8702,-14.96203 3.9683,-0.87158 7.0229,0.57338 11.8519,5.60641 2.2984,2.39559 4.9984,5.07882 6,5.96273 1.0015,0.88392 3.3959,3.64128 5.3209,6.12748 3.2032,4.13697 3.8519,4.50955 7.6483,4.39288 3.8109,-0.1171 4.0642,-0.2901 3.1146,-2.12747 -0.5685,-1.1 -5.2175,-6.1601 -10.3311,-11.24467 -7.6049,-7.56167 -10.695,-9.88151 -16.9737,-12.74278 -12.2109,-5.56472 -20.1875,-8.0869102 -31.7084,-10.0262402 -9.5813,-1.61282 -11.8556,-1.66878 -20.9126,-0.51456 -5.5893,0.71229 -12.3466,1.87126 -15.0162,2.57549 -7.8186,2.0625302 -26.3788,13.2391002 -34.6602,20.8717902 -8.5243,7.85647 -17.30926,20.93605 -20.87581,31.08097 -2.88461,8.20518 -3.20673,10.2278 -3.82221,24 -0.6283,14.059309 -1.1691,14.201509 9.50764,-2.5 z m 37.94278,-30.27957 c -10.1156,-6.81691 -10.0674,-20.70114 0.087,-24.98809 1.375,-0.5805 4.7514,-1.1676 7.5031,-1.30466 5.7994,-0.28886 9.0309,1.84431 12.4456,8.21542 2.6537,4.95122 2.5861,6.61346 -0.497,12.22157 -4.3021,7.82542 -12.8253,10.37984 -19.5386,5.85576 z m 11.8972,-6.0185 c 1.1874,-1.26395 2.4519,-3.76307 2.81,-5.55362 0.541,-2.70465 0.1735,-3.75412 -2.1717,-6.20193 -3.1621,-3.30058 -6.1074,-3.69132 -10.5413,-1.39848 -4.0409,2.08965 -5.3454,5.70423 -3.4097,9.4476 3.1326,6.05772 9.4511,7.81688 13.3127,3.70643 z m 50.7873,6.32998 c 1.4443,-2.18244 3.5228,-4.25273 4.619,-4.60063 1.9083,-0.60568 10.4918,1.1776 12.0131,2.49582 0.4013,0.34774 3.0491,0.3939 5.8839,0.10258 3.8631,-0.39699 5.5242,-1.08899 6.6308,-2.76232 1.4166,-2.14198 1.1189,-2.57922 -7.3315,-10.76746 -4.8445,-4.69415 -9.2233,-8.39642 -9.7308,-8.22727 -0.5074,0.16915 -2.0473,2.31451 -3.4219,4.76746 -2.1225,3.78755 -6.6476,10.98734 -13.0163,20.70991 -1.3167,2.01011 -1.3032,2.25 0.1269,2.25 0.8805,0 2.7825,-1.78564 4.2268,-3.96809 z"
         style="fill:#000000" />
    </g>
    <path
       style="fill:#64a5ff;fill-opacity:1;stroke:#0f0f0f;stroke-width:0;stroke-linecap:round;stroke-linejoin:round;stroke-miterlimit:4;stroke-dasharray:none;stroke-opacity:1"
       d=""
       id="path3349"
       inkscape:connector-curvature="0" />
  </g>
</svg>
