<?xml version="1.0" encoding="UTF-8" standalone="no"?>
<!-- Created with Inkscape (http://www.inkscape.org/) -->

<svg
   xmlns:dc="http://purl.org/dc/elements/1.1/"
   xmlns:cc="http://creativecommons.org/ns#"
   xmlns:rdf="http://www.w3.org/1999/02/22-rdf-syntax-ns#"
   xmlns:svg="http://www.w3.org/2000/svg"
   xmlns="http://www.w3.org/2000/svg"
   xmlns:sodipodi="http://sodipodi.sourceforge.net/DTD/sodipodi-0.dtd"
   xmlns:inkscape="http://www.inkscape.org/namespaces/inkscape"
   width="48.775608mm"
   height="51.479431mm"
   viewBox="0 0 172.82696 182.40743"
   id="svg2"
   version="1.1"
   inkscape:version="0.91 r13725"
   sodipodi:docname="paint.svg">
  <defs
     id="defs4" />
  <sodipodi:namedview
     id="base"
     pagecolor="#ffffff"
     bordercolor="#666666"
     borderopacity="1.0"
     inkscape:pageopacity="0.0"
     inkscape:pageshadow="2"
     inkscape:zoom="0.7"
     inkscape:cx="269.48322"
     inkscape:cy="343.98893"
     inkscape:document-units="px"
     inkscape:current-layer="layer1"
     showgrid="false"
     inkscape:window-width="1680"
     inkscape:window-height="997"
     inkscape:window-x="-8"
     inkscape:window-y="-8"
     inkscape:window-maximized="1"
     fit-margin-top="0"
     fit-margin-left="0"
     fit-margin-right="0"
     fit-margin-bottom="0" />
  <metadata
     id="metadata7">
    <rdf:RDF>
      <cc:Work
         rdf:about="">
        <dc:format>image/svg+xml</dc:format>
        <dc:type
           rdf:resource="http://purl.org/dc/dcmitype/StillImage" />
        <dc:title></dc:title>
      </cc:Work>
    </rdf:RDF>
  </metadata>
  <g
     inkscape:label="Layer 1"
     inkscape:groupmode="layer"
     id="layer1"
     transform="translate(-36.495004,-806.14434)">
    <path
       style="fill:#64a5ff;fill-opacity:1;stroke:#0f0f0f;stroke-width:0;stroke-linecap:round;stroke-linejoin:round;stroke-miterlimit:4;stroke-dasharray:none;stroke-opacity:1"
       d=""
       id="path3349"
       inkscape:connector-curvature="0" />
    <g
       id="g4501"
       transform="translate(-721.42858,348.57143)">
      <g
         style="fill:#d3d3d3;fill-opacity:1"
         id="g4392">
        <path
           style="fill:#d3d3d3;fill-opacity:1;stroke:#0f0f0f;stroke-width:0;stroke-linecap:round;stroke-linejoin:round;stroke-miterlimit:4;stroke-dasharray:none;stroke-opacity:1"
           d="m 833.74387,461.80749 c -15.12284,0.21827 -28.56793,8.68234 -39.29632,18.69177 -11.91123,11.12443 -23.28442,23.79893 -28.5299,39.538 -3.60498,9.53611 -5.97402,19.72003 -4.80908,29.96622 1.71538,18.17837 7.21118,36.30928 17.33918,51.60425 5.93067,7.37894 12.69754,14.25298 20.40738,19.78315 11.52933,7.49195 24.59631,13.12443 38.29406,14.90567 8.86582,-0.0364 17.93321,0.28484 26.61174,-1.7762 11.86517,-3.5888 23.88409,-8.24659 33.06041,-16.86857 4.21798,-3.94222 9.10398,-7.46178 12.31108,-12.31483 0.99773,-2.67772 -2.54974,-3.68682 -4.30105,-2.20579 -5.91395,2.43728 -11.5237,5.9553 -17.8937,6.99514 -2.25294,1.88998 -4.65642,3.76161 -7.66197,4.41941 -2.31574,0.25308 -5.6877,0.25873 -5.85967,3.39447 -2.2213,2.64329 -6.20923,-0.055 -8.84475,2.04398 -2.08221,0.75236 -4.23762,3.3853 -6.48905,1.46788 -7.18625,-4.3414 -10.79172,-12.44913 -14.71702,-19.52702 -1.5261,-2.00165 -2.25153,-7.33542 -5.58134,-5.76526 -2.61052,3.25022 -0.73254,9.63878 -5.09652,11.85547 -6.0481,1.84577 -12.42675,2.35422 -18.72728,2.01143 -6.9783,-0.91316 -13.81742,-3.01855 -20.05212,-6.29471 -3.98396,-14.56759 -6.37196,-29.52481 -9.39872,-44.2856 -2.65787,-13.75128 -5.17439,-27.85396 -3.04174,-41.89501 2.70635,-13.28479 14.59034,-24.83901 28.22607,-25.67701 7.27876,0.0438 14.98945,-1.01678 21.6433,2.4652 8.18566,3.15373 14.10439,10.77293 15.54589,19.3823 1.25369,5.724 1.53184,11.95891 5.24017,16.88455 6.01391,10.00104 10.3205,20.99835 16.85692,30.67253 1.48983,2.4335 4.20789,2.47334 6.40684,1.06011 4.41509,-1.34426 9.26054,-4.63484 13.93432,-2.64143 5.19841,6.12414 7.86121,13.9697 11.58736,21.01013 3.18959,6.29293 6.53681,12.8521 11.71816,17.71402 3.5525,0.73437 4.11489,-4.00321 5.41477,-6.27892 3.80251,-10.02541 7.92422,-20.31457 7.65955,-31.23031 0.12803,-12.09827 1.07374,-24.75234 -3.83071,-36.15138 -3.92984,-9.37338 -7.90983,-18.91568 -13.81396,-27.24613 -11.34978,-13.38556 -25.04676,-25.9981 -42.31986,-30.90435 -10.36919,-2.91377 -21.19722,-4.85431 -31.99244,-4.80316 z"
           id="path4376"
           inkscape:connector-curvature="0" />
        <path
           style="fill:#d3d3d3;fill-opacity:1;stroke:#0f0f0f;stroke-width:0;stroke-linecap:round;stroke-linejoin:round;stroke-miterlimit:4;stroke-dasharray:none;stroke-opacity:1"
           d="m 812.31956,496.14577 c -8.10242,-0.46712 -16.3694,3.0902 -20.94587,9.921 -3.34386,5.10619 -6.33186,10.82164 -7.16972,16.91907 0.0606,3.03354 3.64341,2.53419 5.46925,1.42076 13.74834,-5.64377 29.32119,-5.65709 43.52217,-2.08466 3.24178,0.64705 5.88394,3.44938 9.22158,3.36586 2.52257,-1.99917 0.81965,-5.7593 1.09074,-8.5225 -0.0593,-8.33295 -7.12899,-14.3138 -13.79952,-18.07983 -5.29524,-2.92733 -11.51028,-2.91197 -17.38863,-2.9397 z"
           id="path4378"
           inkscape:connector-curvature="0" />
        <path
           style="fill:#d3d3d3;fill-opacity:1;stroke:#0f0f0f;stroke-width:0;stroke-linecap:round;stroke-linejoin:round;stroke-miterlimit:4;stroke-dasharray:none;stroke-opacity:1"
           d="m 811.70991,522.5439 c -8.85702,0.58987 -18.05617,2.19863 -25.7579,6.81162 -2.6924,1.78826 -0.54031,5.13772 1.91179,5.77385 12.24265,5.10745 25.83269,4.16082 38.80999,4.48157 3.7901,-0.25226 9.20332,0.74042 10.90155,-3.75355 1.53194,-2.7363 3.86314,-7.67675 -0.11838,-9.47116 -7.85324,-2.32168 -16.11369,-3.27221 -24.26632,-3.85594 -0.49366,-0.0143 -0.98716,0.008 -1.48073,0.0136 z"
           id="path4380"
           inkscape:connector-curvature="0" />
        <path
           style="fill:#d3d3d3;fill-opacity:1;stroke:#0f0f0f;stroke-width:0;stroke-linecap:round;stroke-linejoin:round;stroke-miterlimit:4;stroke-dasharray:none;stroke-opacity:1"
           d="m 845.40699,528.46671 c -3.79815,0.97291 -7.3564,5.53619 -5.18493,9.45439 5.25552,12.20293 11.32868,24.0403 16.80859,36.14452 -5.57059,3.43738 -12.19154,4.8786 -17.62934,8.48272 -1.84419,2.48966 1.06035,5.35564 1.76777,7.79317 0.9638,2.16802 2.73672,5.28252 5.59826,3.93012 15.62892,-5.00291 30.71646,-11.57132 45.72617,-18.1709 2.72892,-2.35207 -0.86557,-5.56319 -1.81158,-8.11014 -1.44622,-2.71152 -3.9113,-6.76805 -7.58659,-5.03368 -4.29021,1.2549 -8.24492,4.71958 -12.85873,4.29019 -3.0412,-2.7657 -4.34826,-7.10709 -6.56303,-10.54544 -4.93235,-8.8764 -8.96663,-18.36083 -15.01517,-26.55794 -0.82062,-0.93248 -1.93925,-1.77997 -3.25142,-1.67701 z m -0.0661,7.60574 c 1.40219,0.14087 2.20046,2.79405 0.0868,1.84964 -0.1877,-0.54281 -0.29978,-1.386 -0.0868,-1.84964 z m 10.44383,49.59316 c -0.80918,0.42498 -2.93542,1.28972 -3.26622,1.27157 0.8769,-0.40736 3.27203,-1.40214 3.26622,-1.27157 z"
           id="path4382"
           inkscape:connector-curvature="0" />
        <path
           style="fill:#d3d3d3;fill-opacity:1;stroke:#0f0f0f;stroke-width:0;stroke-linecap:round;stroke-linejoin:round;stroke-miterlimit:4;stroke-dasharray:none;stroke-opacity:1"
           d="m 891.60173,578.0944 c -12.92122,4.15499 -25.05411,10.34755 -38.02067,14.32602 -3.37064,1.44268 -7.59026,1.64821 -10.50611,3.99187 -0.89748,3.22699 2.38931,5.88309 3.63365,8.61336 3.87613,5.29677 6.98032,11.67311 12.61462,15.34126 2.8721,1.56349 5.00197,-1.77777 4.67689,-4.30597 2.59126,-0.67413 4.63735,3.78496 7.03456,1.17687 1.06833,-2.44406 -1.15511,-4.96195 -0.80989,-7.56431 0.0123,-2.07876 -0.3567,-4.7644 0.87204,-6.42986 2.93856,3.43624 3.68182,9.44517 8.50245,10.87789 3.26465,0.43169 4.05442,-3.4556 3.16758,-5.87349 0.0732,-1.09811 -0.79278,-3.44205 -0.0799,-3.9173 2.63121,1.67667 5.03498,4.62227 8.55473,3.73382 2.88106,0.16518 6.13545,-1.67265 5.99186,-4.8801 2.33455,2.88221 5.88207,0.4786 7.99319,-1.35079 3.72772,-1.98932 -0.0833,-5.20352 -1.99419,-6.94214 -4.41556,-3.9767 -7.62033,-9.09916 -8.9642,-14.9142 -0.30032,-1.24732 -1.37209,-2.08936 -2.6666,-1.88293 z"
           id="path4384"
           inkscape:connector-curvature="0" />
        <path
           style="fill:#d3d3d3;fill-opacity:1;stroke:#0f0f0f;stroke-width:0;stroke-linecap:round;stroke-linejoin:round;stroke-miterlimit:4;stroke-dasharray:none;stroke-opacity:1"
           d="m 785.16973,547.86183 c -2.34637,2.3114 -0.0342,5.96074 -0.01,8.8223 2.83706,14.16256 5.40517,28.42271 9.11647,42.38069 1.05315,3.59192 3.67431,6.65477 7.48366,7.35923 8.90677,2.35991 18.32539,1.92865 27.42307,1.14826 3.88975,-0.4516 3.26195,-5.38929 4.50549,-8.01036 1.22628,-4.85259 4.00307,-9.96008 1.71326,-14.95384 -0.77142,-2.45142 1.94075,-4.23055 2.24069,-6.60906 2.08875,-7.19297 3.99332,-14.5329 5.0484,-21.93959 -1.05515,-3.41723 -5.50603,-2.13989 -8.19467,-2.2541 -3.50518,-0.11256 -4.97228,3.38374 -5.98594,6.11912 -1.33002,3.22217 -4.58984,-1.54228 -6.72876,0.66981 -2.16918,2.62548 -0.93513,6.60499 -2.80456,9.48202 -0.69092,2.53353 -3.36075,5.33091 -6.04809,3.37277 -6.46395,-4.02625 -5.40169,-12.58389 -7.7833,-18.85257 -2.42497,-2.67394 -6.57345,-2.88238 -9.78425,-4.26922 -3.36028,-0.80311 -6.73522,-2.60323 -10.19192,-2.46546 z"
           id="path4386"
           inkscape:connector-curvature="0" />
        <path
           style="fill:#d3d3d3;fill-opacity:1;stroke:#0f0f0f;stroke-width:0;stroke-linecap:round;stroke-linejoin:round;stroke-miterlimit:4;stroke-dasharray:none;stroke-opacity:1"
           d="m 785.92143,539.34064 c -3.29606,0.25366 -2.51786,4.78689 0.0178,5.65449 5.68051,3.50238 12.72265,3.43781 18.55958,6.43578 4.77568,4.68805 4.35361,11.91031 6.27794,17.90752 -0.0721,2.57161 3.43108,5.01839 5.07049,2.23634 2.73071,-5.29755 1.14966,-11.73067 3.42899,-17.0917 2.17063,-1.58736 4.82605,0.48158 5.67605,2.53156 3.2411,2.20169 3.58367,-2.84715 4.96903,-4.68603 3.34149,-2.01232 8.73391,-0.46589 10.9203,-4.27638 1.27693,-2.38906 -0.79442,-5.41317 -3.51975,-4.85346 -16.94273,-0.81352 -34.13992,0.66334 -50.51848,-3.82063 -0.29197,-0.0391 -0.58765,-0.0548 -0.88191,-0.0375 z"
           id="path4388"
           inkscape:connector-curvature="0" />
        <path
           style="fill:#d3d3d3;fill-opacity:1;stroke:#0f0f0f;stroke-width:0;stroke-linecap:round;stroke-linejoin:round;stroke-miterlimit:4;stroke-dasharray:none;stroke-opacity:1"
           d="m 845.72858,560.26678 c -3.2404,1.45863 -2.45311,5.97441 -3.3708,8.85068 -0.0789,2.85982 -1.6756,6.08354 -0.25549,8.75893 2.77937,1.78213 6.00947,-1.05965 8.7461,-1.78257 3.21992,-1.10864 2.59706,-4.97638 1.12136,-7.25866 -1.72023,-2.81449 -2.06273,-7.36097 -5.52203,-8.60389 -0.23928,-0.0316 -0.47945,0.0261 -0.71914,0.0355 z"
           id="path4390"
           inkscape:connector-curvature="0" />
      </g>
      <path
         style="fill:#000000"
         d="m 830.15195,638.20133 c -14.50669,-3.0828 -29.68239,-10.4437 -40.71389,-19.7482 -10.8526,-9.1537 -23.0289,-30.0688 -27.828,-47.7999 -3.036,-11.2171 -4.5067,-27.8931 -3.2194,-36.50484 1.2811,-8.5705 5.4815,-20.6522 10.5922,-30.4661 5.1578,-9.9045 15.2736,-21.0558 25.5133,-28.1249 3.1142,-2.15 7.7983,-5.3789 10.409,-7.1755 9.9789,-6.8669 26.93139,-11.7785 36.74679,-10.6464 22.9375,2.6454 39.1514,9.266 54.1156,22.0968 18.18432,15.592 29.76852,36.2928 34.03262,60.8161 2.9948,17.22334 -1.2742,41.15994 -10.1887,57.12814 -4.0793,7.3072 -15.29682,19.5833 -23.81992,26.0678 -8.4119,6.4001 -23.4183,13.2481 -32.6396,14.8949 -10.2455,1.8297 -22.8237,1.6247 -33,-0.5379 z m 37.0805,-6.3978 c 9.0796,-2.9456 21.3057,-8.9584 24.3525,-11.9766 1.2096,-1.1982 4.418,-3.9785 7.1298,-6.1785 8.3943,-6.8101 12.3191,-12.1681 6.6872,-9.1293 -8.1576,4.4017 -15.5296,7.4592 -16.8048,6.9699 -0.7949,-0.3051 -1.4452,-0.1393 -1.4452,0.3682 0,1.6735 -7.902,5.457 -10.0039,4.7899 -1.5513,-0.4923 -1.9961,-0.1771 -1.9961,1.4148 0,2.2261 -3.7784,3.7692 -6.5886,2.6909 -0.8761,-0.3363 -2.8591,0.2902 -4.4066,1.3921 -3.4969,2.49 -4.473,2.4953 -8.4373,0.045 -3.9377,-2.4336 -8.7236,-9.0159 -13.3572,-18.3708 l -3.5518,-7.1709 -0.7461,4 c -1.5973,8.5646 -1.9633,8.9333 -10.3453,10.4226 -4.4284,0.7869 -10.28319,1.113 -13.90689,0.7746 -6.9629,-0.6502 -18.623,-4.5172 -21.1051,-6.9993 -0.9848,-0.9848 -2.5536,-6.7739 -4.0387,-14.9041 -1.3355,-7.3116 -3.5422,-18.4688 -4.9037,-24.7938 -5.1204,-23.78864 -6.2637,-40.02244 -3.5452,-50.34034 2.6057,-9.89 10.6491,-18.8125 20.5137,-22.7555 8.3899,-3.3537 21.45939,-3.3487 29.86819,0.011 11.9888,4.7905 17.4903,12.7125 19.1566,27.5843 0.4043,3.6089 1.3521,6.6554 2.3781,7.6446 0.9383,0.9045 5.4402,9.1269 10.0042,18.27194 9.1865,18.4071 8.0573,17.4882 16.5774,13.491 2.2362,-1.0491 5.702,-1.9075 7.702,-1.9075 3.1795,0 4.0217,0.5603 6.7055,4.4611 1.6882,2.4537 4.6619,8.182 6.6084,12.7297 3.9184,9.1546 6.3132,13.4183 10.7605,19.1578 l 2.98202,3.8485 1.3041,-2.3485 c 2.3598,-4.25 6.289,-15.2254 8.0008,-22.3486 2.1919,-9.1211 2.1856,-29.2101 -0.012,-39.50004 -1.0211,-4.7803 -3.966,-12.3062 -8.1212,-20.7542 -6.06532,-12.3314 -7.17392,-13.9046 -15.92212,-22.5961 -15.2017,-15.1032 -25.6861,-20.7904 -44.5734,-24.1786 -19.8313,-3.5575 -27.5134,-2.9569 -40.60659,3.1746 -14.5137,6.7968 -36.4295,29.6005 -43.5777,45.343 -1.6204,3.5688 -4.0658,10.7688 -5.4342,16 -2.1057,8.0503 -2.3903,10.8171 -1.8521,18.01134 1.16,15.5094 4.8349,29.279 11.2086,41.999 4.915,9.8085 6.9271,12.654 13.6877,19.3564 9.43,9.3489 15.2519,13.3655 26.3145,18.1549 14.00179,6.0619 21.10239,7.5191 34.25979,7.0309 8.6095,-0.3195 13.4053,-1.0449 19.0805,-2.886 z m -5.0805,-15.1551 c 0,-3.0492 3.2733,-3.4364 6.3408,-0.75 1.922,1.6831 1.966,1.6735 1.1514,-0.25 -1.4826,-3.501 -1.7686,-11.462 -0.4682,-13.0289 2.0624,-2.4851 3.6843,-1.6584 5.4513,2.7789 2.2551,5.6629 4.4406,8.0646 6.0917,6.6943 0.9105,-0.7556 1.0077,-1.9403 0.3482,-4.2398 -0.5034,-1.7553 -0.9152,-3.7568 -0.9152,-4.4479 0,-1.7716 3.4992,-1.5649 5.0453,0.298 2.4432,2.9439 4.941,3.6937 8.0351,2.4121 2.374,-0.9834 2.7906,-1.6323 2.3009,-3.5838 -0.6727,-2.6799 0.7338,-3.1541 2.6187,-0.8829 1.5641,1.8846 1.976,1.8588 4.7807,-0.2997 l 2.2806,-1.7552 -4.9709,-5.1573 c -3.1923,-3.3119 -5.4105,-6.7015 -6.1993,-9.4726 -0.6756,-2.3734 -1.5076,-4.6479 -1.849,-5.0546 -0.3415,-0.4066 -6.6781,1.8895 -14.0815,5.1025 -7.4033,3.213 -18.0603,7.2673 -23.6821,9.0096 l -10.2216,3.1678 2.0921,3.7247 c 5.5187,9.8257 12.2231,18.2348 14.5381,18.2348 0.7337,0 1.3129,-1.1028 1.3129,-2.5 z m -6.0385,-10.5755 c -2.7921,-5.4729 -2.27,-8.5708 0.7336,-4.3527 2.6201,3.6796 3.9913,8.4282 2.4336,8.4282 -0.5984,0 -2.0237,-1.834 -3.1672,-4.0755 z m 32.5952,-14.147 c -1.7144,-2.4476 -2.0456,-4.7775 -0.6792,-4.7775 1.2015,0 2.7388,2.0469 3.5675,4.75 0.8924,2.9109 -0.857,2.9275 -2.8883,0.028 z m -57.5411,9.902 c 0.5801,-2.2987 1.7269,-6.0286 2.5484,-8.2885 1.115,-3.0672 1.2328,-4.7951 0.4648,-6.8151 -1.3485,-3.5469 -1.3042,-4.1577 0.427,-5.8889 0.8008,-0.8007 2.4114,-5.8954 3.5792,-11.3215 1.1678,-5.426 2.3664,-10.8851 2.6637,-12.1312 0.5105,-2.1402 0.2742,-2.251 -4.2669,-2 -4.5178,0.2497 -4.8587,0.4642 -5.6604,3.5627 -0.9642,3.727 -3.1957,5.0436 -5.7961,3.4196 -2.1315,-1.3311 -2.9753,-0.642 -2.9753,2.4298 0,4.3282 -3.07599,10.3345 -5.61949,10.9729 -5.3017,1.3306 -10.4203,-4.8435 -11.4822,-13.85 -0.3876,-3.2866 -1.0923,-6.3633 -1.5661,-6.8371 -0.4738,-0.4739 -4.5674,-1.9349 -9.0969,-3.2468 l -8.2353,-2.3853 0,2.1705 c 0,1.1937 0.9218,6.4137 2.0484,11.5999 1.1266,5.1862 2.9296,14.1545 4.0067,19.9295 2.9547,15.8424 4.4281,19.6039 8.249,21.0595 4.8048,1.8303 11.1672,2.4758 20.89559,2.12 l 8.7611,-0.3205 z m 19.7966,-10.6841 c 6.052,-1.8971 32.8611,-12.7976 38.3059,-15.5749 l 2.6181,-1.3355 -2.4955,-5.0425 c -1.4744,-2.9793 -3.1594,-5.0374 -4.1181,-5.0299 -0.8924,0.01 -4.2302,1.3352 -7.4173,2.9515 -5.8971,2.9907 -8.0984,3.0113 -10.4847,0.098 -0.7036,-0.8591 -4.6781,-8.2678 -8.8322,-16.4637 -7.7639,-15.31804 -11.0317,-20.59824 -12.7477,-20.59824 -1.5479,0 -4.6407,3.1611 -4.6407,4.7432 0,1.5137 1.9755,5.9056 11.8838,26.41984 3.3639,6.9647 6.1162,12.9181 6.1162,13.2297 0,0.7997 -6.9023,4.2246 -13.4538,6.6759 -3.0504,1.1413 -5.5462,2.3309 -5.5462,2.6437 0,0.4812 4.2155,9.3123 4.4272,9.2748 0.04,-0.01 2.9133,-0.9034 6.385,-1.9917 z m -5.8122,-1.7736 c 0,-1.1424 12.3613,-6.9347 13.7859,-6.4599 2.6451,0.8817 0.9595,3.0772 -3.9193,5.1047 -5.1729,2.1498 -9.8666,2.7945 -9.8666,1.3552 z m -1.5135,-51.26424 c -0.9159,-2.886 0.9689,-4.7909 3.291,-3.3262 2.4714,1.5589 2.1948,4.8013 -0.4416,5.1769 -1.497,0.2132 -2.3754,-0.3573 -2.8494,-1.8507 z m 4.7781,37.08124 c 2.0705,-0.7982 3.6455,-1.7087 3.5,-2.0236 -0.1455,-0.3148 -1.3599,-3.147 -2.6986,-6.2938 -1.3387,-3.1468 -2.7353,-5.7214 -3.1035,-5.7214 -0.3682,0 -1.1854,3.1241 -1.816,6.9426 -1.3479,8.1623 -1.4004,9.3386 -0.3965,8.8857 0.4125,-0.1861 2.4441,-0.9913 4.5146,-1.7895 z m -32.26459,-13.2957 c 0,-3.231 0.4658,-6.745 1.0352,-7.8089 1.4926,-2.789 6.53939,-2.5925 8.10809,0.3158 1.199,2.2226 1.2238,2.2116 2.0413,-0.9132 0.7223,-2.761 1.367,-3.247 5.0715,-3.823 6.8911,-1.0716 7.5824,-1.4154 7.0371,-3.5005 -0.4636,-1.7727 -1.2273,-1.8749 -10.1472,-1.358 -11.52999,0.6683 -34.36149,-1.0504 -40.06679,-3.01604 -3.2245,-1.1109 -4.0792,-1.1395 -4.0792,-0.1363 0,1.69974 5.4974,4.21334 12.1102,5.53704 2.9644,0.5934 6.3819,1.5673 7.5945,2.1642 2.901,1.428 5.1848,6.4194 6.4056,14.0003 0.5447,3.3821 1.2614,6.5879 1.5927,7.1239 1.3253,2.1445 3.297,-2.9896 3.297,-8.5853 z m 17.61619,-24.33844 c 1.7644,-0.4736 4.3838,-5.6679 4.3838,-8.6932 0,-1.0264 -6.4213,-2.5292 -16.2544,-3.8041 -7.53559,-0.977 -11.43099,-1.004 -17.12509,-0.1188 -8.9717,1.3948 -18.6205,4.8681 -18.6205,6.7028 0,1.7701 8.305,4.476 16.7596,5.4607 8.159,0.9502 27.92239,1.2401 30.85659,0.4526 z m -37.70109,-17.3022 c 10.8861,-3.5679 34.11329,-2.4582 41.89199,2.0014 1.819,1.0429 3.5065,1.8961 3.75,1.8961 1.0285,0 0.332,-9.3296 -0.9202,-12.3267 -1.9489,-4.6644 -9.7548,-11.1574 -15.3769,-12.7905 -6.78469,-1.971 -17.76799,-1.7592 -23.51119,0.4532 -6.0118,2.3159 -10.7595,7.9871 -14.0856,16.8254 -2.5949,6.8954 -2.548,8.3797 0.2183,6.9059 0.8902,-0.4742 4.5053,-1.8083 8.0336,-2.9648 z"
         id="path3384"
         inkscape:connector-curvature="0"
         sodipodi:nodetypes="ssssssssssscssccsscscscscscccssscsssccssssssccscssssccccsssccsccssccscccccccscssccsscssccssccccscscsccscccscssscscccccscscssssssscccsccscsccscssssssccscscssssccscssssscccscssscc" />
    </g>
  </g>
</svg>
