<?xml version="1.0" encoding="UTF-8" standalone="no"?>
<!-- Created with Inkscape (http://www.inkscape.org/) -->

<svg
   xmlns:dc="http://purl.org/dc/elements/1.1/"
   xmlns:cc="http://creativecommons.org/ns#"
   xmlns:rdf="http://www.w3.org/1999/02/22-rdf-syntax-ns#"
   xmlns:svg="http://www.w3.org/2000/svg"
   xmlns="http://www.w3.org/2000/svg"
   xmlns:sodipodi="http://sodipodi.sourceforge.net/DTD/sodipodi-0.dtd"
   xmlns:inkscape="http://www.inkscape.org/namespaces/inkscape"
   width="48.513119mm"
   height="48.394405mm"
   viewBox="0 0 171.89688 171.47624"
   id="svg2"
   version="1.1"
   inkscape:version="0.91 r13725"
   sodipodi:docname="playground.svg">
  <defs
     id="defs4" />
  <sodipodi:namedview
     id="base"
     pagecolor="#ffffff"
     bordercolor="#666666"
     borderopacity="1.0"
     inkscape:pageopacity="0.0"
     inkscape:pageshadow="2"
     inkscape:zoom="0.7"
     inkscape:cx="-412.41214"
     inkscape:cy="106.85194"
     inkscape:document-units="px"
     inkscape:current-layer="layer1"
     showgrid="false"
     inkscape:window-width="1680"
     inkscape:window-height="997"
     inkscape:window-x="-8"
     inkscape:window-y="-8"
     inkscape:window-maximized="1"
     fit-margin-top="0"
     fit-margin-left="0"
     fit-margin-right="0"
     fit-margin-bottom="0" />
  <metadata
     id="metadata7">
    <rdf:RDF>
      <cc:Work
         rdf:about="">
        <dc:format>image/svg+xml</dc:format>
        <dc:type
           rdf:resource="http://purl.org/dc/dcmitype/StillImage" />
        <dc:title></dc:title>
      </cc:Work>
    </rdf:RDF>
  </metadata>
  <g
     inkscape:label="Layer 1"
     inkscape:groupmode="layer"
     id="layer1"
     transform="translate(-718.39037,-579.93856)">
    <path
       style="fill:#64a5ff;fill-opacity:1;stroke:#0f0f0f;stroke-width:0;stroke-linecap:round;stroke-linejoin:round;stroke-miterlimit:4;stroke-dasharray:none;stroke-opacity:1"
       d=""
       id="path3349"
       inkscape:connector-curvature="0" />
    <g
       id="g4464"
       transform="translate(-721.42858,348.57143)">
      <g
         style="fill:#ef8d5e;fill-opacity:1"
         id="g4370">
        <path
           style="fill:#ef8d5e;fill-opacity:1;stroke:#0f0f0f;stroke-width:0;stroke-linecap:round;stroke-linejoin:round;stroke-miterlimit:4;stroke-dasharray:none;stroke-opacity:1"
           d="m 1526.4036,235.53782 c -10.8431,0.35719 -21.9066,1.38717 -32.177,5.06294 -13.2049,5.96941 -24.5469,15.84037 -33.1446,27.43556 -4.7429,7.09819 -8.9304,14.69627 -11.2192,22.94842 -3.3778,9.24912 -4.6592,19.17426 -5.7067,28.92449 -0.6602,13.44282 5.96,25.83976 11.8448,37.47775 7.9323,14.06922 20.6443,24.87292 34.1151,33.45489 5.6784,3.76819 12.2342,6.04469 19.0321,6.52949 6.7625,1.18023 13.471,3.09576 20.414,2.4525 13.2834,-0.13907 25.5816,-6.2411 37.016,-12.42854 18.3362,-10.19598 32.7399,-27.79865 37.5178,-48.39466 4.2932,-15.70894 4.882,-32.98364 -1.7109,-48.16094 -4.6969,-13.25603 -12.9345,-24.97475 -23.0479,-34.66404 -7.7877,-7.99977 -17.0153,-15.48842 -28.3742,-17.28976 -8.0856,-1.62242 -16.2756,-3.38493 -24.5593,-3.3481 z m -29.0449,29.59826 c 6.768,-0.52722 12.9074,5.80705 12.3598,12.43922 0.6774,5.61073 -2.2407,11.53415 -7.8121,13.35913 -6.2807,2.86947 -16.136,0.73018 -17.5839,-6.92211 -1.469,-5.9606 -0.9007,-13.62585 5.2589,-16.76617 2.3282,-1.42376 5.0478,-2.16358 7.7773,-2.11007 z m 40.197,25.86937 c 5.5944,1.03322 7.834,7.98677 5.9574,12.81533 -3.9418,4.20845 -13.0719,2.49092 -13.3017,-3.90547 -0.2163,-4.02957 3.1417,-8.68888 7.3443,-8.90986 z m 38.3049,1.90785 c 7.0707,-0.0971 15.8139,3.0381 17.4123,10.7674 0.7357,4.56794 0.6866,9.73304 -2.7911,13.2485 -2.6763,3.32675 -6.3298,7.41435 -11.114,6.03438 -5.9402,-0.34033 -12.945,-2.85513 -14.8023,-9.14486 -1.6015,-5.98114 -1.7368,-13.41773 2.5194,-18.36623 2.4007,-2.02892 5.736,-2.48442 8.7757,-2.53919 z m -55.5988,1.14629 c -0.9916,4.55633 -6.6449,5.10827 -10.2574,6.2661 -4.0694,1.39158 -8.8287,0.37073 -12.5835,2.83513 -3.0072,3.42883 -2.7559,8.63031 -2.2344,12.88043 1.2398,3.12609 4.5116,0.67407 5.8232,-1.02396 2.5624,-2.22885 4.9844,-5.64592 8.4304,-6.34403 3.1019,4.31447 2.6338,10.14713 3.4407,15.20331 0.073,2.90647 1.0844,7.237 4.8428,6.87503 2.2377,-0.0671 -0.8815,1.81897 -1.5152,2.38826 -2.3002,1.48376 -5.1933,3.45307 -7.954,2.93082 -0.94,-5.31826 -0.125,-10.85975 0.1316,-16.25958 1.5442,-3.5451 -2.7035,-6.04947 -4.6555,-2.45981 -2.8714,2.52709 -6.1054,7.44516 -10.5041,5.43253 -2.0129,-4.11617 -1.0382,-8.99912 -0.9598,-13.42595 0.8664,-3.27748 1.313,-7.17717 3.7229,-9.67931 6.7874,-2.22725 14.1261,-2.4856 20.9331,-4.8002 0.9677,-0.14483 2.9396,-1.34217 3.3392,-0.81877 z m -35.2991,3.88967 c 4.1516,-0.20858 1.1008,1.21914 -1.0404,2.05573 -5.124,2.28989 -10.3552,4.60862 -15.7396,6.30664 -1.7293,-0.96038 -1.2117,-2.81641 0.4706,-3.44971 4.885,-2.9076 10.6066,-4.76248 16.3094,-4.91266 z m 56.7273,15.70077 c 4.5225,3.74643 6.139,9.66522 9.434,14.23786 3.7485,0.79918 7.8918,-0.47744 11.798,-0.37884 2.8901,-0.0763 5.8237,-0.36517 8.6928,0.0552 -0.5082,6.11491 -5.6112,10.45654 -9.2667,14.96334 -5.3306,6.23044 -11.922,11.61173 -16.5632,18.48119 -2.7503,8.21083 -1.9392,17.11715 -2.8369,25.61498 -0.1507,2.61313 -0.2269,6.20481 -3.5426,6.65368 -3.6067,0.48633 -7.6105,1.08431 -11.0782,-0.12726 -1.1404,-2.48954 2.6695,-2.23931 4.0604,-2.84598 2.6732,-0.99839 7.5908,-0.23401 7.8849,-4.12052 0.8588,-8.07173 -0.7151,-16.43586 1.3603,-24.34625 3.7166,-8.37006 11.8386,-13.47247 17.7804,-20.11362 2.5167,-2.93324 6.0805,-5.14699 7.8769,-8.57708 -0.9424,-3.65626 -5.7678,-1.58571 -8.5312,-2.20598 -3.2405,-0.0517 -6.4811,-0.10377 -9.7216,-0.15565 -3.55,-5.23273 -7.7247,-10.47167 -10.1015,-16.27983 0.7846,-0.59083 1.7861,-0.82995 2.7542,-0.85528 z m -52.9925,12.71175 c 1.9983,1.75628 0.531,5.06538 0.3157,7.34827 -0.8235,4.49797 -3.4112,9.28223 -8.389,9.96144 -4.5707,0.97133 -9.5767,1.87515 -14.0613,1.55568 0.4436,-2.59806 4.1167,-2.43116 6.0343,-3.35896 3.0829,-1.23215 7.1805,-1.03766 9.4642,-3.64404 2.045,-3.88901 2.8304,-9.24029 6.6361,-11.86239 z m 87.6909,12.83111 c 2.2584,5.44544 5.975,10.65747 6.3805,16.65568 -0.8169,1.61498 -3.5816,1.04444 -5.1124,1.65439 -6.973,1.36912 -14.8187,0.92012 -21.1585,4.68372 -1.5333,-0.27813 0.9196,-3.07673 1.4689,-3.81767 5.5737,-3.81006 12.8865,-3.81539 18.8661,-6.55079 1.4888,-2.58082 -0.8538,-5.75793 -0.6439,-8.69916 -0.092,-1.39141 -0.1,-2.79358 0.068,-4.1797 l 0.1312,0.25353 z m -58.2722,14.54461 c 6.1601,0.91936 12.5528,0.92242 18.603,1.97789 0.2937,2.58075 -1.649,4.28609 -4.1754,3.39376 -6.5594,0.31393 -13.564,-1.65861 -19.8187,1.01481 -6.3256,3.27893 -12.0694,8.61197 -19.3557,9.46229 -1.6194,-1.92783 -3.0689,-4.56855 -3.4832,-7.01879 0.6433,-2.52433 2.4168,-0.0727 3.6102,0.50728 2.4872,2.96184 5.5384,0.4135 7.898,-1.24517 5.2052,-2.99604 10.3337,-6.66291 16.2276,-8.07332 0.1644,-0.0122 0.3294,-0.0171 0.4942,-0.0188 z"
           id="path4362"
           inkscape:connector-curvature="0" />
        <path
           style="fill:#ef8d5e;fill-opacity:1;stroke:#0f0f0f;stroke-width:0;stroke-linecap:round;stroke-linejoin:round;stroke-miterlimit:4;stroke-dasharray:none;stroke-opacity:1"
           d="m 1537.9395,292.87877 c -3.0008,0.45397 -6.4342,3.11291 -6.4082,6.34502 0.9796,3.97286 7.4139,6.50995 10.138,2.99791 1.126,-3.21298 0.9179,-9.33139 -3.7298,-9.34293 z"
           id="path4364"
           inkscape:connector-curvature="0" />
        <path
           style="fill:#ef8d5e;fill-opacity:1;stroke:#0f0f0f;stroke-width:0;stroke-linecap:round;stroke-linejoin:round;stroke-miterlimit:4;stroke-dasharray:none;stroke-opacity:1"
           d="m 1496.0576,267.67823 c -5.3423,-0.22502 -9.8213,4.40573 -9.8095,9.66945 -0.8412,5.05901 2.0516,10.57385 7.2259,11.80517 7.1035,2.70188 15.7387,-3.53943 14.7824,-11.22611 -0.5612,-5.99594 -6.3135,-10.46835 -12.1988,-10.24851 z"
           id="path4366"
           inkscape:connector-curvature="0" />
        <path
           style="fill:#ef8d5e;fill-opacity:1;stroke:#0f0f0f;stroke-width:0;stroke-linecap:round;stroke-linejoin:round;stroke-miterlimit:4;stroke-dasharray:none;stroke-opacity:1"
           d="m 1575.7363,295.46532 c -4.174,-0.39118 -8.5353,1.94681 -9.4919,6.23453 -1.6524,5.36864 -0.6714,12.57263 5.0617,15.06055 4.1295,2.16991 9.2851,2.37835 13.7159,1.15319 6.2287,-2.54426 7.9233,-10.89711 4.2873,-16.23248 -2.7476,-4.87036 -8.3171,-6.41973 -13.573,-6.21579 z"
           id="path4368"
           inkscape:connector-curvature="0" />
      </g>
      <path
         style="fill:#000000"
         d="m 1509.2347,401.73819 c -9.1711,-1.812 -14.2042,-3.6831 -21.6573,-8.0512 -7.5544,-4.4275 -19.1119,-13.7863 -24.2285,-19.6193 -2.1073,-2.4023 -4.9202,-5.5783 -6.2509,-7.0578 -6.9812,-7.7616 -15.9622,-30.9602 -17.154,-44.31 -0.8438,-9.4529 2.6655,-26.9789 8.0258,-40.0815 9.7077,-23.7296 33.5095,-44.09396 57.2649,-48.99466 13.9005,-2.8677 25.6944,-2.9989 37.063,-0.4124 12.7747,2.9065 25.7112,8.0881 31.9328,12.79026 5.1324,3.8791 17.1728,17.1874 20.9882,23.1983 5.4851,8.6414 13.4722,25.0423 14.9241,30.6454 1.8648,7.1966 2.1271,24.6861 0.4883,32.5553 -1.1808,5.6698 -10.8575,28.3265 -14.222,33.2993 -4.5278,6.6919 -13.2566,15.8199 -18.5528,19.4012 -9.2663,6.266 -20.2201,11.8878 -28.3051,14.527 -9.7608,3.1863 -29.6113,4.2252 -40.3165,2.1101 z m 35.0043,-6.1353 c 3.8476,-1.4283 7.9301,-2.8908 9.0722,-3.25 1.1421,-0.3592 6.5421,-3.128 12,-6.153 17.1341,-9.4965 29.8503,-24.4422 35.3093,-41.5 5.9427,-18.5694 6.6968,-34.4486 2.2587,-47.5625 -6.0003,-17.7297 -12.9647,-28.7326 -26.0966,-41.2293 -8.8391,-8.4115 -14.0761,-11.95396 -20.5194,-13.88016 -8.1446,-2.4347 -22.5025,-4.828 -28.9645,-4.828 -11.1755,0 -27.7776,2.6651 -33.7669,5.4205 -8.3064,3.82146 -20.6587,13.41806 -27.1324,21.07946 -5.4343,6.4313 -13.6646,21.0354 -13.6646,24.2467 0,0.7439 -0.7072,2.7202 -1.5716,4.3917 -1.8314,3.5416 -5.4121,23.2893 -5.4218,29.9015 -0.01,6.2263 2.4235,15.0593 6.5403,23.7482 1.8992,4.0085 3.453,7.5297 3.453,7.8249 0,0.2952 1.9612,3.5406 4.3582,7.2119 10.1216,15.5026 35.052,34.1081 45.8519,34.2192 2.3595,0.024 6.5399,0.6689 9.2899,1.4325 8.5934,2.3862 20.9128,1.9302 29.0043,-1.0736 z m -15.0043,-0.2306 c -2.3167,-0.5344 -3,-1.2435 -3,-3.1131 0,-2.1607 0.687,-2.5737 6.3867,-3.8397 l 6.3867,-1.4186 -0.5721,-6.8241 c -0.3147,-3.7532 -0.1421,-9.8607 0.3835,-13.5722 0.7792,-5.5022 1.6381,-7.5935 4.6515,-11.3265 2.0327,-2.518 4.0033,-4.8032 4.3791,-5.0782 3.1998,-2.3416 14.3603,-12.8587 15.824,-14.9117 l 1.8454,-2.5883 -8.587,0 -8.5869,0 -3.0555,-4.1831 c -5.5047,-7.5363 -8.7574,-13.3482 -8.2339,-14.7123 0.2828,-0.7371 1.7134,-1.5693 3.1791,-1.8495 2.2334,-0.4269 3.1565,0.1588 5.7014,3.6177 1.6702,2.2699 3.6908,5.6538 4.4903,7.5197 l 1.4537,3.3926 10.4458,-0.6754 c 12.0647,-0.78 12.7198,-0.3451 9.9412,6.5993 -1.5608,3.9008 -8.2135,11.5496 -19.7909,22.7543 -2.6168,2.5325 -5.2347,6.1643 -5.8175,8.0706 -0.5828,1.9063 -1.2509,9.0752 -1.4846,15.9308 -0.3596,10.5457 -0.7168,12.7565 -2.3205,14.3602 -2.0755,2.0755 -8.7227,2.9773 -13.6195,1.8475 z m -37.9466,-25.4868 c -3.4517,-5.3564 -4.0021,-7.6655 -2.2458,-9.4218 1.5496,-1.5497 1.8575,-1.5179 4.545,0.4691 l 2.8828,2.1314 3.8727,-2.6316 c 2.1299,-1.4473 6.6278,-4.0676 9.9953,-5.8229 5.4292,-2.8299 6.6197,-3.0954 10.5097,-2.3441 2.4128,0.4659 7.2135,0.8668 10.6683,0.8907 6.9801,0.048 8.3481,1.269 6.3464,5.6623 -1.1328,2.4862 -1.1571,2.4902 -11.9724,1.9298 -10.7814,-0.5587 -10.8582,-0.5465 -14.8722,2.3613 -4.7389,3.4328 -11.5786,7.0277 -15.5238,8.1592 -2.2912,0.6571 -3.0526,0.4067 -4.206,-1.3834 z m 63.1399,-7.0424 c -0.8157,-2.1258 1.5917,-6.0121 4.6253,-7.4667 1.518,-0.7278 5.8995,-2.0778 9.7365,-3 l 6.9765,-1.6765 -0.7386,-3 c -1.1977,-4.8654 -0.932,-11.7712 0.4712,-12.2473 0.7393,-0.2508 1.885,1.1649 2.7593,3.4092 0.8222,2.1109 2.6158,5.9294 3.9858,8.4854 2.755,5.1405 3.1821,9.0339 1.174,10.7005 -0.7242,0.6011 -4.4367,1.3444 -8.25,1.6518 -8.6258,0.6954 -17.4333,2.5442 -17.4333,3.6595 0,1.3797 -2.7435,0.9517 -3.3067,-0.5159 z m -89.6933,-17.3741 c 0,-2.8842 1.8384,-4.0618 9.1633,-5.8694 l 6.4473,-1.591 2.3681,-5.962 c 2.6538,-6.6815 5.3471,-8.9495 7.7609,-6.5357 1.2675,1.2675 1.3322,2.4946 0.4079,7.7417 -1.7227,9.7803 -5.4359,12.49 -18.6455,13.6066 -7.0742,0.598 -7.502,0.5187 -7.502,-1.3902 z m 41.4597,-9.3961 c -0.3713,-1.1699 -0.374,-6.0074 -0.01,-10.75 l 0.6692,-8.623 -4.1367,4.25 c -3.2409,3.3296 -4.8616,4.25 -7.484,4.25 -2.9642,0 -3.4849,-0.4172 -4.5505,-3.6458 -1.5684,-4.7523 -0.7107,-13.8502 1.8517,-19.643 1.9156,-4.3306 2.2633,-4.5924 6.8572,-5.1622 8.217,-1.0193 15.7076,-2.671 18.7107,-4.1259 1.5793,-0.765 3.2065,-1.184 3.6159,-0.931 1.1852,0.7325 -0.038,5.2437 -1.8717,6.9032 -1.9408,1.7564 -12.1347,4.5976 -16.5758,4.62 -1.6719,0.01 -3.6349,0.3926 -4.3622,0.8537 -1.5602,0.9892 -2.8471,6.5269 -2.3884,10.2778 0.3198,2.615 0.3773,2.5894 4.8011,-2.1399 2.4625,-2.6327 5.6325,-5.0075 7.0444,-5.2774 2.1926,-0.4192 2.7872,0.036 4.0766,3.1222 0.8303,1.9871 1.7453,7.0521 2.0335,11.2556 0.4977,7.262 0.6437,7.6427 2.9311,7.6427 5.1751,0 4.0866,3.3458 -2.2718,6.9835 -4.997,2.8588 -8.0662,2.9066 -8.9445,0.1395 z m 69.8317,-11.7877 c -9.1236,-1.1089 -14.2919,-7.1097 -14.2843,-16.5853 0.01,-12.2279 4.3217,-16.9396 15.2035,-16.613 13.0208,0.3907 20.5633,8.8437 18.3618,20.5785 -1.0028,5.3454 -9.6164,14.0375 -13.2728,13.3937 -0.4398,-0.077 -3.1435,-0.4257 -6.0082,-0.7739 z m 9.0513,-8.1956 c 2.661,-1.2124 4.6594,-4.7282 4.6535,-8.1868 -0.01,-3.2489 -3.6218,-8.6101 -6.5618,-9.7279 -2.8889,-1.0983 -9.4413,-1.2934 -11.8896,-0.3539 -4.5102,1.7308 -5.6392,12.1735 -1.7014,15.7372 3.814,3.4516 10.9292,4.6137 15.4993,2.5314 z m -119.3538,-9.9104 c -1.3865,-2.5907 -0.7329,-3.5591 4.0484,-5.9984 6.5587,-3.346 14.5193,-5.0314 18.0126,-3.8137 1.6725,0.5831 2.8744,1.5599 2.6708,2.1707 -0.3628,1.0882 -20.0445,9.5233 -22.4355,9.6153 -0.6682,0.026 -1.7015,-0.8625 -2.2963,-1.9739 z m 66.715,0.4246 c -1.5378,-0.8339 -3.2388,-2.6807 -3.78,-4.1041 -1.9918,-5.2389 3.1529,-13.2998 8.4884,-13.2998 5.2418,0 9.7975,6.6221 8.8434,12.8548 -0.4038,2.6383 -1.2268,3.6529 -3.8525,4.75 -4.1911,1.7512 -6.1747,1.7101 -9.6993,-0.2009 z m 8.1065,-8.1539 c -0.2645,-3.1951 -0.6623,-3.75 -2.6884,-3.75 -1.3184,0 -3.0094,0.9507 -3.7948,2.1337 -1.239,1.866 -1.214,2.3366 0.1994,3.75 0.8889,0.889 2.7363,1.6163 4.1052,1.6163 2.2646,0 2.4609,-0.338 2.1786,-3.75 z m -52.1381,-6.358 c -2.422,-1.2779 -4.3499,-3.2696 -5.25,-5.4237 -1.8561,-4.4423 -1.814,-11.8101 0.088,-15.4893 2.2655,-4.3809 8.1725,-7.979 13.0992,-7.979 9.6731,0 15.3932,5.6907 15.3862,15.3071 0,6.7353 -2.6923,11.1985 -8.2669,13.729 -5.3997,2.4512 -10.2256,2.405 -15.057,-0.1441 z m 14.6556,-5.9354 c 5.2153,-4.1022 4.4096,-12.4896 -1.4929,-15.5419 -7.0137,-3.627 -13.8591,0.2351 -13.8032,7.7875 0.035,4.7956 1.476,7.2751 5.0589,8.7077 3.9033,1.5607 7.4626,1.2292 10.2372,-0.9533 z"
         id="path3376"
         inkscape:connector-curvature="0"
         sodipodi:nodetypes="sssccssssssscssssssssssssssccssscsscssccsccccccscccscsssscscccscssccssccccccccccccsscssccscsscccsscscccsccsccccssccscsscsccccscsscccsccscsccsccsccccsccccsscss" />
    </g>
  </g>
</svg>
