<?xml version="1.0" encoding="UTF-8" standalone="no"?>
<!-- Created with Inkscape (http://www.inkscape.org/) -->

<svg
   xmlns:dc="http://purl.org/dc/elements/1.1/"
   xmlns:cc="http://creativecommons.org/ns#"
   xmlns:rdf="http://www.w3.org/1999/02/22-rdf-syntax-ns#"
   xmlns:svg="http://www.w3.org/2000/svg"
   xmlns="http://www.w3.org/2000/svg"
   xmlns:sodipodi="http://sodipodi.sourceforge.net/DTD/sodipodi-0.dtd"
   xmlns:inkscape="http://www.inkscape.org/namespaces/inkscape"
   width="49.623463mm"
   height="49.537472mm"
   viewBox="0 0 175.83117 175.52647"
   id="svg2"
   version="1.1"
   inkscape:version="0.91 r13725"
   sodipodi:docname="ski.svg">
  <defs
     id="defs4" />
  <sodipodi:namedview
     id="base"
     pagecolor="#ffffff"
     bordercolor="#666666"
     borderopacity="1.0"
     inkscape:pageopacity="0.0"
     inkscape:pageshadow="2"
     inkscape:zoom="0.7"
     inkscape:cx="-181.9902"
     inkscape:cy="337.10798"
     inkscape:document-units="px"
     inkscape:current-layer="layer1"
     showgrid="false"
     inkscape:window-width="1680"
     inkscape:window-height="997"
     inkscape:window-x="-8"
     inkscape:window-y="-8"
     inkscape:window-maximized="1"
     fit-margin-top="0"
     fit-margin-left="0"
     fit-margin-right="0"
     fit-margin-bottom="0" />
  <metadata
     id="metadata7">
    <rdf:RDF>
      <cc:Work
         rdf:about="">
        <dc:format>image/svg+xml</dc:format>
        <dc:type
           rdf:resource="http://purl.org/dc/dcmitype/StillImage" />
        <dc:title></dc:title>
      </cc:Work>
    </rdf:RDF>
  </metadata>
  <g
     inkscape:label="Layer 1"
     inkscape:groupmode="layer"
     id="layer1"
     transform="translate(-487.96843,-806.14434)">
    <path
       style="fill:#64a5ff;fill-opacity:1;stroke:#0f0f0f;stroke-width:0;stroke-linecap:round;stroke-linejoin:round;stroke-miterlimit:4;stroke-dasharray:none;stroke-opacity:1"
       d=""
       id="path3349"
       inkscape:connector-curvature="0" />
    <g
       id="g4520"
       transform="translate(-721.42858,348.57143)">
      <g
         style="fill:#c5a9e4;fill-opacity:1"
         id="g4419">
        <path
           style="fill:#c5a9e4;fill-opacity:1;stroke:#0f0f0f;stroke-width:0;stroke-linecap:round;stroke-linejoin:round;stroke-miterlimit:4;stroke-dasharray:none;stroke-opacity:1"
           d="m 1281.1942,472.30793 c -7.908,0.62862 -10.3667,9.72056 -10.2416,16.3696 -2.588,40.24348 2.6155,80.4236 4.739,120.56722 -0.8317,5.8898 5.4782,11.93487 10.9953,8.18777 7.4278,-3.10253 3.8626,-11.71869 4.3054,-17.90674 -1.7122,-35.98676 -1.6849,-71.93136 -0.4106,-107.92431 -0.1628,-7.01087 1.181,-18.56592 -9.3875,-19.29354 z"
           id="path4413"
           inkscape:connector-curvature="0" />
        <path
           style="fill:#c5a9e4;fill-opacity:1;stroke:#0f0f0f;stroke-width:0;stroke-linecap:round;stroke-linejoin:round;stroke-miterlimit:4;stroke-dasharray:none;stroke-opacity:1"
           d="m 1311.0766,472.42828 c -6.9327,1.08457 -4.7719,10.33346 -5.4673,15.24087 0.078,39.57415 2.1305,79.15414 5.0108,118.61325 -0.3207,5.31223 3.3781,11.9213 9.5262,10.06523 6.2171,-0.64535 3.1106,-8.95329 3.6717,-12.85802 -1.4859,-39.99264 -1.1592,-80.09679 -4.3801,-120.00095 -0.2425,-4.89468 -2.6171,-10.97501 -8.3613,-11.06038 z"
           id="path4415"
           inkscape:connector-curvature="0" />
        <path
           style="fill:#c5a9e4;fill-opacity:1;stroke:#0f0f0f;stroke-width:0;stroke-linecap:round;stroke-linejoin:round;stroke-miterlimit:4;stroke-dasharray:none;stroke-opacity:1"
           d="m 1304.3725,460.64382 c -27.8483,1.53328 -57.2063,11.77346 -74.481,34.75359 -11.5829,16.59447 -18.2135,37.36351 -16.5472,57.66748 3.0521,19.59264 13.1315,37.84676 26.3744,52.42928 17.5592,18.77347 44.4969,26.27108 69.6169,23.60019 17.9785,-0.69056 34.1117,-10.83431 47.2905,-22.34736 15.1703,-16.23869 24.5942,-38.21211 25.605,-60.43356 -1.0935,-20.53712 -9.2599,-40.77725 -22.1369,-56.75098 -13.7174,-16.00158 -33.6995,-27.37134 -54.8714,-28.92456 l -0.8503,0.006 z m 10.066,9.6655 c 8.1371,0.52658 7.4123,10.64222 8.2145,16.42962 1.7707,17.30737 0.1378,35.02763 3.4732,52.11673 2.1461,2.46858 1.0816,3.15761 -0.8246,4.83768 -1.5837,12.99707 0.7319,26.31318 0.6578,39.41914 -0.1053,10.29401 1.8189,20.76355 -0.1607,30.88314 -2.131,6.18161 -12.6396,9.74824 -15.3081,2.10909 -5.633,-18.15221 -5.4589,-37.35819 -6.9227,-56.27385 -1.1527,-5.72824 1.8757,-13.1918 -2.2535,-17.94869 -3.9641,-0.80686 1.6053,-4.18105 0.9411,-6.81064 2.1179,-20.15694 0.1565,-40.63767 2.7522,-60.61507 1.9218,-3.0929 5.9616,-4.3283 9.4308,-4.14715 z m -30.6893,0.11246 c 7.7108,1.00332 10.2578,10.34188 9.1361,16.95556 -0.306,41.61527 0.9297,83.33789 -0.5202,124.88011 0.4065,4.96076 -2.4672,9.57496 -7.811,9.80165 -7.0173,3.14613 -11.6373,-5.13878 -12.0508,-11.03311 -3.0199,-21.66773 -1.9797,-43.98492 -4.3306,-65.86476 -0.8096,-2.74525 -4.438,-2.88044 -1.5961,-5.93662 3.1811,-19.98254 0.4302,-40.67785 3.2198,-60.53418 3.0724,-4.45256 8.3926,-8.24908 13.9528,-8.26865 z m -33.9427,32.14337 c 5.4412,3.02239 3.9612,11.23349 5.9208,16.38341 -3.5149,1.18457 -4.4861,5.77717 -3.5987,9.29656 1.2971,21.28406 0.7545,42.77728 3.5474,63.92174 0.036,1.86057 3.4211,2.77544 0.6432,3.79006 -1.9042,0.88635 -1.9671,5.44674 -3.7763,5.31119 0.032,-2.92741 -3.8411,-4.81655 -3.3441,-7.35913 4.0659,-4.04018 1.9084,-11.12738 2.7136,-16.33012 -0.4063,-18.54872 -0.163,-37.3001 -2.8458,-55.67087 0,-2.60726 -3.2878,-2.45343 -3.9854,-3.87882 2.9619,-4.57452 2.6939,-10.72716 4.7253,-15.46402 z m 93.8968,1.98282 c 2.325,1.43818 0.6194,5.91121 1.2173,8.22525 -0.4539,3.34487 1.8562,6.48944 3.5928,8.48173 -5.2898,2.37284 -2.6689,9.8968 -3.5474,14.41243 0.131,19.8018 -0.5938,39.84065 0.3482,59.49012 0.4677,1.76584 6.8149,1.38845 2.773,2.77039 -2.0413,0.73335 -3.2119,3.66449 -3.5691,4.92055 -0.4069,-2.1203 -1.6065,-4.28932 -3.2889,-5.45127 4.2915,-5.95624 1.7329,-14.21574 2.5878,-21.05929 -0.4519,-16.85633 1.1082,-33.9276 -1.0943,-50.6576 -0.424,-3.3706 -6.4738,-2.59962 -4.1031,-6.42389 1.5329,-4.61672 0.2177,-11.05117 3.8605,-14.62753 0.3987,-0.0992 0.815,-0.10511 1.2232,-0.0809 z"
           id="path4417"
           inkscape:connector-curvature="0" />
      </g>
      <path
         style="fill:#000000"
         d="m 1280.7403,631.34626 c -4.125,-1.1215 -9.1719,-2.4706 -11.2152,-2.998 -9.5464,-2.4638 -22.5708,-10.1986 -31.066,-18.4491 -11.3515,-11.0243 -21.2503,-27.7816 -26.2962,-44.5153 -3.2419,-10.7512 -3.6891,-26.7374 -1.0492,-37.5 0.9444,-3.85 2.1661,-8.9637 2.7149,-11.3638 2.2089,-9.6603 11.6969,-25.059 20.0958,-32.6146 10.9396,-9.8414 28.4485,-19.3534 42.3209,-22.9918 8.5433,-2.2406 24.9605,-3.8723 31.995,-3.1798 6.6835,0.6579 20.8617,4.7974 27,7.8831 7.5812,3.8109 23.4088,14.9585 25.928,18.2614 13.5063,17.7076 21.2449,35.0931 23.6434,53.1166 1.4073,10.5748 -0.8945,29.5563 -4.7591,39.2463 -9.148,22.9371 -22.4723,38.1591 -42.0171,48.0012 -14.0925,7.0965 -18.5641,8.2141 -34.7952,8.6969 -12.9001,0.3837 -16.05,0.1607 -22.5,-1.5931 z m 34.5178,-4.3086 c 4.9599,-0.7016 10.3599,-1.9927 12,-2.8691 1.6402,-0.8763 6.0675,-3.2219 9.8385,-5.2124 14.325,-7.5614 22.8927,-15.747 30.5414,-29.1792 13.8187,-24.2677 16.4651,-45.0406 8.6161,-67.6304 -11.578,-33.3217 -31.4642,-51.8061 -63.7375,-59.2445 -6.2916,-1.4501 -7.5909,-1.4174 -20.218,0.5089 -18.2957,2.791 -29.1735,6.7448 -42.5583,15.4688 -11.5815,7.5485 -18.1348,14.3856 -23.278,24.2857 -7.0593,13.5882 -9.4619,21.089 -11.7569,36.7033 -3.1045,21.1222 11.8495,53.4874 32.7744,70.9343 10.9513,9.131 23.7499,14.3867 41.2605,16.9434 5.6285,0.8218 18.0446,0.4899 26.5178,-0.7088 z m -38.0178,-3.8044 c -5.8202,-3.5046 -7.2047,-9.6275 -8.4456,-37.3494 -0.5662,-12.65 -1.1139,-27.3929 -1.2169,-32.7619 -0.1718,-8.9512 -0.339,-9.7138 -2.0125,-9.1826 -2.3022,0.7307 -2.5478,-2.7108 -0.325,-4.5555 1.2689,-1.0532 1.5,-5.6235 1.5,-29.6721 0,-31.1125 0.098,-31.7079 6.0091,-36.6822 6.8246,-5.7425 14.6421,-5.7188 18.5569,0.056 3.7318,5.5052 4.5652,14.6205 3.7139,40.6229 -0.4289,13.1036 -0.3958,24.5095 0.074,25.3463 0.514,0.9162 0.4145,1.9608 -0.25,2.6253 -1.4082,1.4083 -1.4129,14.9691 -0.016,46.3678 1.1893,26.7314 1.0084,28.0786 -4.4608,33.2166 -2.9105,2.7344 -10.0717,3.8083 -13.1268,1.9687 z m 9.997,-8.0258 2.7668,-2.1763 -0.6309,-14.5737 c -1.5902,-36.7387 -1.8621,-73.4684 -0.6945,-93.8202 1.3162,-22.9415 0.8898,-26.8595 -3.2374,-29.7503 -1.1803,-0.8267 -3.063,-1.5031 -4.1837,-1.5031 -2.9788,0 -7.2647,4.4288 -8.4636,8.7458 -1.5874,5.7161 -1.2874,52.3911 0.4388,68.2542 0.808,7.425 1.9522,24.075 2.5428,37 0.5906,12.925 1.2877,24.5319 1.5492,25.7932 0.4325,2.0865 3.1913,3.982 6.0306,4.1434 0.6134,0.035 2.3602,-0.916 3.8819,-2.113 z m 23.9622,4.8949 c -2.1024,-1.8084 -3.0347,-4.117 -4.4966,-11.1344 -1.6159,-7.7567 -2.3912,-15.0038 -4.3954,-41.0841 -0.2535,-3.3 -0.4849,-10.4357 -0.5141,-15.857 -0.045,-8.4455 -0.2733,-9.7725 -1.591,-9.2669 -2.5746,0.988 -3.0642,-2.4702 -0.6289,-4.4422 2.1321,-1.7265 2.1668,-2.2179 2.1668,-30.7221 0,-32.0287 0.4439,-34.8387 5.9538,-37.6879 3.9727,-2.0544 9.0542,-1.8677 11.814,0.434 4.4017,3.6712 5.0905,8.2104 5.8092,38.2782 0.6296,26.342 0.8116,28.4134 2.6758,30.463 2.3091,2.5388 1.7249,5.6133 -0.877,4.6148 -1.5631,-0.5998 -1.6471,0.3069 -1.0441,11.2669 3.0874,56.1132 3.0819,55.6882 0.7815,60.1973 -3.559,6.9761 -10.6761,9.2223 -15.654,4.9404 z m 11.5141,-6.6686 c 0.7462,-1.3943 0.6102,-4.8362 -0.4772,-12.0756 -0.8364,-5.569 -1.3282,-10.437 -1.0929,-10.8178 0.4825,-0.7807 -0.9932,-72.6787 -1.9017,-92.6565 -0.7636,-16.7883 -1.2265,-19.5304 -3.7568,-22.25 -2.7438,-2.9491 -5.3064,-2.8487 -7.362,0.2885 -1.4939,2.2801 -1.5917,5.3099 -0.9603,29.75 0.6237,24.1416 2.1808,59.272 4.1536,93.7115 0.7739,13.5105 1.8493,16 6.9119,16 2.3889,0 3.761,-0.5966 4.4854,-1.9501 z m 20.7142,-8.6958 c -0.3781,-0.3781 -0.6875,-1.7071 -0.6875,-2.9534 0,-1.4558 -0.7859,-2.5154 -2.1982,-2.9636 l -2.1982,-0.6977 2.1982,-1.78 c 2.1873,-1.7712 2.1977,-1.942 2.0985,-34.6197 -0.055,-18.0619 -0.404,-33.9283 -0.776,-35.2588 -0.4325,-1.5469 -1.4778,-2.4781 -2.8998,-2.5828 -2.898,-0.2135 -3.752,-1.1426 -2.504,-2.724 0.5531,-0.7008 1.2653,-4.2047 1.5827,-7.7865 0.7101,-8.0122 1.3393,-9.7394 3.8372,-10.5322 3.5501,-1.1267 4.8596,1.234 4.8596,8.7606 0,6.1851 0.231,7.0316 2.0484,7.5069 2.7452,0.7179 2.0836,3.6843 -0.9169,4.1108 -2.0405,0.29 -2.2684,0.7321 -1.7398,3.375 0.3346,1.6727 0.6083,17.835 0.6083,35.9163 l 0,32.875 2.5,0 c 3.2706,0 3.3148,2.7573 0.057,3.5749 -1.6735,0.42 -2.5395,1.4252 -2.75,3.192 -0.3091,2.5937 -1.8421,3.865 -3.1199,2.5872 z m -91.9863,-1.9862 c -0.3857,-0.3857 -0.7012,-1.5307 -0.7012,-2.5444 0,-1.0137 -0.9,-2.6137 -2,-3.5556 -2.5983,-2.2247 -2.5545,-4.2679 0.092,-4.2679 2.088,0 2.0903,-0.046 1.3695,-26.75 -1.0696,-39.623 -1.511,-44.647 -3.9611,-45.0859 -3.1819,-0.57 -4.231,-2.128 -2.3628,-3.5092 1.0004,-0.7397 2.0538,-3.8865 2.7084,-8.0911 0.5892,-3.7844 1.5097,-7.3191 2.0456,-7.855 2.8086,-2.8086 7.1088,3.9665 7.1088,11.2 0,2.1852 0.45,4.2512 1,4.5912 1.7871,1.1045 1.0565,3.4477 -1.256,4.0281 -2.2194,0.557 -2.2451,0.7394 -1.5879,11.269 0.3674,5.8866 0.9939,22.0289 1.3923,35.8719 0.6728,23.3783 0.8569,25.2037 2.588,25.6564 2.4246,0.634 2.3912,2.3033 -0.059,2.9441 -1.2136,0.3173 -2.0434,1.5557 -2.25,3.3581 -0.3123,2.7236 -2.6142,4.2523 -4.1262,2.7403 z"
         id="path3392"
         inkscape:connector-curvature="0"
         sodipodi:nodetypes="ccsscsscscssssscccssssssssssccssccsccsccscccccssssssscccsscccssccsscssscccsscsssccsccsssccccscccscssccccscssscsssccssccccc" />
    </g>
  </g>
</svg>
