<?xml version="1.0" encoding="UTF-8" standalone="no"?>
<!-- Created with Inkscape (http://www.inkscape.org/) -->

<svg
   xmlns:dc="http://purl.org/dc/elements/1.1/"
   xmlns:cc="http://creativecommons.org/ns#"
   xmlns:rdf="http://www.w3.org/1999/02/22-rdf-syntax-ns#"
   xmlns:svg="http://www.w3.org/2000/svg"
   xmlns="http://www.w3.org/2000/svg"
   xmlns:sodipodi="http://sodipodi.sourceforge.net/DTD/sodipodi-0.dtd"
   xmlns:inkscape="http://www.inkscape.org/namespaces/inkscape"
   width="49.809727mm"
   height="50.164658mm"
   viewBox="0 0 176.49116 177.74878"
   id="svg2"
   version="1.1"
   inkscape:version="0.91 r13725"
   sodipodi:docname="tent.svg">
  <defs
     id="defs4" />
  <sodipodi:namedview
     id="base"
     pagecolor="#ffffff"
     bordercolor="#666666"
     borderopacity="1.0"
     inkscape:pageopacity="0.0"
     inkscape:pageshadow="2"
     inkscape:zoom="0.7"
     inkscape:cx="-407.81791"
     inkscape:cy="-118.24263"
     inkscape:document-units="px"
     inkscape:current-layer="layer1"
     showgrid="false"
     inkscape:window-width="1680"
     inkscape:window-height="1027"
     inkscape:window-x="1672"
     inkscape:window-y="-8"
     inkscape:window-maximized="1"
     fit-margin-top="0"
     fit-margin-left="0"
     fit-margin-right="0"
     fit-margin-bottom="0" />
  <metadata
     id="metadata7">
    <rdf:RDF>
      <cc:Work
         rdf:about="">
        <dc:format>image/svg+xml</dc:format>
        <dc:type
           rdf:resource="http://purl.org/dc/dcmitype/StillImage" />
        <dc:title></dc:title>
      </cc:Work>
    </rdf:RDF>
  </metadata>
  <g
     inkscape:label="Layer 1"
     inkscape:groupmode="layer"
     id="layer1"
     transform="translate(-713.79614,-348.57143)">
    <path
       style="fill:#64a5ff;fill-opacity:1;stroke:#0f0f0f;stroke-width:0;stroke-linecap:round;stroke-linejoin:round;stroke-miterlimit:4;stroke-dasharray:none;stroke-opacity:1"
       d=""
       id="path3349"
       inkscape:connector-curvature="0" />
    <g
       id="g4454"
       transform="translate(-721.42858,348.57143)">
      <g
         style="fill:#92d577;fill-opacity:1"
         id="g3493">
        <g
           id="g3487"
           style="fill:#92d577;fill-opacity:1">
          <path
             inkscape:connector-curvature="0"
             id="path3477"
             d="m 1515.2363,24.461105 c -3.9732,1.98312 -7.1827,5.283142 -10.7755,7.878026 -11.0503,8.951543 -22.3806,17.587998 -33.0289,27.01804 -2.0828,2.527168 -1.1242,6.189033 -1.5518,9.194668 -0.6641,18.415768 0.041,36.861621 -0.855,55.267751 -0.1293,1.58053 -0.048,3.78529 -2.1481,3.99461 -4.2762,1.24926 -8.8242,1.03597 -13.1418,2.01591 -2.4246,1.3826 -0.4863,3.95393 0.8508,5.29566 12.1499,14.56805 26.857,27.99861 45.139,34.16391 6.8151,2.39986 14.0435,3.57651 21.2709,3.10155 9.226,0.11314 18.2218,-2.38014 27.0355,-4.83442 10.8473,-3.37532 20.3269,-9.93303 29.5516,-16.37376 5.8257,-4.36259 11.3774,-9.14523 16.487,-14.3203 1.1812,-1.83109 -0.8305,-3.58918 -2.652,-3.48772 -10.2518,-1.70753 -20.632,-2.40187 -30.9407,-3.61858 -1.5684,-0.0811 -3.0021,-0.4557 -2.6448,-2.31015 -1.3362,-21.19291 -1.1429,-42.589057 -2.1344,-63.855729 -1.3116,-3.711262 -4.76,-6.164113 -7.1591,-9.161042 -8.4061,-8.987502 -16.784,-18.002953 -25.299,-26.887369 -2.0206,-1.732207 -4.2404,0.941652 -3.2657,3.032462 0.9455,13.586697 1.0349,27.642428 1.4295,41.424582 0.4961,17.540925 0.5185,35.123456 2.0147,52.613266 0.472,1.94166 -2.0805,1.0703 -3.208,1.17885 -2.0264,-0.0575 -1.4112,-2.96531 -1.7606,-4.30803 -0.7567,-19.72075 -0.3336,-39.518294 -0.5053,-59.273854 -0.074,-12.019372 0.019,-24.045168 -0.255,-36.060273 -0.3249,-1.120162 -1.2347,-1.949452 -2.4533,-1.688058 z m -4.4573,12.412807 c 1.9563,-0.118971 2.1325,2.406375 1.0317,3.427037 -1.2855,0.110398 -3.5992,-1.387702 -2.6932,-2.804129 0.4284,-0.438899 1.0534,-0.65696 1.6615,-0.622908 z m -1.4948,15.555246 c 1.4858,-0.131424 2.3899,2.321921 0.505,2.391183 -1.2015,0.140442 -1.1836,-1.996796 -0.692,-2.396066 l 0.085,-6.97e-4 0.1019,0.0056 z m 1.0317,15.654296 c 1.2962,0.09843 -0.3702,2.232275 -0.9013,0.830078 -1.0842,-0.698168 0.1223,-1.014721 0.9013,-0.830078 z m -1.9741,15.193917 c 1.0925,0.690547 -0.129,3.338183 -1.3888,2.5 -0.3421,-0.920632 0.3051,-2.45835 1.3888,-2.5 z m -0.4018,17.904579 c 1.5886,0.64267 -0.1992,3.43338 -1.4774,2.49233 -0.3668,-0.95154 0.8657,-2.02745 1.4774,-2.49233 z m -0.4394,18.10895 c 1.3255,0.0982 1.7204,1.53014 0.3676,2.09055 -1.1356,1.24362 -2.5802,-1.17864 -1.1266,-1.87012 0.2159,-0.16183 0.4894,-0.24525 0.759,-0.22043 z"
             style="fill:#92d577;fill-opacity:1;stroke:#0f0f0f;stroke-width:0;stroke-linecap:round;stroke-linejoin:round;stroke-miterlimit:4;stroke-dasharray:none;stroke-opacity:1" />
          <path
             inkscape:connector-curvature="0"
             id="path3479"
             d="m 1530.7846,4.0760608 c -13.2851,0.2054638 -26.8585,1.4854868 -39.1323,6.9489262 -18.1594,7.481343 -34.9249,20.128477 -44.0059,37.883663 -6.6145,13.726932 -9.3845,29.229429 -8.6712,44.411971 0.6679,10.959219 4.0194,21.674499 8.7563,31.497199 1.8334,1.85509 4.9337,0.54106 7.306,0.93653 2.9046,-0.21842 5.9619,0.47861 8.7528,-0.42131 1.4394,-2.06925 0.5521,-4.86991 1.0594,-7.26563 1.3241,-19.395721 1.3264,-38.922739 2.2365,-58.277064 11.2833,-8.743289 21.915,-18.285021 33.0297,-27.230138 5.6156,-4.078678 10.8766,-8.977787 17.4188,-11.524744 3.3007,-1.098546 5.5173,2.489018 7.6835,4.308733 5.7459,5.699145 10.8673,12.122958 17.2789,17.09891 2.5247,1.609636 4.4256,-1.53981 6.5123,-2.271901 2.8091,-1.297729 5.7052,-2.909065 8.7709,-3.267997 0.812,0.482891 2.0001,1.49292 1.9343,2.377232 -2.721,1.44959 -1.2995,4.840695 -0.6086,7.066877 4.069,12.23345 8.2254,24.467164 13.2111,36.361557 1.3332,3.315582 3.5865,6.57425 7.2866,7.413504 5.8136,1.301832 8.1323,7.447889 10.6584,12.151231 2.886,5.55563 4.9803,11.61906 8.7061,16.68387 1.8532,1.90196 4.3394,-0.32569 4.6687,-2.37723 3.1406,-10.94034 3.9883,-22.449243 3.8119,-33.793846 0.022,-10.0146 -3.0374,-19.775872 -6.9411,-28.901111 -5.9915,-12.69992 -15.4467,-23.523488 -26.0435,-32.611967 -8.5727,-7.191917 -18.7997,-12.1775868 -29.253,-15.9988835 -4.6903,-1.219024 -9.6156,-1.1608497 -14.4266,-1.1983817 z"
             style="fill:#92d577;fill-opacity:1;stroke:#0f0f0f;stroke-width:0;stroke-linecap:round;stroke-linejoin:round;stroke-miterlimit:4;stroke-dasharray:none;stroke-opacity:1" />
          <path
             inkscape:connector-curvature="0"
             id="path3483"
             d="m 1578.9124,91.147071 c -2.5161,0.03946 -2.889,3.010902 -2.0306,4.827706 1.8044,6.545953 4.701,12.818743 5.7367,19.559153 -3.7814,-6.00918 -6.0765,-12.75953 -8.2276,-19.513812 -0.3697,-2.027566 -3.0614,-3.757607 -4.6045,-1.791295 -1.6506,2.884768 0.074,6.338617 0.9545,9.216857 3.6039,8.29914 7.4978,16.58793 12.6804,24.02742 2.4098,2.4302 5.78,0.0167 8.3468,-0.85658 2.0438,-0.80834 5.2705,-2.05829 4.3723,-4.88002 -3.4294,-9.08191 -7.5153,-17.92723 -11.7934,-26.640629 -1.0822,-1.965198 -3.0568,-3.928483 -5.4346,-3.9488 z"
             style="fill:#92d577;fill-opacity:1;stroke:#0f0f0f;stroke-width:0;stroke-linecap:round;stroke-linejoin:round;stroke-miterlimit:4;stroke-dasharray:none;stroke-opacity:1" />
          <path
             inkscape:connector-curvature="0"
             id="path3485"
             d="m 1548.8029,42.475893 c -2.1945,-0.381113 -4.4689,1.952654 -2.9478,3.969029 2.505,3.215848 5.2695,6.397621 8.5693,8.805106 2.303,1.005545 3.7032,-2.050318 2.4805,-3.803013 -1.4951,-3.109717 -2.521,-7.206271 -5.9166,-8.761161 -0.7051,-0.220415 -1.4538,-0.228712 -2.1854,-0.209961 z"
             style="fill:#92d577;fill-opacity:1;stroke:#0f0f0f;stroke-width:0;stroke-linecap:round;stroke-linejoin:round;stroke-miterlimit:4;stroke-dasharray:none;stroke-opacity:1" />
        </g>
        <path
           style="fill:#92d577;fill-opacity:1;stroke:#0f0f0f;stroke-width:0;stroke-linecap:round;stroke-linejoin:round;stroke-miterlimit:4;stroke-dasharray:none;stroke-opacity:1"
           d="m 1561.6524,68.825642 c -2.9151,0.537959 -1.9709,4.151181 -2.1258,6.268087 0.5691,16.343798 1.2745,32.700051 2.6866,48.994191 0.2537,3.07962 4.0946,2.71049 6.2893,3.39214 2.8407,0.21479 5.8987,1.75859 8.6828,0.63409 2.6857,-1.66375 0.7242,-4.98472 -0.2413,-7.074 -3.1453,-7.10164 -7.4512,-13.75972 -9.6122,-21.260266 -0.5311,-2.286703 -0.5103,-4.895068 1.4202,-6.556223 1.3998,-1.634694 3.4624,-3.648571 1.9015,-5.883301 -2.3158,-5.925153 -4.5768,-11.89647 -7.244,-17.667201 -0.4147,-0.570453 -1.067,-0.828768 -1.7571,-0.847517 z"
           id="path3481"
           inkscape:connector-curvature="0" />
      </g>
      <path
         sodipodi:nodetypes="ssssssssssssscsscsssscsscssscssscssscscscccccccscsccscccscscsssssscsccsccccscscssccscccsscccscscscscsssssscsssscsssccccscc"
         inkscape:connector-curvature="0"
         id="path3372"
         d="m 1506.3674,176.86672 c -9.5638,-1.49392 -24.2252,-8.42822 -34.3729,-16.25715 -16.4788,-12.71327 -32.0771,-38.13626 -35.6447,-58.09554 -4.232,-23.6767 3.848,-55.372806 17.9772,-70.520476 22.015,-23.6019199 52.1827,-34.7799299 84.7497,-31.40236991 9.2319,0.95745001 11.4373,1.59528001 19.6519,5.68349001 14.9143,7.4225999 23.2045,14.2328499 34.2339,28.1225799 14.2488,17.94395 19.7278,35.68847 18.6134,60.282196 -0.6788,14.98218 -2.6404,22.54389 -8.7237,33.62795 -11.2242,20.451 -28.0052,35.01023 -48.9848,42.49936 -17.6539,6.30192 -33.2297,8.28906 -47.5,6.05996 z m 23.5,-6.92419 c 15.464,-2.87118 22.363,-5.06469 30.2393,-9.61449 11.2769,-6.5141 19.5872,-12.44989 26.8698,-19.19227 l 6.1303,-5.67555 -8.3697,-1.22461 c -4.6034,-0.67354 -12.771,-1.54048 -18.1504,-1.92655 -5.3793,-0.38606 -10.0435,-1.1273 -10.3648,-1.6472 -0.3213,-0.5199 -0.9654,-16.00005 -1.4312,-34.40033 l -0.847,-33.455056 -12.4435,-13.20461 c -6.844,-7.26253 -14.0929,-15.00461 -16.1088,-17.20461 l -3.6652,-4 0.5678,10.00001 c 0.3123,5.5 0.8271,24.85 1.144,42.999996 0.3168,18.15 0.984,35.68655 1.4826,38.97012 0.5,3.29267 0.5241,6.35254 0.054,6.82284 -0.469,0.469 -2.3687,0.70745 -4.2215,0.52988 -3.2633,-0.31273 -3.3939,-0.49512 -4.1704,-5.82284 -0.4409,-3.025 -0.6696,-25.86254 -0.5084,-50.750096 0.1613,-24.88755 0.061,-45.25006 -0.223,-45.25001 -0.4827,9e-5 -10.1847,7.67576 -33.2702,26.32142 -5.326,4.30173 -10.0279,8.35173 -10.4486,9 -0.4207,0.64828 -0.7649,15.674866 -0.7649,33.392416 0,28.42332 -0.1916,32.40532 -1.6276,33.84189 -1.0305,1.03075 -4.2311,1.86963 -8.7231,2.28627 l -7.0954,0.65811 3.223,3.90775 c 22.2598,26.98891 47.9683,39.23371 72.7231,34.63752 z m -24.8592,-47.37563 c -2.5668,-3.09272 1.923,-7.03443 4.7698,-4.18762 1.1874,1.18747 1.2975,1.96512 0.4653,3.28674 -1.429,2.26916 -3.7658,2.67129 -5.2351,0.90088 z m -0.4157,-18.61282 c -0.3038,-1.1616 0.2652,-2.64304 1.4145,-3.68316 1.7453,-1.57947 2.0671,-1.59547 3.4891,-0.17348 1.2441,1.24404 1.3333,2.0022 0.4337,3.68316 -1.4192,2.65184 -4.6616,2.75723 -5.3373,0.17348 z m 0.6113,-17.62261 c -0.8668,-2.25872 0.9077,-4.93421 3.2726,-4.93421 2.9967,0 2.6579,5.8911 -0.3635,6.32014 -1.4143,0.20083 -2.4984,-0.31564 -2.9091,-1.38593 z m 3.2056,-15.779816 c -2.3285,-1.70264 -1.4039,-4.65439 1.458,-4.65439 2.6232,0 3.7131,2.71545 1.8412,4.58732 -1.2153,1.21532 -1.715,1.22548 -3.2992,0.0671 z m -0.292,-14.31667 c -0.6875,-0.27741 -1.25,-1.55439 -1.25,-2.83772 0,-2.68466 1.7232,-3.62926 4.25,-2.32969 2.1814,1.12192 2.2873,4.40954 0.1682,5.2227 -0.87,0.33385 -1.6575,0.57146 -1.75,0.52804 -0.092,-0.0434 -0.7307,-0.30592 -1.4182,-0.58333 z m 0.8079,-15.00972 c -2.9995,-2.10089 -2.3907,-5.7312 1.0277,-6.12857 3.1341,-0.36432 5.0291,1.64571 4.274,4.53343 -0.7478,2.85957 -2.6706,3.43808 -5.3017,1.59514 z m 64.9044,77.421996 c -2.233,-4.5375 -4.9191,-9.85267 -5.9692,-11.8115 -1.05,-1.95882 -2.1968,-5.35987 -2.5482,-7.55789 -0.531,-3.32048 -0.2287,-4.49399 1.7875,-6.9385 l 2.4265,-2.94211 -4.039,-10.20711 c -2.2215,-5.613906 -4.1403,-10.105786 -4.2642,-9.981956 -0.3203,0.32034 1.4478,38.671796 2.2073,47.878506 l 0.6344,7.68944 5.1513,0.94176 c 9.367,1.7125 9.1213,2.0891 4.6136,-7.07064 z m 16.7538,6.52966 c 2.0811,-0.94619 3.9515,-1.82629 4.1563,-1.95578 0.4769,-0.30142 -10.524,-25.08794 -12.4598,-28.07388 -1.7638,-2.72057 -4.9379,-3.11214 -4.0531,-0.5 0.3261,0.9625 1.9718,5.78742 3.6571,10.72204 3.1317,9.16938 3.4462,12.55423 1.2341,13.28271 -1.4898,0.49064 -7.5217,-11.63135 -9.3633,-18.817 -1.4159,-5.52461 -2.8874,-6.50791 -2.8874,-1.92946 0,3.63383 12.8223,28.99171 14.6597,28.99171 0.6999,0 2.9752,-0.77416 5.0564,-1.72034 z m -127.3747,-9.52966 c 0.339,-4.5375 0.9177,-19.16007 1.286,-32.4946 l 0.6696,-24.244596 3.6015,-2.73681 c 3.5727,-2.7149 22.1419,-18.17296 23.1015,-19.2309 1.5906,-1.75374 15.5007,-12.40466 19.5745,-14.98821 6.4681,-4.10198 9.542,-3.97629 13.6512,0.55821 1.8009,1.9872 6.8008,7.26151 11.111,11.72069 6.5632,6.79003 7.9871,7.83892 8.762,6.45428 0.8112,-1.44945 10.4563,-5.78807 12.8674,-5.78807 1.3954,0 4.0339,2.99003 4.0339,4.57144 0,0.78571 -0.6379,1.42857 -1.4176,1.42857 -1.4939,0 -0.7193,2.59447 8.234,27.5812 5.8832,16.418466 7.4963,19.199246 11.5824,19.965786 5.0246,0.94262 8.0384,4.78179 13.8669,17.66453 2.8789,6.36308 5.6843,11.73106 6.2343,11.92886 1.8747,0.67418 4.6654,-13.4189 5.2189,-26.35499 0.4626,-10.81351 0.2182,-14.12429 -1.6346,-22.142496 -3.2262,-13.96152 -9.4748,-25.30031 -20.521,-37.23769 -9.9685,-10.77269 -18.285,-16.66484 -31.8633,-22.5749299 -8.617,-3.75062 -9.0538,-3.83025 -21,-3.82891 -14.6146,0.002 -25.9895,1.84647 -35.9318,5.8275699 -25.1213,10.05906 -41.9593,25.95045 -48.7473,46.0067 -7.2485,21.416876 -7.0291,41.667086 0.6492,59.914366 l 2.6299,6.25 6.7125,0 6.7124,0 z m 90.7102,-66.639776 c -1.8477,-3.94501 -2.7453,-4.85765 -4.6689,-4.74709 -1.3097,0.0753 -2.3816,0.29071 -2.382,0.47874 0,0.77148 8.5321,9.90154 8.9189,9.54216 0.2307,-0.21441 -0.6099,-2.58763 -1.868,-5.27381 z"
         style="fill:#000000" />
    </g>
  </g>
</svg>
